<?xml version="1.0" standalone="no"?>
<!DOCTYPE svg PUBLIC "-//W3C//DTD SVG 1.1//EN" "http://www.w3.org/Graphics/SVG/1.1/DTD/svg11.dtd" >
<svg>
<metadata>
Created by FontForge 20090622 at Sat Nov 24 17:01:46 2018
 By ffonts
Copyright (c) 2018, KELGE
</metadata>
<defs>
<font id="AmericanHorrorStory-Regular" horiz-adv-x="185" >
  <font-face 
    font-family="American Horror Story"
    font-weight="400"
    font-stretch="normal"
    units-per-em="1000"
    panose-1="2 0 5 3 0 0 0 0 0 0"
    ascent="800"
    descent="-200"
    x-height="664.357"
    cap-height="667"
    bbox="-116.001 -214.999 1038 868.2"
    underline-thickness="50"
    underline-position="-100"
    stemh="78"
    stemv="81"
    unicode-range="U+0020-U+10FFEA"
  />
<missing-glyph horiz-adv-x="500" 
d="M50 0v533h400v-533h-400zM100 50h300v433h-300v-433z" />
    <glyph glyph-name="u10FFC0" unicode="Th" horiz-adv-x="662" 
d="M215 594h150v73h-363v-73h132v-594h81v594zM365 346h164v-346h81v667h-81v-159h-164v59h-81v-567h81v346zM529 410h-164v34h164v-34z" />
    <glyph glyph-name="u10FFC1" unicode="oo" horiz-adv-x="749" 
d="M230 182c16 -61.333 45.832 -109.501 89.499 -144.501s95.167 -52.5 154.5 -52.5c33.333 0 65.333 6.33301 96 19s57.667 30.667 81 54c48.667 48.667 73 107.667 73 177c0 60 -18.333 112.5 -55 157.5s-86.667 74.5 -150 88.5c-16 61.333 -46 109.5 -90 144.5
s-95.333 52.5 -154 52.5c-34 0 -66.167 -6.16699 -96.5 -18.5s-57.166 -30.5 -80.499 -54.5s-41.333 -51.167 -54 -81.5s-19 -62.166 -19 -95.499c0 -60.667 18.333 -113.167 55 -157.5s86.667 -73.833 150 -88.5zM225.999 264.999
c-80.667 34.667 -121.001 88.9971 -121.001 162.997c0 23.333 4.33301 45.333 13 66s20.667 38.834 36 54.501s33.5 27.834 54.5 36.501s43.167 13 66.5 13c73.333 0 127.333 -38.667 162 -116c-58.667 -10.667 -106.167 -34.667 -142.5 -72
s-59.166 -85.666 -68.499 -144.999zM305.998 260.996c15.333 78 61 125 137 141c-14 -76.667 -59.667 -123.667 -137 -141zM312.998 180.996c58 10.667 105.17 34.6699 141.503 72.0029s59.166 85.666 68.499 144.999c80.667 -34 121 -88.333 121 -163
c0 -23.333 -4.33301 -45.333 -13 -66s-20.834 -38.834 -36.501 -54.501s-33.834 -27.834 -54.501 -36.501s-42.667 -13 -66 -13c-73.333 0 -127 38.667 -161 116z" />
    <glyph glyph-name="u10FFC2" unicode="TT" horiz-adv-x="549" 
d="M318 543h-316v-73h122v-470h81v470h113v-470h81v594h148v73h-389v-73h160v-51z" />
    <glyph glyph-name="u10FFD6" unicode="IT" horiz-adv-x="500" 
d="M336 594h160v73h-444v-73h203v-594h81v594zM52 543v-543h81v543h-81z" />
    <glyph glyph-name="u10FFD8" unicode="LE" horiz-adv-x="485" 
d="M133 72v595h-81v-667h310v72h-229zM277 472h187v71h-187v53h151v71h-231v-539h246v73h-166v271z" />
    <glyph glyph-name="u10FFD9" unicode="Ll" horiz-adv-x="452" 
d="M133 73v594h-81v-667h310v73h-229zM276 202v465h-79v-539h248v74h-169z" />
    <glyph glyph-name="u10FFE0" unicode="Ea" horiz-adv-x="719" 
d="M419 228l11 44h128l11 -44h-150zM583 173l43 -173h85l-174 667h-85l-155 -594h-164v397h233v73h-233v51h190v73h-271v-667h395v73h-67l25 100h178zM545 327h-102l51 203z" />
    <glyph glyph-name=".notdef" horiz-adv-x="500" 
d="M50 0v533h400v-533h-400zM100 50h300v433h-300v-433z" />
    <glyph glyph-name="space" unicode=" " horiz-adv-x="260" 
 />
    <glyph glyph-name="exclam" unicode="!" 
d="M52 74v-74h81v74h-81zM133 131v537h-81v-537h81z" />
    <glyph glyph-name="quotedbl" unicode="&#x22;" horiz-adv-x="291" 
d="M182 471h33l24 122v74h-81v-74zM76 471h33l24 122v74h-81v-74z" />
    <glyph glyph-name="numbersign" unicode="#" horiz-adv-x="456" 
d="M258 376h-83l16 112h83zM308 322h106l7 54h-106l16 112h106l7 54h-106l18 125h-57l-18 -125h-83l18 125h-57l-18 -125h-105l-7 -54h105l-16 -112h-105l-7 -54h105l-18 -125h57l18 125h83l-18 -125h57z" />
    <glyph glyph-name="dollar" unicode="$" horiz-adv-x="443" 
d="M230.999 372.001c36 -23.333 62.333 -48.167 79 -74.5s25 -56.5 25 -90.5c0 -70 -34.667 -117.667 -104 -143v308zM230 678l-0.000976562 58.001h-48v-59c-34 -5.33301 -60.5 -18.333 -79.5 -39s-28.5 -47 -28.5 -79c0 -32.667 8.5 -61 25.5 -85s44.5 -47.333 82.5 -70
v-343c-54 8.66699 -99 35 -135 79l-59 -53c47.333 -62 112 -96 194 -102v-65h49v67c56 6.66699 101.333 30.5 136 71.5s52 90.833 52 149.5c0 51.333 -11.667 95.166 -35 131.499s-61 71.833 -113 106.5c-3.33301 2 -15 9.66699 -35 23c-30.667 20 -52 35.667 -64 47
s-18 24.333 -18 39c0 15.333 5.33301 27.5 16 36.5s25.334 13.5 44.001 13.5c26 0 52.667 -6.33301 80 -19l7 76c-22 8.66699 -45.667 14 -71 16z" />
    <glyph glyph-name="percent" unicode="%" horiz-adv-x="602" 
d="M435 207c22 0 40.833 -7.83301 56.5 -23.5s23.5 -34.5 23.5 -56.5s-7.66699 -40.667 -23 -56s-34.333 -23 -57 -23s-41.5 7.5 -56.5 22.5s-22.5 33.833 -22.5 56.5s7.66699 41.667 23 57s34 23 56 23zM435 269c-38.667 0 -72 -13.833 -100 -41.5s-42 -61.167 -42 -100.5
s13.833 -72.833 41.5 -100.5s61.167 -41.5 100.5 -41.5s72.833 14 100.5 42s41.5 61.333 41.5 100s-14 72 -42 100s-61.333 42 -100 42zM131 0h59l282 667h-59zM167 616c22 0 40.833 -7.83301 56.5 -23.5s23.5 -34.5 23.5 -56.5s-7.66699 -40.667 -23 -56
s-34.333 -23 -57 -23s-41.5 7.5 -56.5 22.5s-22.5 33.833 -22.5 56.5s7.66699 41.667 23 57s34 23 56 23zM167 678c-38.667 0 -72 -13.833 -100 -41.5s-42 -61.167 -42 -100.5s13.833 -72.833 41.5 -100.5s61.167 -41.5 100.5 -41.5s72.833 14 100.5 42
s41.5 61.333 41.5 100s-14 72 -42 100s-61.333 42 -100 42z" />
    <glyph glyph-name="ampersand" unicode="&#x26;" horiz-adv-x="688" 
d="M197.882 666.245c0 0.488281 40.0645 0.975586 89.166 0.975586h89.1641v-39.085v-38.8418l-25.1621 -0.732422l-25.4043 -0.734375l33.9541 -60.8262c18.5654 -33.4668 33.7119 -61.8047 33.7119 -62.7822c0 -4.6416 -37.6191 -58.3838 -40.0615 -57.4062
c-1.46777 0.732422 -14.1699 6.35059 -28.3379 12.7021c-25.1611 11.4814 -25.6494 11.7256 -51.3008 11.4814c-28.5811 0 -49.1016 -4.39648 -72.0635 -15.1445c-58.3848 -27.3604 -96.4922 -90.875 -97.2256 -161.474
c-0.488281 -43.4834 13.4355 -80.3701 43.4824 -115.547c40.3066 -47.1484 88.6748 -71.0869 150.235 -74.2637c58.6289 -2.93066 116.524 18.3223 149.014 54.9658c24.6748 27.6035 31.7578 55.9404 23.4521 91.6055c-9.52637 40.5527 -33.4668 66.4463 -73.7744 79.8828
c-27.8477 9.28223 -69.1328 6.10547 -90.6299 -7.08496c-20.0303 -12.459 -28.8252 -44.46 -18.0771 -65.4688l4.88477 -10.0166l-5.37207 -3.41895c-10.2607 -6.5957 -63.0273 -34.2002 -63.7598 -33.4688c-0.487305 0.490234 -2.6875 4.64355 -5.12988 9.28418
c-25.6504 50.5664 -17.0996 113.35 20.2764 146.816c18.3213 16.6113 47.3916 30.292 82.8115 39.3291c33.2236 8.55176 49.5908 9.28418 117.99 6.10742c37.8652 -1.70898 48.8564 -1.46582 68.4004 1.95312c38.5967 6.59766 71.0869 19.2998 102.111 40.0654
c7.08496 4.64062 13.1914 8.05957 13.6797 7.57129s8.30664 -12.458 17.3447 -26.3828l16.124 -25.4053l-10.5049 -10.748c-23.6963 -24.4297 -65.7139 -44.2168 -126.052 -59.3623l-10.2598 -2.68652l9.52734 -13.9248c23.207 -34.4443 33.2227 -64.0029 32.9785 -99.4248
c-0.245117 -28.8252 -4.39746 -45.9248 -18.5664 -72.0645c-35.9092 -67.4229 -114.082 -116.523 -198.114 -124.34c-40.3086 -3.90918 -88.4326 2.19824 -126.785 15.877c-70.8438 25.4072 -134.357 83.3027 -160.496 146.327
c-16.123 38.3535 -18.3223 51.0566 -18.3223 105.044c0.244141 44.7041 0.733398 50.8105 6.35156 72.3086c8.7959 32.7344 19.0557 55.9414 36.3994 82.8125c32.4893 50.0791 75.9717 84.2783 125.074 98.6914c17.0996 4.88574 58.6289 9.2832 69.6221 7.3291
l8.30566 -1.70996l-15.8789 30.291c-35.9111 68.1553 -62.7832 120.188 -62.7832 120.923z" />
    <glyph glyph-name="quotesingle" unicode="'" horiz-adv-x="186" 
d="M95 563h-87l80 104h93z" />
    <glyph glyph-name="parenleft" unicode="(" horiz-adv-x="280" 
d="M228 -58l38 34.998c-46.667 52.667 -80.834 108.167 -102.501 166.5s-32.5 122.5 -32.5 192.5s10.833 134.167 32.5 192.5s55.834 113.833 102.501 166.5l-38 35c-59.333 -57.333 -103.333 -118.166 -132 -182.499s-43 -134.833 -43 -211.5
c0 -77.333 14.333 -148.166 43 -212.499s72.667 -124.833 132 -181.5z" />
    <glyph glyph-name="parenright" unicode=")" horiz-adv-x="280" 
d="M52 730l-37.999 -35.0029c46 -53.333 80 -109.333 102 -168s33 -122.334 33 -191.001c0 -70 -10.833 -134.167 -32.5 -192.5s-55.834 -113.833 -102.501 -166.5l38 -35c59.333 56.667 103.333 117.334 132 182.001s43 135.334 43 212.001s-14.333 147.334 -43 212.001
s-72.667 125.334 -132 182.001z" />
    <glyph glyph-name="asterisk" unicode="*" horiz-adv-x="342" 
d="M215 513l97 32l-17 52l-97 -32v102h-54v-102l-97 32l-17 -52l97 -32l-60 -82l44 -31l60 82l60 -82l44 31z" />
    <glyph glyph-name="plus" unicode="+" horiz-adv-x="275" 
d="M336 302v73h-116v116h-73v-116h-116v-73h116v-116h73v116h116z" />
    <glyph glyph-name="comma" unicode="," 
d="M59 -24h-87l80 104h93z" />
    <glyph glyph-name="hyphen" unicode="-" horiz-adv-x="275" 
d="M236 302v73h-205v-73h205z" />
    <glyph glyph-name="period" unicode="." 
d="M52 0h81v81h-81v-81z" />
    <glyph glyph-name="slash" unicode="/" horiz-adv-x="207" 
d="M124 679l-98 -694h57l98 694h-57z" />
    <glyph glyph-name="zero" unicode="0" horiz-adv-x="559" 
d="M326.056 590.511c-14.5801 7.28906 -19.8594 8.5459 -39.7178 9.04785c-26.8994 1.00781 -41.7305 -3.2666 -63.0977 -18.0986c-44.998 -30.9199 -83.208 -101.56 -97.0332 -179.737c-5.27832 -28.6582 -4.52441 -113.374 1.00586 -142.031
c13.3213 -67.3701 37.2031 -116.643 74.4082 -154.601c30.418 -30.668 60.835 -42.7344 95.5264 -37.707c55.0518 7.79199 97.2842 54.8018 125.691 139.517c31.6719 94.7715 25.8906 208.396 -14.0791 289.09c-23.127 46.5059 -52.0352 79.4375 -82.7041 94.5205z
M234.804 678.242c23.127 6.0332 64.6055 6.53613 87.7324 1.25684c25.1377 -6.03418 58.8232 -23.8818 82.4531 -44.2441c76.6699 -65.3584 121.166 -176.973 121.166 -304.424c0 -88.7373 -23.3779 -174.709 -63.5996 -234.538
c-42.7354 -63.3477 -89.2412 -98.7939 -145.55 -110.356c-119.909 -24.8877 -233.785 81.4473 -270.237 252.136c-6.53418 29.6631 -6.78516 35.9473 -6.78516 94.5205c0 58.5723 0.250977 64.8555 6.78516 94.5195c20.3643 96.0283 68.8809 181.247 126.446 222.472
c19.1055 13.8262 37.709 22.374 61.5889 28.6582z" />
    <glyph glyph-name="one" unicode="1" horiz-adv-x="259" 
d="M57.2539 629.553v38.3633h58.7461h58.7471v-334.495v-334.494h-39.5645h-39.5635v296.129v296.131h-19.1816h-19.1836v38.3662z" />
    <glyph glyph-name="two" unicode="2" horiz-adv-x="370" 
d="M146.392 678.997c14.6416 2.44141 63.4434 1.46484 78.8164 -1.95117c32.4541 -6.83203 61.0039 -24.4014 79.3037 -48.5596c22.2061 -29.2803 29.7695 -53.1934 31.4775 -99.3125c1.95215 -49.7783 -4.87891 -78.8164 -30.9893 -132.742
c-17.8125 -36.8467 -49.7783 -84.4277 -96.3848 -143.968c-40.5059 -51.7305 -57.3428 -76.6201 -71.4951 -105.169c-11.7129 -23.1807 -17.5703 -42.2139 -17.5703 -56.3672v-10.4922h92.7256h92.7246l-1.21875 -5.61328
c-1.70898 -7.32031 -13.4209 -70.7627 -13.4209 -72.959c0 -1.21973 -57.5879 -1.95117 -127.863 -1.95117h-127.862l-1.70801 17.8115c-3.41699 36.6025 6.58691 101.266 21.2285 138.355c15.8613 40.5068 40.2627 79.3037 91.9932 147.14
c79.792 104.437 92.4805 127.618 105.17 189.354c11.2236 55.1484 2.92773 83.6963 -29.7705 101.754c-12.2012 6.83105 -14.3965 7.07617 -40.9941 6.83105c-25.6201 0 -30.2578 -0.730469 -54.1709 -9.02832c-27.5723 -9.27148 -53.4395 -21.4727 -74.668 -34.8936
c-7.07617 -4.63574 -13.1758 -8.2959 -13.6641 -8.2959c-0.245117 0 4.87988 23.1807 11.957 51.7305l12.4443 51.7314l20.4971 8.05176c18.7881 7.32129 47.3379 15.6172 63.4424 18.5439z" />
    <glyph glyph-name="three" unicode="3" horiz-adv-x="381" 
d="M30.4707 628.628v39.042h143.967c79.3047 0 143.968 -0.243164 143.968 -0.731445c0 -0.244141 -25.1338 -35.1377 -55.8779 -77.3525c-30.7461 -42.2129 -55.6357 -77.3516 -55.1475 -78.083c0.487305 -0.976562 7.32031 -2.92871 15.1279 -4.63672
c7.80859 -1.70801 24.4014 -8.05273 37.0898 -14.1533c18.5459 -8.78418 26.3535 -14.3975 40.2627 -28.5488c20.7422 -21.2295 35.3818 -46.1191 44.4102 -75.8887c6.34473 -20.2529 6.83203 -25.1318 6.83203 -63.4434
c-0.244141 -34.8936 -0.975586 -44.4102 -5.36816 -60.5137c-7.56348 -27.5742 -20.4961 -57.832 -33.6738 -79.3047c-44.6543 -72.2275 -108.829 -126.643 -193.745 -163.978c-20.9863 -9.27246 -77.3535 -29.0371 -93.2129 -32.6973l-6.34473 -1.46289l11.4697 44.4092
l11.4678 44.4102l22.9355 8.78418c49.5361 19.0332 88.0898 42.9473 125.667 78.5732c53.4395 50.7549 78.3291 98.0928 81.0127 154.459c2.44141 54.6602 -12.2002 85.6494 -49.0459 103.706c-40.751 19.7646 -105.658 14.1523 -173.737 -15.1289
c-12.6885 -5.36816 -23.6689 -9.5166 -24.1572 -9.02832c-0.243164 0.487305 30.9893 43.9219 69.5439 96.1406l70.2754 95.165l-66.8604 0.733398l-66.8584 0.486328v39.042z" />
    <glyph glyph-name="four" unicode="4" horiz-adv-x="432" 
d="M141.615 524.993l116.45 150.514l0.724609 -64.2637l0.482422 -64.2656l-35.0312 -44.6943c-19.3271 -24.4023 -35.0312 -45.1787 -35.0312 -45.9043c0 -0.723633 15.7041 -1.20703 35.0312 -1.20703h35.0312v25.3672v25.3682h39.8643h39.8633v-25.3682v-25.3672h26.5762
h26.5752v-41.0723v-41.0703h-26.5752h-26.5762v-186.029v-186.029h-39.8633h-39.8643v186.029v186.029l-116.933 0.482422l-117.174 0.724609z" />
    <glyph glyph-name="five" unicode="5" horiz-adv-x="393" 
d="M52.5361 654.979l1.21973 12.6875h98.8252h98.5811v-40.2627v-40.2607h-62.9541h-62.9561l-2.92773 -34.6494c-4.39355 -50.2676 -5.36816 -45.6309 11.2236 -42.7021c24.6465 4.14746 72.7168 3.41406 94.4326 -1.70898
c69.7881 -16.1055 116.883 -64.9082 131.768 -136.891c5.36914 -26.8428 5.12402 -70.5195 -0.975586 -98.0938c-24.1582 -110.294 -127.132 -214.486 -261.582 -264.51c-20.7412 -7.56348 -66.3721 -21.9609 -67.1035 -20.9844
c-0.244141 0.244141 4.3916 18.0566 10.249 39.5293l11.7129 44.167c0.975586 3.9043 6.09961 6.83203 20.2529 11.9561c48.3145 17.082 94.4326 46.1191 131.522 82.9639c48.0713 47.8271 73.6914 94.9219 78.8164 144.944
c6.58789 63.2002 -18.7891 104.681 -72.2285 118.589c-39.2852 10.25 -103.217 -0.974609 -165.196 -29.0371l-14.1514 -6.58789l1.46289 14.1533c0.732422 7.80762 5.36816 63.6865 10.0039 123.957c4.63672 60.5166 9.0293 115.663 10.0049 122.74z" />
    <glyph glyph-name="six" unicode="6" horiz-adv-x="483" 
d="M187.326 648.088l14.8857 20.0078h47.3389c37.0898 0 46.8506 -0.731445 45.3857 -2.92676c-1.22168 -1.70801 -15.373 -23.4258 -31.7217 -48.3145c-109.806 -167.394 -155.437 -291.352 -145.188 -395.301c9.76074 -99.3135 56.8555 -151.289 136.891 -151.289
c34.4062 0 67.1035 11.7129 88.8213 31.7227c36.6016 33.918 31.9658 98.8252 -8.78418 119.811c-6.10156 3.17188 -13.9092 4.63672 -24.4023 4.63672c-25.377 -0.245117 -47.0938 -12.9336 -64.1758 -37.8223c-5.12305 -7.32031 -10.2471 -12.6885 -10.9805 -11.7139
c-0.975586 1.2207 -7.56445 17.8145 -14.3965 37.0908c-13.6641 38.3096 -13.9082 40.2617 -3.66016 57.832c21.9619 37.5771 73.4482 56.1221 121.764 43.6777c49.2891 -12.6885 88.8193 -51.7314 102.729 -101.266c5.12402 -18.5449 7.32031 -76.1328 3.41699 -92.9688
c-12.9336 -56.3662 -69.5439 -108.342 -138.113 -126.887c-15.6162 -4.39258 -26.1074 -5.36816 -55.8779 -5.36816c-43.9219 0 -62.4668 4.14941 -97.1172 21.9609c-18.2998 9.51758 -26.5967 15.6162 -45.6299 34.8945c-44.4102 44.4102 -64.4199 91.5039 -70.7646 166.66
c-8.53906 101.265 21.7168 214.731 90.2861 340.886c19.0332 34.6494 40.0166 68.0791 59.2939 94.6768z" />
    <glyph glyph-name="seven" unicode="7" horiz-adv-x="401" 
d="M59.8652 659.275l3.34863 7.6543h168.622c93.041 0 168.861 -0.717773 168.861 -1.6748c0 -1.19434 -64.3389 -151.161 -142.79 -333.657l-143.03 -331.981h-41.1387c-22.7227 0 -41.3789 0.477539 -41.3789 0.956055c0 0.717773 56.4473 133.224 125.331 294.909
l125.33 293.715l-126.287 0.717773l-126.287 0.478516l13.1553 30.6143c7.17578 16.7432 14.5898 33.9648 16.2637 38.2686z" />
    <glyph glyph-name="eight" unicode="8" horiz-adv-x="482" 
d="M282.059 312.8c-18.3271 4.70508 -52.752 6.19043 -70.584 3.21973c-39.1289 -6.44043 -84.2041 -38.1406 -99.3125 -70.0889c-21.5449 -45.0742 -13.8682 -95.3496 20.3096 -131.013c24.5186 -25.7559 53.9902 -40.3682 90.1484 -44.8262
c73.8018 -9.16309 143.396 34.6729 157.017 98.5693c5.94336 27.9854 1.7334 58.6953 -11.1445 82.2227c-14.8604 27.4902 -50.0283 52.752 -86.4336 61.916zM261.008 602.562c-11.3936 5.94531 -33.6826 4.45898 -45.5703 -3.21875
c-12.8789 -8.4209 -14.6123 -37.1494 -2.97266 -49.5312c14.6133 -15.6035 49.0371 -13.8701 60.4297 3.21777c10.6494 15.8516 4.70605 40.8652 -11.8867 49.5322zM201.321 671.164c19.3174 6.6875 53.4941 7.67773 73.5547 2.22852
c29.7197 -7.92383 58.2012 -30.4619 69.3447 -54.7324c23.2793 -51.0186 3.71582 -110.208 -44.8252 -135.223l-16.0996 -8.41992v-38.6348v-38.3887l19.0703 -4.70508c10.6504 -2.47656 30.2158 -9.90625 43.5879 -16.8418
c50.5234 -25.7559 91.8838 -77.0215 107.237 -133.24c6.93457 -24.5186 6.19141 -76.5273 -0.990234 -102.036c-23.7744 -82.9678 -95.3486 -141.663 -186.984 -153.302c-88.9092 -11.1455 -183.02 39.1289 -220.912 118.134
c-15.1074 31.7012 -19.3174 50.7705 -19.3174 87.9199c-0.248047 35.4141 5.44727 61.4189 18.3262 87.4229c27.7373 55.2285 81.9746 98.8174 140.424 112.439l17.8311 4.20898l-0.24707 38.6357v38.3877l-14.8594 7.18164
c-18.5752 8.66797 -39.1309 28.7295 -47.7988 46.3125c-27.9844 57.457 0 121.354 62.6582 142.652z" />
    <glyph glyph-name="nine" unicode="9" horiz-adv-x="378" 
d="M111.812 677.315c46.5801 10.1035 111.15 -0.985352 153.787 -26.124c45.1016 -26.8633 83.5479 -76.8936 97.3486 -127.169c38.9395 -141.958 -41.6504 -309.792 -237.333 -494.631c-18.7314 -17.499 -35.4902 -32.2871 -37.2158 -32.7793
c-1.72461 -0.492188 -14.293 12.5693 -27.8486 29.0811l-24.3984 29.8213l55.9434 55.9453c79.8516 80.0967 127.665 141.71 161.428 208.498c34.2568 67.7754 46.334 131.112 33.7637 176.707c-10.5957 38.2002 -39.4326 70.7314 -81.5762 91.6807l-20.7012 10.3516
l-31.2988 6c-30.3145 0 -31.5469 -6.24707 -43.376 -13.3945c-17.498 -10.5967 -25.6318 -27.6025 -25.6318 -52.9873c0 -40.9102 18.9775 -73.1963 50.0303 -85.0254c21.1943 -8.13379 48.5518 0.492188 73.1973 22.6729c6.90039 6.16113 12.8154 10.8447 13.3076 10.3516
c0.494141 -0.494141 -2.95703 -24.3994 -7.88574 -53.2344l-8.62695 -52.2471l-9.8584 -3.94238c-5.66797 -2.21973 -18.9756 -5.17676 -29.8193 -6.65625c-72.9521 -9.85742 -140.478 45.1016 -157.977 128.156c-4.18945 19.2236 -4.68359 58.1621 -1.23242 77.1396
c3.94238 21.4414 18.2383 47.8125 34.9961 64.0771c17.251 17.0068 46.5791 32.5332 70.9775 37.708z" />
    <glyph glyph-name="colon" unicode=":" 
d="M52 409v-81h81v81h-81zM52 81v-81h81v81h-81z" />
    <glyph glyph-name="semicolon" unicode=";" 
d="M52 409v-81h81v81h-81zM59 -24h-87l80 104h93z" />
    <glyph glyph-name="less" unicode="&#x3c;" horiz-adv-x="233" 
d="M27 311l100 -263h88l-103 263l103 263h-86z" />
    <glyph glyph-name="equal" unicode="=" horiz-adv-x="297" 
d="M266 366v73h-235v-73h235zM266 236v73h-235v-73h235z" />
    <glyph glyph-name="greater" unicode="&#x3e;" horiz-adv-x="233" 
d="M215 311l-102 263h-86l103 -263l-103 -263h88z" />
    <glyph glyph-name="question" unicode="?" horiz-adv-x="374" 
d="M198 393c100.667 17.333 151.001 64.667 151.001 142c0 43.333 -16.333 78.166 -49 104.499s-76.667 39.5 -132 39.5c-56.667 0 -107 -18 -151 -54l49 -56c31.333 24.667 64.666 37 99.999 37c32 0 56.5 -6.5 73.5 -19.5s25.5 -30.833 25.5 -53.5
c0 -26 -12 -45.667 -36 -59s-61.333 -21.666 -112 -24.999v-122h81v66zM117 245v-74h81v74h-81zM117 74v-74h81v74h-81z" />
    <glyph glyph-name="at" unicode="@" horiz-adv-x="642" 
d="M239 211l54 -211h79l-145 556h-70l-149 -556h75l54 211h102zM223 275h-70l35 138zM480 593h160v74h-397v-74h156v-593h81v593z" />
    <glyph glyph-name="A" unicode="A" horiz-adv-x="537" 
d="M128.698 344.938l113.371 322.416l23.9189 0.282227l23.6787 -0.716797l116.72 -333.462c64.0996 -182.973 116.72 -332.699 116.72 -332.938c0 -0.478516 -18.6562 -0.717773 -41.3779 -0.717773h-41.6172l-61.708 173.406l-61.9482 173.405h-50.7061h-50.7061
l-3.82715 -10.0459l-62.1875 -172.927l-58.3604 -162.644l-42.0957 -0.717773l-42.0947 0.522461l4.30371 10.2402c2.63184 6.45898 55.4902 156.665 117.917 333.896zM266.261 421.053l26.0713 0.716797l-13.6348 38.2686
c-7.41309 21.2871 -14.1113 36.5947 -14.8271 34.6807c-4.78516 -12.4355 -24.875 -73.1885 -24.1582 -73.666c0.239258 -0.239258 12.1982 -0.239258 26.5488 0z" />
    <glyph glyph-name="B" unicode="B" horiz-adv-x="390" 
d="M156.04 364.583c-7.65332 2.15234 -21.2871 4.54395 -30.1367 5.50098l-15.7852 1.91406v-145.661v-145.9l17.6992 1.67383c71.2764 6.45801 137.29 52.8594 154.511 108.588c9.08984 29.4209 5.02344 66.9707 -10.0449 93.2803
c-19.8525 34.6816 -68.4062 68.4062 -116.243 80.6045zM150.3 584.629c-8.37012 1.91504 -20.8086 3.58887 -27.5049 3.58887h-12.6768v-68.4053v-68.6465l17.459 1.43555c27.0293 2.3916 53.8174 12.1992 75.3428 27.9844c11.4805 8.13184 22.0049 27.2656 22.0049 39.4648
c-0.238281 25.5928 -34.2031 55.0117 -74.625 64.5781zM31.1885 333.489v334.136l60.5117 -0.956055c53.0986 -0.958008 62.4268 -1.6748 79.4082 -6.45801c54.7725 -15.3086 101.653 -50.9453 122.223 -92.3232c7.65332 -15.7861 8.84863 -20.3311 9.80566 -39.9434
c1.91406 -40.9004 -10.5244 -71.0381 -41.3789 -99.5l-16.9814 -15.5469l21.7666 -14.3506c24.875 -16.2646 55.7285 -46.4014 69.6006 -67.4492c11.4805 -17.46 23.6787 -49.2715 27.7451 -71.5156c1.6748 -9.80566 2.3916 -27.7441 1.6748 -44.248
c-0.957031 -22.7217 -2.63184 -31.8115 -8.85059 -49.9883c-11.958 -35.6377 -26.0703 -57.1641 -56.6855 -86.8232c-38.7471 -37.0723 -80.126 -58.3594 -140.399 -71.9932c-17.2207 -3.82715 -33.2451 -5.02246 -75.1016 -5.97852l-53.3379 -1.19727v334.136z" />
    <glyph glyph-name="C" unicode="C" horiz-adv-x="383" 
d="M228.071 673.329c9.0293 1.70703 30.502 3.41602 47.3389 3.41602c31.2344 0.244141 51.4863 -3.41602 73.6914 -12.9326l9.02832 -3.9043v-28.793c0 -15.6172 -0.732422 -35.8701 -1.46289 -44.6553l-1.70898 -16.1045l-13.6641 8.2959
c-49.292 29.7705 -120.299 23.915 -163.733 -13.4209c-13.9082 -11.7129 -32.4541 -38.7969 -41.2373 -59.7812c-36.6016 -88.0898 -28.5508 -212.048 21.7168 -332.102c37.5781 -90.041 114.686 -121.519 181.789 -74.4238c7.56445 5.36719 14.1533 9.5166 14.3965 9.02734
c0.244141 -0.487305 -0.731445 -20.9854 -1.95215 -45.3848l-2.68359 -44.8984l-7.07715 -5.6123c-12.4443 -10.0049 -31.7207 -14.6416 -60.0264 -14.6416c-32.4531 0.244141 -58.0752 6.83301 -92.2363 23.4248c-40.5059 20.0107 -72.4727 53.1953 -95.6533 99.5576
c-76.8643 153.729 -81.501 349.182 -10.9805 456.303c15.8604 23.9141 42.459 51.7314 60.5146 63.2002c25.377 15.8604 53.9277 27.3291 83.9404 33.4297z" />
    <glyph glyph-name="D" unicode="D" horiz-adv-x="423" 
d="M124.4 586.08v-497.68c62.8271 7.59961 101.719 32.3066 136.68 94.1191c34.96 61.8145 52.4395 130.974 52.4395 207.48c0 62.3193 -15.96 110.58 -47.8789 144.78c-31.9209 34.2002 -72.334 51.2998 -141.24 51.2998zM374.319 510.08
c5.06738 -11.6533 8.86719 -27.2334 11.4004 -46.7402c2.5332 -19.5059 3.7998 -40.1533 3.7998 -61.9395c0 -29.3877 -2.02637 -59.0273 -6.0791 -88.9199c-4.05371 -29.8936 -11.4004 -61.8145 -22.04 -95.7607c-10.6406 -33.9473 -33.0605 -70.5537 -67.2598 -109.819
c-34.2002 -39.2666 -75.874 -67.7666 -125.021 -85.5l-59.2793 -12.9199c-23.8125 -5.57422 -42.8125 -8.36035 -57 -8.36035c-5.57324 0 -8.35938 0.760742 -8.35938 2.28027v663.48c55.7324 0 102.979 -2.91406 141.739 -8.74023
c38.7607 -5.82715 74.9873 -20.0137 108.681 -42.5605s60.166 -57.3799 79.4189 -104.5z" />
    <glyph glyph-name="E" unicode="E" horiz-adv-x="307" 
d="M27.2803 333.272v333.657h86.1064h86.1045v-39.4648v-39.4648h-45.4443h-45.4443v-29.8975v-29.8975h71.7539h71.7549v-39.4648v-39.4648h-71.7549h-71.7539v-185.365v-185.364h83.7129h83.7139v-39.4658v-39.4639h-124.374h-124.375v333.656z" />
    <glyph glyph-name="F" unicode="F" horiz-adv-x="372" 
d="M28 333.643v333.657h102.848h68.8477v-39.4648v-39.4648h-28.1875h-62.1875v-29.8975v-29.8975h110.023h110.022v-39.4648v-39.4648h-110.022h-110.023v-224.829v-224.83h-40.6602h-40.6602v333.656z" />
    <glyph glyph-name="G" unicode="G" horiz-adv-x="413" 
d="M251.504 665.07c32.1289 6.76562 99.042 3.38281 107.74 -5.31348c1.44824 -1.69043 -11.3545 -77.3018 -13.5273 -79.4756c-0.485352 -0.723633 -4.5918 0.96582 -9.18066 3.14062c-11.5947 6.28027 -51.6953 7.48926 -72.2285 2.41602
c-57.7334 -14.4951 -93.4863 -56.5273 -121.99 -143.009c-25.124 -76.5752 -30.6797 -150.012 -16.6689 -220.066c11.5957 -57.7334 37.9268 -110.638 64.2568 -130.204c21.0156 -15.46 43.4814 -20.0498 79.2344 -16.4258l14.7344 1.69043v167.405v167.648h-21.7412
h-21.7393v39.8564v39.8584h61.5986h61.5996v-237.701v-237.7l-14.9766 -5.07324c-24.8818 -7.97168 -45.8984 -12.0791 -76.0947 -14.4932c-44.6904 -3.625 -77.0596 1.68945 -107.98 17.1504c-56.7676 28.5039 -95.9014 92.7617 -116.677 190.112
c-6.03809 28.2646 -6.52148 34.5449 -6.52148 92.0381c-0.241211 53.627 0.483398 65.4639 5.31543 92.2773c10.3867 57.4922 30.1934 115.71 54.1113 157.5c36.958 65.2236 87.2031 104.6 150.735 118.368z" />
    <glyph glyph-name="H" unicode="H" horiz-adv-x="453" 
d="M320.37 493.285h-187.271v-51.9111h187.271v51.9111zM133.099 -0.0839844h-81.293v667.25h81.293v-100.714h187.271v100.714h80.2939v-667.24h-80.2939v367.449h-187.271v-367.459z" />
    <glyph glyph-name="I" unicode="I" 
d="M133 0v667h-81v-667h81z" />
    <glyph glyph-name="J" unicode="J" horiz-adv-x="320" 
d="M269.603 665.847v-494.414c0 -49.6748 -10.8662 -93.1396 -32.5986 -130.396c-21.7324 -37.2549 -52.2607 -55.8838 -91.5869 -55.8838c-17.0752 0 -34.668 4.78711 -52.7793 14.3594c-18.1094 9.57227 -32.8574 21.0859 -44.2402 34.5391v75.2881
c39.8428 -29.4941 70.8887 -44.2422 93.1396 -44.2422c20.1797 0 33.7617 10.8662 40.7471 32.5996c6.98633 21.7314 10.4785 50.9678 10.4785 87.7051v480.444h76.8398z" />
    <glyph glyph-name="K" unicode="K" horiz-adv-x="475" 
d="M263 468l174 199h-100l-204 -216v216h-81v-667h81v323l67 72l160 -395h85z" />
    <glyph glyph-name="L" unicode="L" horiz-adv-x="379" 
d="M133 73v594h-81v-667h302v73h-221z" />
    <glyph glyph-name="M" unicode="M" horiz-adv-x="589" 
d="M180.792 519.428l-91.5752 -519.629h-76.2168l118.969 668.009h60.1143l102.598 -193.88l102.024 193.88l59.7744 -0.77832l118.948 -667.23h-76.5781l-91.5469 519.629l-112.381 -218.509z" />
    <glyph glyph-name="N" unicode="N" horiz-adv-x="497" 
d="M128.068 488.177l-0.879883 -488.378h-75.9307l0.65625 667.604h75.4033l239.033 -483.896l2.59082 483.896h76.0977l-0.177734 -667.604h-75.5186z" />
    <glyph glyph-name="O" unicode="O" horiz-adv-x="351" 
d="M175 483.758c21.1426 0 39.1523 -7.43945 54.0312 -22.3145c14.877 -14.877 22.3135 -32.8887 22.3135 -54.0312s-7.33887 -39.1523 -22.0234 -54.0312c-14.6797 -14.875 -32.7871 -22.3145 -54.3213 -22.3145s-39.6416 7.33984 -54.3213 22.0244
c-14.6846 14.6797 -22.0234 32.7871 -22.0234 54.3213c0 21.5332 7.43652 39.6426 22.3135 54.3232c14.8789 14.6836 32.8887 22.0225 54.0312 22.0225zM175 563.357c-20.9922 0 -40.9863 -4 -59.9795 -11.9971c-18.9912 -7.99609 -35.7373 -19.1201 -50.2305 -33.3623
c-14.4961 -14.2461 -25.7422 -30.8652 -33.7383 -49.8574c-7.99805 -18.9932 -11.9951 -39.2373 -11.9951 -60.7285s3.99707 -41.7344 11.9951 -60.7275c7.99609 -18.9932 19.1182 -35.6133 33.3623 -49.8564c14.2451 -14.2451 30.8662 -25.3672 49.8574 -33.3633
c18.9932 -7.99902 39.2363 -11.9961 60.7285 -11.9961s41.7354 3.99707 60.7285 11.9961c18.9912 7.99609 35.6123 19.2412 49.8574 33.7383c14.2441 14.4922 25.3652 31.2383 33.3623 50.2305c7.99805 18.9941 11.9951 38.9854 11.9951 59.9785
c0 21.4912 -3.99707 41.7354 -11.9951 60.7285c-7.99707 18.9922 -19.2422 35.6113 -33.7383 49.8574c-14.4932 14.2422 -31.2393 25.3662 -50.2305 33.3623c-18.9932 7.99707 -38.9873 11.9971 -59.9795 11.9971zM198.599 73.8086v-73.6152h79.6797v73.6152h-79.6797z
M70.6396 73.8086v-73.6152h79.6777v73.6152h-79.6777z" />
    <glyph glyph-name="P" unicode="P" horiz-adv-x="435" 
d="M133 468.001v125h77c42.667 0 73.334 -4.5 92.001 -13.5s28 -24.833 28 -47.5c0 -24 -9.33301 -40.667 -28 -50s-49.334 -14 -92.001 -14h-77zM52 667v-666.999h81v394h48c82 0 141.333 10 178 30s55 56 55 108c0 51.333 -17 86.666 -51 105.999s-89 29 -165 29h-146z
" />
    <glyph glyph-name="Q" unicode="Q" horiz-adv-x="559" 
d="M327.105 589.645c-17.5967 8.79883 -20.8643 9.55273 -42.9863 10.0547c-14.832 0.50293 -28.1543 -0.75293 -34.1875 -2.76367c-47.7627 -15.5859 -83.2061 -60.584 -109.099 -138.763c-15.335 -46.0029 -18.8535 -69.6328 -18.8535 -126.695
c0 -54.8027 3.77051 -82.707 16.5898 -121.921c18.8545 -58.8252 57.0645 -110.357 97.2852 -131.473c19.8594 -10.5596 37.708 -13.8271 59.8291 -10.5596c45.752 6.28516 77.9287 34.4404 106.335 91.7539c27.4004 55.5566 37.2031 96.2812 39.4658 160.885
c1.50781 45.752 -2.2627 81.4492 -11.8154 116.39c-20.1113 72.9014 -59.8271 131.977 -102.563 153.092zM240.128 679.389c19.8584 4.77637 61.0859 4.77637 81.4473 0c37.4561 -8.79883 76.4199 -34.1885 110.357 -72.1455
c32.4287 -36.1992 55.0518 -75.416 70.6377 -121.922c19.6084 -58.5703 27.4004 -136.752 19.8594 -203.619c-15.334 -139.768 -91.7549 -259.677 -183.759 -288.334c-7.79297 -2.51562 -13.5752 -5.78223 -12.8213 -7.04004
c3.26758 -5.27832 113.372 -57.0635 129.21 -60.834c20.3623 -4.77637 40.7256 -4.77637 56.3086 0c6.78906 2.01074 12.8223 3.26855 13.3252 2.76562c0.500977 -0.50293 -9.55469 -6.28516 -22.123 -12.5693c-22.623 -11.3115 -23.6289 -11.5645 -47.5107 -11.5645
c-26.8975 0 -56.5605 6.28613 -75.665 16.0898c-6.28516 3.0166 -30.418 18.0996 -54.0479 32.9307c-40.7236 26.1436 -43.7402 27.4014 -62.8457 30.6689c-25.1377 4.02148 -39.9697 8.79785 -62.5938 20.1113c-16.8428 8.54492 -18.3506 8.79785 -35.1924 7.03711
c-33.1826 -3.26758 -63.6016 -16.5898 -99.0449 -43.4893c-11.5645 -8.79785 -21.6201 -15.333 -22.373 -14.8311c-1.75977 2.01074 42.4824 52.5381 53.04 60.583c10.3066 7.79199 31.4238 17.5967 43.7402 20.3623c4.27441 0.753906 8.0459 2.76562 8.0459 4.27441
c0 1.50586 -7.79395 10.8076 -17.0947 20.6123c-61.5879 64.8555 -93.5146 158.874 -93.5146 275.012c0 77.1738 15.082 144.292 46.5068 206.385c36.1982 72.1465 95.0215 124.686 156.107 139.517z" />
    <glyph glyph-name="R" unicode="R" horiz-adv-x="436" 
d="M309.452 580.347l-9.80762 6.45801l-90.4092 0.716797l-90.4111 0.71875v-54.0557v-54.0547l86.8232 0.717773l87.0625 0.717773l11.7188 7.1748c6.9375 4.54492 14.3506 11.7197 18.6562 18.6562c5.98047 9.56641 6.93652 13.6328 6.93652 27.7451
c0 21.0479 -6.93652 36.1162 -20.5693 45.2051zM42.2871 333.272v333.657h126.287h126.049l22.7217 -5.97949c27.2666 -7.41504 39.9434 -14.3506 57.6426 -32.0508c22.4824 -22.7217 33.4854 -52.1396 33.4854 -91.127
c0.239258 -27.7441 -2.87012 -41.3789 -13.6328 -64.1006c-11.4814 -23.918 -32.29 -44.7266 -55.9688 -56.207c-28.7021 -14.1123 -40.4219 -16.0254 -92.5635 -16.0254h-46.1611v-16.5029c0 -31.8115 11.7197 -85.6279 28.9404 -134.181
c10.7627 -29.6592 51.1846 -110.981 73.9062 -148.292c21.5264 -35.6387 47.1191 -71.0371 65.2979 -90.1719l11.958 -12.6758h-20.8086h-20.8086l-25.5938 25.8311c-63.6211 63.1436 -124.134 155.228 -155.467 235.354c-12.6758 32.0508 -24.874 75.1035 -30.375 105.958
c-2.15332 13.1543 -5.02246 26.5479 -5.98047 29.8965c-1.19434 3.34961 -2.15234 -84.6699 -2.15234 -195.409l-0.239258 -201.63h-38.2686h-38.2686v333.656z" />
    <glyph glyph-name="S" unicode="S" horiz-adv-x="426" 
d="M65.1523 108.373c34.9199 -27.6982 45.3105 -25.8721 70.5391 -29.4385c26.8203 -3.79297 56.2812 -2.38281 80.7236 9.27441c30.5723 14.5947 56.5889 41.3037 72.5664 71.1816c15.709 29.3701 18.9746 64.8682 18.5713 98.1553
c-0.305664 25.9326 -6.1748 52.1982 -16.3057 76.0713c-7.25293 17.1191 -19.3779 31.8721 -31.1182 46.2998c-12.6846 15.6074 -27.166 29.7666 -42.1631 43.1543c-14.3301 12.79 -30.6738 23.1328 -45.4863 35.3594c-15.1914 12.5635 -31.6309 24.0488 -44.4814 39.0088
c-15.0283 17.4863 -31.7656 35.8926 -37.3164 58.2812c-4.79199 19.3115 -3.67676 41.5479 4.9541 59.4736c8.24316 17.0918 24.7021 30.0957 41.4111 39.0635c15.4307 8.28613 33.6465 11.4219 51.1416 11.916c23.0742 0.666992 39.7695 -0.785156 68.2168 -11.8232
l-16.4951 -73.3838c-22.8691 12.334 -27.0059 15.918 -42.127 17.3301c-8.11426 0.758789 -17.2402 -0.366211 -23.9717 -4.96973c-4.00977 -2.74219 -7.15527 -7.42383 -7.91895 -12.2158c-0.919922 -5.87012 1.49414 -12.1787 4.63965 -17.2266
c12.2354 -19.7158 34.5547 -31.002 52.2764 -45.999c20.0205 -16.9717 42.0479 -31.6367 61.0137 -49.7783c18.6104 -17.8047 37.4463 -36.04 51.4541 -57.6553c18.8672 -29.1484 34.3359 -61.3623 42.542 -95.1025c6.2168 -25.543 7.11523 -52.5811 4.49707 -78.7344
c-4.1123 -41.249 -14.0625 -82.7012 -31.5029 -120.322c-8.7793 -18.957 -21.6152 -36.1602 -36.0205 -51.3096c-15.3994 -16.1943 -33.0371 -30.9004 -52.8438 -41.2441c-21.335 -11.1611 -45.1211 -18.3135 -69.0225 -21.3926
c-28.9434 -3.72559 -59.127 -3.21191 -87.4316 3.86719c-27.7051 6.92773 -39.751 5.43945 -77.2871 36.9502z" />
    <glyph glyph-name="T" unicode="T" horiz-adv-x="450" 
d="M267 594h160v73h-401v-73h160v-594h81v594z" />
    <glyph glyph-name="U" unicode="U" horiz-adv-x="471" 
d="M52.2715 398.294l-0.981445 268.968h40.4561h40.7002l0.491211 -264.064l0.734375 -264.308l9.07227 -17.1621c19.124 -36.5322 50.7529 -55.6562 92.6797 -55.6562c17.1621 0 24.0273 0.980469 38.0039 6.61816c28.1963 11.2783 47.5654 28.4414 58.3535 51.9785
l5.39355 11.7695l0.734375 265.534l0.492188 265.29h40.7002h40.4551l-0.736328 -268.968c-0.979492 -297.163 0.246094 -277.303 -16.6719 -312.854c-20.1045 -42.6621 -70.3672 -82.873 -120.14 -96.3564c-24.7646 -6.62109 -71.5938 -6.13184 -96.8477 0.979492
c-49.0371 14.2207 -93.1709 50.5088 -115.481 94.8867c-17.8994 36.042 -16.6729 14.2207 -17.4082 313.345z" />
    <glyph glyph-name="V" unicode="V" horiz-adv-x="445" 
d="M226 149l-133 518h-85l176 -667h77l176 667h-79z" />
    <glyph glyph-name="W" unicode="W" horiz-adv-x="636" 
d="M360 373l77 294h-79l-37 -167l-37 167h-85l81 -306l-54 -211l-133 517h-85l176 -667h77l57 244l57 -244h77l176 667h-79l-132 -517z" />
    <glyph glyph-name="X" unicode="X" horiz-adv-x="481" 
d="M238 270l140 -270h95l-188 355l165 312h-89l-120 -233l-121 233h-95l168 -318l-185 -349h89z" />
    <glyph glyph-name="Y" unicode="Y" horiz-adv-x="486" 
d="M5.11035 666.147h91.8916l144.866 -218.663l148.021 219.44l90.5586 -0.393555l-200.445 -301.445v-365.021h-75.9365v366.024z" />
    <glyph glyph-name="Z" unicode="Z" horiz-adv-x="447" 
d="M0 0h433v73h-313l313 594h-373v-73h253z" />
    <glyph glyph-name="bracketleft" unicode="[" horiz-adv-x="280" 
d="M150 667h110v61h-179v-789h179v61h-110v667z" />
    <glyph glyph-name="backslash" unicode="\" horiz-adv-x="205" 
d="M82 679h-57l98 -694h57z" />
    <glyph glyph-name="bracketright" unicode="]" horiz-adv-x="280" 
d="M130 667v-667h-110v-61h179v789h-179v-61h110z" />
    <glyph glyph-name="asciicircum" unicode="^" horiz-adv-x="307" 
d="M61.3584 768.475l60.9922 21.2861c0.716797 0 28.7012 -9.32715 62.1865 -21.0469l60.9902 -21.2871l0.717773 -35.877l0.71875 -36.1162l-41.3789 14.3506l-61.708 21.5264l-20.3311 7.1748l-20.3311 -7.1748l-61.707 -21.5264l-41.3789 -14.3506l0.716797 36.1162
l0.71875 36.1162z" />
    <glyph glyph-name="underscore" unicode="_" horiz-adv-x="635" 
d="M604 -73v73h-573v-73h573z" />
    <glyph glyph-name="grave" unicode="`" horiz-adv-x="307" 
d="M26.8936 789.283v35.6377l58.1221 -20.0918c131.788 -45.4434 188.474 -65.2959 189.67 -66.252c0.477539 -0.71875 0.717773 -16.9824 0.477539 -36.1172l-0.71582 -34.6816l-113.611 39.2256c-62.4258 21.5264 -118.155 40.9004 -123.656 43.0537l-10.2861 3.82617
v35.3994z" />
    <glyph glyph-name="a" unicode="a" horiz-adv-x="537" 
d="M302.616 391.394l-2.86914 7.6543h-34.4434h-34.2021l-3.34863 -7.6543l-3.10938 -7.89355l39.4648 -0.716797c21.7646 -0.240234 39.9434 -0.240234 40.4209 0.239258c0.478516 0.477539 -0.477539 4.30566 -1.91309 8.37109zM266.261 421.053l26.0713 0.716797
l-13.6348 38.2686c-7.41309 21.2871 -14.1113 36.5947 -14.8271 34.6807c-4.78516 -12.4355 -24.875 -73.1885 -24.1582 -73.666c0.239258 -0.239258 12.1982 -0.239258 26.5488 0zM240.908 665.974c0 0.478516 11.002 0.956055 24.6348 0.956055h24.3965l116.721 -331.982
c64.1006 -182.495 116.48 -332.462 116.48 -333.418c0 -1.19531 -18.6562 -1.91309 -41.3789 -1.91309h-41.1377l-53.8164 152.597l-53.8154 153.358l-68.167 -0.282227l-66.166 0.478516l-34.6807 -100.456l-74.6816 -205.456h-41.1387
c-22.7227 0 -41.3789 0.478516 -41.3789 0.957031c0 0.716797 82.249 231.766 136.064 385.08c54.0547 153.554 98.0645 279.602 98.0645 280.081z" />
    <glyph glyph-name="b" unicode="b" horiz-adv-x="390" 
d="M156.04 364.583c-7.65332 2.15234 -21.2871 4.54395 -30.1367 5.50098l-15.7852 1.91406v-145.661v-145.9l17.6992 1.67383c71.2764 6.45801 137.29 52.8594 154.511 108.588c9.08984 29.4209 5.02344 66.9707 -10.0449 93.2803
c-19.8525 34.6816 -68.4062 68.4062 -116.243 80.6045zM150.3 584.629c-8.37012 1.91504 -20.8086 3.58887 -27.5049 3.58887h-12.6768v-68.4053v-68.6465l17.459 1.43555c27.0293 2.3916 53.8174 12.1992 75.3428 27.9844c11.4805 8.13184 22.0049 27.2656 22.0049 39.4648
c-0.238281 25.5928 -34.2031 55.0117 -74.625 64.5781zM31.1885 333.489v334.136l60.5117 -0.956055c53.0986 -0.958008 62.4268 -1.6748 79.4082 -6.45801c54.7725 -15.3086 101.653 -50.9453 122.223 -92.3232c7.65332 -15.7861 8.84863 -20.3311 9.80566 -39.9434
c1.91406 -40.9004 -10.5244 -71.0381 -41.3789 -99.5l-16.9814 -15.5469l21.7666 -14.3506c24.875 -16.2646 55.7285 -46.4014 69.6006 -67.4492c11.4805 -17.46 23.6787 -49.2715 27.7451 -71.5156c1.6748 -9.80566 2.3916 -27.7441 1.6748 -44.248
c-0.957031 -22.7217 -2.63184 -31.8115 -8.85059 -49.9883c-11.958 -35.6377 -26.0703 -57.1641 -56.6855 -86.8232c-38.7471 -37.0723 -80.126 -58.3594 -140.399 -71.9932c-17.2207 -3.82715 -33.2451 -5.02246 -75.1016 -5.97852l-53.3379 -1.19727v334.136z" />
    <glyph glyph-name="c" unicode="c" horiz-adv-x="453" 
d="M245.881 673.646c21.4717 4.39355 81.0117 4.39355 111.514 0c29.0381 -4.14746 40.0176 -6.58691 72.2266 -16.3477l23.6689 -7.07617v-15.1289c0 -8.29688 -0.730469 -27.3301 -1.46289 -42.2129l-1.70898 -27.0859l-17.5693 6.83105
c-60.5137 23.4258 -126.154 32.2109 -170.809 22.9375c-70.0312 -14.6416 -109.073 -70.2754 -118.589 -168.368c-7.07715 -73.2041 4.3916 -149.823 30.501 -205.215c47.0947 -99.5566 127.13 -148.848 234.009 -143.967l30.9893 1.21875v-39.7725v-40.0195
l-26.1104 -1.70703c-73.6914 -5.12402 -139.087 11.2236 -196.429 49.0469c-22.6934 15.127 -61.9795 57.3418 -83.6973 89.7959c-31.9658 48.0713 -47.3379 86.1357 -59.5381 146.896c-11.4697 56.1221 -13.4219 84.1826 -10.249 132.253
c4.14746 61.4922 13.4209 100.047 33.4307 139.576c13.6641 26.8418 21.4717 38.5537 38.7969 56.3662c32.4531 33.6738 67.1025 52.9521 111.026 61.9785z" />
    <glyph glyph-name="d" unicode="d" horiz-adv-x="408" 
d="M44.9277 520.516v147.335l73.667 -0.956055c83.2354 -1.19727 94.4775 -3.11035 131.071 -21.0488c66.0146 -32.5273 102.37 -91.8457 116.96 -191.345c5.02344 -33.4854 7.17578 -127.482 4.06641 -162.882c-4.78418 -50.7061 -15.5479 -92.5625 -33.9639 -132.984
c-26.5488 -57.1641 -72.9492 -104.044 -132.746 -133.463c-38.5078 -19.1338 -55.0117 -22.7217 -111.697 -24.3965l-47.3574 -1.43555v147.336v147.575v0v0v0v78.9297v0v0v147.335zM194.416 583.42c-17.2217 5.2627 -65.5352 9.56738 -68.6455 6.21875
c-1.19629 -1.19531 -1.91309 -50.2285 -1.91309 -109.306v-107.152v0v0v0v-78.9297v0v0v-106.437v-106.436h6.93652c12.1982 0 44.248 11.4805 59.5557 21.2881c16.9814 11.2412 40.4209 34.4414 53.0986 52.8584c38.9873 57.4033 54.5332 136.333 47.835 245.161
c-4.7832 79.6465 -18.8955 123.416 -49.748 155.227c-13.1553 13.6338 -26.0723 21.0498 -47.1191 27.5068z" />
    <glyph glyph-name="e" unicode="e" horiz-adv-x="277" 
d="M133 449h90v79h-90v60h90v79h-171v-667h171v79h-90v370z" />
    <glyph glyph-name="f" unicode="f" horiz-adv-x="277" 
d="M133 449h90v79h-90v60h90v79h-171v-667h81v79v370z" />
    <glyph glyph-name="g" unicode="g" horiz-adv-x="413" 
d="M251.504 665.07c32.1289 6.76562 99.042 3.38281 107.74 -5.31348c1.44824 -1.69043 -11.3545 -77.3018 -13.5273 -79.4756c-0.485352 -0.723633 -4.5918 0.96582 -9.18066 3.14062c-11.5947 6.28027 -51.6953 7.48926 -72.2285 2.41602
c-57.7334 -14.4951 -93.4863 -56.5273 -121.99 -143.009c-25.124 -76.5752 -30.6797 -150.012 -16.6689 -220.066c11.5957 -57.7334 37.9268 -110.638 64.2568 -130.204c21.0156 -15.46 43.4814 -20.0498 79.2344 -16.4258l14.7344 1.69043v167.405v167.648h-21.7412
h-21.7393v39.8564v39.8584h61.5986h61.5996v-237.701v-237.7l-14.9766 -5.07324c-24.8818 -7.97168 -45.8984 -12.0791 -76.0947 -14.4932c-44.6904 -3.625 -77.0596 1.68945 -107.98 17.1504c-56.7676 28.5039 -95.9014 92.7617 -116.677 190.112
c-6.03809 28.2646 -6.52148 34.5449 -6.52148 92.0381c-0.241211 53.627 0.483398 65.4639 5.31543 92.2773c10.3867 57.4922 30.1934 115.71 54.1113 157.5c36.958 65.2236 87.2031 104.6 150.735 118.368z" />
    <glyph glyph-name="h" unicode="h" horiz-adv-x="456" 
d="M321.672 347.986v25.1133h-95.6719h-95.6729v-25.1133v-25.1143h95.6729h95.6719v25.1143zM321.672 444.854v23.918h-95.6719h-95.6729v-23.918v-23.9189h95.6729h95.6719v23.9189zM51.3975 333.635v333.657h39.4658h39.4639v-74.1455v-74.1465h95.6729h95.6719v74.1465
v74.1455h40.6611h40.6611v-333.657v-333.656h-40.6611h-40.6611v121.981v121.982h-95.6719h-95.6729v-121.982v-121.981h-39.4639h-39.4658v333.656z" />
    <glyph glyph-name="i" unicode="i" 
d="M14.2666 628.465v39.4648h77.7334h77.7334v-39.4648v-39.4648h-19.1338h-19.1348v-254.728v-254.727h19.1348h19.1338v-39.4658v-39.4639h-77.7334h-77.7334v39.4639v39.4658h19.1338h19.1348v254.727v254.728h-19.1348h-19.1338v39.4648z" />
    <glyph glyph-name="j" unicode="j" horiz-adv-x="334" 
d="M139.79 626.754v39.8594h67.6406h67.6416v-267.42c0 -287.99 0 -287.471 -12.5625 -322.258c-15.7031 -42.7588 -44.6914 -70.7812 -83.1006 -79.7188c-17.1523 -3.86621 -52.9062 -3.38281 -70.0576 1.20801c-16.9102 4.34863 -34.5439 11.8369 -47.3467 20.0498
l-9.18066 5.55566v47.1084v47.3467l12.8027 -9.4209c44.4512 -32.3711 78.5117 -43.2412 100.736 -31.8867c11.5967 5.79688 18.6016 15.46 25.124 34.5449c5.07324 14.7344 5.07324 18.1162 5.79785 245.195l0.724609 229.978h-29.2305h-28.9893v39.8584z" />
    <glyph glyph-name="k" unicode="k" horiz-adv-x="475" 
d="M263 468l174 199h-100l-204 -216v216h-81v-667h81v323l67 72l160 -395h85z" />
    <glyph glyph-name="l" unicode="l" horiz-adv-x="379" 
d="M133 73v594h-81v-667h302v73h-221z" />
    <glyph glyph-name="m" unicode="m" horiz-adv-x="589" 
d="M295 248l97 277l106 -525h83l-141 667h-71l-71 -219l-72 219h-77l-141 -667h81l106 522z" />
    <glyph glyph-name="n" unicode="n" horiz-adv-x="474" 
d="M130 514l214 -311v-203h78v667h-78v-323l-224 323h-68v-667h78v514z" />
    <glyph glyph-name="o" unicode="o" horiz-adv-x="388" 
d="M158 292v-74h81v74h-81zM158 159v-74h81v74h-81zM197 584.758c21.1426 0 39.1523 -7.43945 54.0312 -22.3145c14.877 -14.877 22.3135 -32.8887 22.3135 -54.0312s-7.33887 -39.1523 -22.0234 -54.0312c-14.6797 -14.875 -32.7871 -22.3145 -54.3213 -22.3145
s-39.6416 7.33984 -54.3213 22.0244c-14.6846 14.6797 -22.0234 32.7871 -22.0234 54.3213c0 21.5332 7.43652 39.6426 22.3135 54.3232c14.8789 14.6836 32.8887 22.0225 54.0312 22.0225zM197 664.357c-20.9922 0 -40.9863 -4 -59.9795 -11.9971
c-18.9912 -7.99609 -35.7373 -19.1201 -50.2305 -33.3623c-14.4961 -14.2461 -25.7422 -30.8652 -33.7383 -49.8574c-7.99805 -18.9932 -11.9951 -39.2373 -11.9951 -60.7285s3.99707 -41.7344 11.9951 -60.7275c7.99609 -18.9932 19.1182 -35.6133 33.3623 -49.8564
c14.2451 -14.2451 30.8662 -25.3672 49.8574 -33.3633c18.9932 -7.99902 39.2363 -11.9961 60.7285 -11.9961s41.7354 3.99707 60.7285 11.9961c18.9912 7.99609 35.6123 19.2412 49.8574 33.7383c14.2441 14.4922 25.3652 31.2383 33.3623 50.2305
c7.99805 18.9941 11.9951 38.9854 11.9951 59.9785c0 21.4912 -3.99707 41.7354 -11.9951 60.7285c-7.99707 18.9922 -19.2422 35.6113 -33.7383 49.8574c-14.4932 14.2422 -31.2393 25.3662 -50.2305 33.3623c-18.9932 7.99707 -38.9873 11.9971 -59.9795 11.9971z" />
    <glyph glyph-name="p" unicode="p" horiz-adv-x="435" 
d="M133 468.001v125h77c42.667 0 73.334 -4.5 92.001 -13.5s28 -24.833 28 -47.5c0 -24 -9.33301 -40.667 -28 -50s-49.334 -14 -92.001 -14h-77zM52 667v-666.999h81v394h48c82 0 141.333 10 178 30s55 56 55 108c0 51.333 -17 86.666 -51 105.999s-89 29 -165 29h-146z
" />
    <glyph glyph-name="q" unicode="q" horiz-adv-x="559" 
d="M314.555 590.234c-76.6631 20.8643 -140.761 -27.3975 -176.704 -133.219c-30.4141 -89.4814 -25.1348 -208.123 12.5684 -283.529c25.8896 -51.7812 65.8555 -90.9912 103.56 -101.045c19.6055 -5.2793 47.5059 -4.27441 63.8438 2.51172l11.0596 4.52441
l-7.28809 6.0332c-11.0615 9.30078 -23.6279 15.082 -36.6992 17.0918c-6.53516 1.00488 -11.8145 2.2627 -11.8145 3.0166c0 2.76465 43.7373 47.5068 50.5234 51.5273c14.0771 8.5459 36.9502 3.77051 54.042 -11.3115l11.8145 -10.3047l4.77539 6.28418
c16.8398 20.6113 39.2109 79.9316 46.249 122.411c5.53027 32.1729 5.53027 99.0342 0 131.209c-10.5566 64.8486 -40.9707 132.465 -73.6475 163.884c-12.8184 12.3174 -36.9492 26.6436 -52.2822 30.916zM236.383 677.205
c26.1416 7.03809 75.9102 5.27734 100.793 -3.51855c24.8857 -8.5459 35.4424 -14.3281 59.0693 -32.1738c58.0635 -43.7354 100.291 -118.138 119.897 -210.639c6.28418 -29.4072 6.78809 -36.1943 6.78809 -95.7666
c0.250977 -67.3643 -1.00586 -79.6797 -12.8193 -126.934c-9.55176 -38.9609 -27.3984 -80.1846 -48.7627 -113.614l-10.0547 -15.333l4.77539 -9.80371c9.2998 -17.8457 30.6641 -32.4238 52.5322 -35.6924l10.8096 -1.50879l-22.875 -25.6377
c-21.1123 -24.1309 -23.123 -25.8887 -32.1729 -25.8887c-21.8672 0 -51.5273 14.0762 -63.5938 30.4131c-3.01465 4.02246 -6.28418 7.29004 -7.28809 7.29004c-1.00586 0 -9.0498 -4.52441 -17.8467 -10.0547c-57.3096 -35.6924 -126.433 -36.1963 -186.507 -1.00488
c-21.1143 12.3164 -55.8018 43.9873 -73.1465 66.3574c-40.9697 53.79 -67.3623 126.937 -76.6631 214.157c-10.5566 100.543 17.8457 220.439 69.376 292.829c34.9365 49.0166 81.1865 83.9551 127.688 96.5225z" />
    <glyph glyph-name="r" unicode="r" horiz-adv-x="433" 
d="M299.36 584.455c-8.84961 4.06641 -16.9814 4.54492 -96.1504 4.54492h-86.8232v-53.8154v-53.8154h82.2783c66.4912 0 84.1914 0.716797 92.085 3.58691c24.1572 8.37207 36.834 25.5928 36.5938 49.75c0 24.3965 -9.32715 41.1396 -27.9834 49.749zM39.8496 334.272
v333.657h127.005c120.546 0 127.962 -0.239258 146.379 -5.02148c59.0771 -14.8301 92.8018 -60.7529 92.8018 -126.527c0 -38.9873 -11.96 -68.8838 -38.9873 -97.1074c-23.2002 -24.3965 -53.0977 -36.834 -88.9746 -36.834h-16.5039l1.43555 -37.5518
c2.15137 -46.8789 5.97949 -73.667 17.2197 -117.916c18.418 -73.667 46.4033 -150.684 75.3428 -208.566l18.6562 -37.7891h-37.79h-37.791l-13.3936 23.6777c-21.2871 37.5527 -36.5947 72.2334 -51.9023 117.439c-26.7881 78.9287 -36.835 126.765 -44.4873 212.392
l-4.06641 48.3145h-34.2031h-34.2031v-200.912v-200.911h-38.2686h-38.2686v333.656z" />
    <glyph glyph-name="s" unicode="s" horiz-adv-x="426" 
d="M157.292 672.734c24.8906 7.96387 86.6143 4.47949 100.553 -5.97266c3.9834 -2.9873 2.48926 -10.4531 -13.6885 -72.1807l-2.48926 -9.45801l-7.21875 5.22656c-22.6484 16.1787 -57.9902 16.6777 -65.209 1.24512c-6.4707 -14.4365 8.95996 -32.6045 62.4717 -73.1738
c104.037 -78.8984 149.835 -148.339 159.79 -242.919c5.72363 -53.2637 -5.72363 -116.98 -29.3691 -164.271c-26.8818 -53.2637 -80.1445 -101.051 -130.919 -116.979c-47.0391 -14.9326 -108.019 -12.9414 -159.29 5.47559
c-17.9209 6.22168 -43.5566 20.1602 -48.5352 26.1338c-1.74316 2.23926 2.48828 12.4453 15.6797 36.3389c9.95605 18.1699 18.668 33.6006 19.4141 34.3467c0.74707 0.746094 5.22754 -1.24414 9.70801 -4.72754c25.8848 -19.9121 87.3604 -31.3613 122.703 -23.1475
c47.7871 11.2002 78.6504 37.084 100.802 84.623c12.9424 27.627 17.4229 45.5479 19.165 76.1611c2.23926 45.0498 -8.71289 91.0938 -29.8662 125.193c-21.1562 33.5996 -39.3262 52.0176 -96.0732 97.3174c-29.6182 23.6455 -60.4824 50.2744 -68.1973 58.9873
c-24.8887 27.3779 -35.3418 55.5039 -31.6094 85.3691c2.73828 21.6543 9.45801 35.5918 24.1436 49.2812c13.9375 12.6953 27.627 20.6602 48.0352 27.1299z" />
    <glyph glyph-name="t" unicode="t" horiz-adv-x="450" 
d="M267 594h160v73h-401v-73h160v-594h81v594z" />
    <glyph glyph-name="u" unicode="u" horiz-adv-x="471" 
d="M52.2715 398.294l-0.981445 268.968h40.4561h40.7002l0.491211 -264.064l0.734375 -264.308l9.07227 -17.1621c19.124 -36.5322 50.7529 -55.6562 92.6797 -55.6562c17.1621 0 24.0273 0.980469 38.0039 6.61816c28.1963 11.2783 47.5654 28.4414 58.3535 51.9785
l5.39355 11.7695l0.734375 265.534l0.492188 265.29h40.7002h40.4551l-0.736328 -268.968c-0.979492 -297.163 0.246094 -277.303 -16.6719 -312.854c-20.1045 -42.6621 -70.3672 -82.873 -120.14 -96.3564c-24.7646 -6.62109 -71.5938 -6.13184 -96.8477 0.979492
c-49.0371 14.2207 -93.1709 50.5088 -115.481 94.8867c-17.8994 36.042 -16.6729 14.2207 -17.4082 313.345z" />
    <glyph glyph-name="v" unicode="v" horiz-adv-x="445" 
d="M226 149l-133 518h-85l176 -667h77l176 667h-79z" />
    <glyph glyph-name="w" unicode="w" horiz-adv-x="636" 
d="M360 373l77 294h-79l-37 -167l-37 167h-85l81 -306l-54 -211l-133 517h-85l176 -667h77l57 244l57 -244h77l176 667h-79l-132 -517z" />
    <glyph glyph-name="x" unicode="x" horiz-adv-x="480" 
d="M282 401l128 266h-90l-80 -176l-80 176h-94l130 -270l-188 -397h87l143 308l143 -308h91z" />
    <glyph glyph-name="y" unicode="y" horiz-adv-x="436" 
d="M178 273v-273h81v274l169 393h-85l-124 -298l-123 298h-88z" />
    <glyph glyph-name="z" unicode="z" horiz-adv-x="432" 
d="M0 0h380v73h-264l267 594h-333v-73h217z" />
    <glyph glyph-name="braceleft" unicode="{" horiz-adv-x="284" 
d="M181 667l86 0.000976562v61h-155v-183c0 -60 -6.83301 -104 -20.5 -132s-39.5 -45.667 -77.5 -53v-48c37.333 -6 63 -23 77 -51s21 -72.333 21 -133v-189h155v61h-86v117c0 66.667 -4.83301 116.667 -14.5 150s-29.5 56.666 -59.5 69.999
c29.333 11.333 49 33.833 59 67.5s15 84.167 15 151.5v111z" />
    <glyph glyph-name="bar" unicode="|" horiz-adv-x="500" 
d="M281 699h-62v-361v-9v-500h62v500v9v361z" />
    <glyph glyph-name="braceright" unicode="}" horiz-adv-x="284" 
d="M103 667v-111.001c0 -67.333 5 -117.833 15 -151.5s29.667 -56.167 59 -67.5c-30 -13.333 -49.833 -36.666 -59.5 -69.999s-14.5 -83.333 -14.5 -150v-117h-86v-61h155v189c0 60 7 104.167 21 132.5s39.667 45.5 77 51.5v48c-38 7.33301 -63.833 25 -77.5 53
s-20.5 72 -20.5 132v183h-155v-61h86z" />
    <glyph glyph-name="uni00A0" unicode="&#xa0;" horiz-adv-x="456" 
 />
    <glyph glyph-name="exclamdown" unicode="&#xa1;" 
d="M52 594v74h81v-74h-81zM133 537v-537h-81v537h81z" />
    <glyph glyph-name="cent" unicode="&#xa2;" horiz-adv-x="433" 
d="M208.999 187.002c-32.667 8.66699 -58 26.333 -76 53s-27 59.667 -27 99c0 36.667 8.33301 66.667 25 90s42.667 42 78 56v-298zM258 489c33.333 -0.666992 63.999 -9.33203 91.999 -25.999l29 64c-35.333 20.667 -75.666 32 -120.999 34v106h-49v-108
c-58 -8.66699 -103.167 -32.667 -135.5 -72s-48.5 -89.333 -48.5 -150c0 -62 15.833 -112.5 47.5 -151.5s77.167 -63.5 136.5 -73.5v-112h49v110c60.667 3.33301 112.334 24.666 155.001 63.999l-42 53c-32.667 -29.333 -70.334 -44 -113.001 -44v306z" />
    <glyph glyph-name="sterling" unicode="&#xa3;" horiz-adv-x="425" 
d="M91 470c10.667 -29.333 29.999 -69.001 57.999 -119.001c20.667 -36 35.834 -65.833 45.501 -89.5s14.5 -48.834 14.5 -75.501c0 -35.333 -10 -63 -30 -83s-48.333 -30 -85 -30h-47v-73h330v73h-150c42 18.667 63 59.334 63 122.001c0 27.333 -5.16699 53.833 -15.5 79.5
s-27.166 59.834 -50.499 102.501c-22 40 -38 71 -48 93h199v73h-213c3.33301 22 11.166 37.667 23.499 47s30.5 14 54.5 14c31.333 0 58 -6.66699 80 -20l7 78c-26.667 11.333 -59 17 -97 17c-42 0 -75.333 -11 -100 -33s-42 -56.333 -52 -103h-53v-73h66z" />
    <glyph glyph-name="yen" unicode="&#xa5;" horiz-adv-x="496" 
d="M307 371l181 296h-85l-153 -260l-152 260h-90l181 -296h-110v-68h129v-303h81v303h129v68h-111z" />
    <glyph glyph-name="brokenbar" unicode="&#xa6;" horiz-adv-x="500" 
d="M281 199h-62v-370h62v370zM281 699h-62v-370h62v370z" />
    <glyph glyph-name="section" unicode="&#xa7;" horiz-adv-x="463" 
d="M212 384.001l30.999 -31l26 -26c30.667 -30 52.5 -53.5 65.5 -70.5s19.5 -35.167 19.5 -54.5c0 -28 -17.333 -42 -52 -42c-20.667 0 -35.167 1.83301 -43.5 5.5s-18.166 11.167 -29.499 22.5l-8 8l-9 9c-38 37.333 -64.667 65.833 -80 85.5s-23 39.5 -23 59.5
c0 28 17.333 42 52 42c25.333 0 42.333 -2.66699 51 -8zM7 -183c37.333 -21.333 81 -31.999 131 -31.999c61.333 0 110.5 18.667 147.5 56s55.5 86 55.5 146c0 36 -7.66699 69 -23 99c38 1.33301 67.5 12.333 88.5 33s31.5 49.334 31.5 86.001c0 34 -10.5 65.167 -31.5 93.5
s-56.833 66.833 -107.5 115.5l-27 27c-27.333 26.667 -47.333 49.167 -60 67.5s-19 36.5 -19 54.5c0 28 17.333 42 52 42c24 0 48 -5.33301 72 -16l8 76c-26 9.33301 -56.667 14 -92 14c-38.667 0 -69 -10.5 -91 -31.5s-33 -50.167 -33 -87.5
c0 -31.333 10 -62.666 30 -93.999c-37.333 -2.66699 -65.666 -14.334 -84.999 -35.001s-29 -48.667 -29 -84c0 -34 9.5 -64.333 28.5 -91s50.833 -62 95.5 -106l9 -9c35.333 -34.667 60.666 -62.834 75.999 -84.501s23 -44.834 23 -69.501c0 -40 -10.5 -71.167 -31.5 -93.5
s-50.167 -33.5 -87.5 -33.5c-29.333 0 -59.333 8.66699 -90 26z" />
    <glyph glyph-name="dieresis" unicode="&#xa8;" horiz-adv-x="307" 
d="M207.701 732.037v37.0723h35.877h35.8779v-37.0723v-37.0742h-35.8779h-35.877v37.0742zM28.3145 732.037v37.0723h35.877h35.8779v-37.0723v-37.0742h-35.8779h-35.877v37.0742z" />
    <glyph glyph-name="guillemotleft" unicode="&#xab;" horiz-adv-x="390" 
d="M179 311l100 -263h88l-103 263l103 263h-86zM21 311l100 -263h88l-103 263l103 263h-86z" />
    <glyph glyph-name="uni00AD" unicode="&#xad;" horiz-adv-x="275" 
d="M236 302v73h-205v-73h205z" />
    <glyph glyph-name="macron" unicode="&#xaf;" horiz-adv-x="500" 
d="M395 805h-286v-78h286v78z" />
    <glyph glyph-name="plusminus" unicode="&#xb1;" horiz-adv-x="275" 
d="M336 342v73h-116v116h-73v-116h-116v-73h116v-116h73v116h116zM336 122v73h-305v-73h305z" />
    <glyph glyph-name="uni00B2" unicode="&#xb2;" horiz-adv-x="289" 
d="M136 500v46h-4c-38 0 -57 14.333 -57 43c0 13.333 5.33301 24.166 16 32.499s24.334 12.5 41.001 12.5c41.333 0 62 -20 62 -60c0 -27.333 -18 -68.333 -54 -123l-119 -179h248v45h-159l95 146c14.667 22.667 25.5 43.167 32.5 61.5s10.5 37.833 10.5 58.5
c0 30 -10.333 53.5 -31 70.5s-49.334 25.5 -86.001 25.5c-32.667 0 -59.167 -8.66699 -79.5 -26s-30.5 -39.666 -30.5 -66.999c0 -26.667 9.16699 -47.667 27.5 -63s43.833 -23 76.5 -23h11z" />
    <glyph glyph-name="uni00B3" unicode="&#xb3;" horiz-adv-x="286" 
d="M119 581l72 91h-178v-44h87l-76 -95c26.667 3.33301 48 5 64 5c79.333 0 119 -28 119 -84c0 -81.333 -64.667 -129 -194 -143v-45c81.333 6.66699 143.333 26.667 186 60s64 77.666 64 132.999c0 74.667 -48 115.334 -144 122.001z" />
    <glyph glyph-name="acute" unicode="&#xb4;" horiz-adv-x="447" 
d="M200.722 797.63l99.2607 34.4424l0.717773 -34.9209c0.238281 -19.1348 -0.239258 -35.3984 -1.19629 -36.3564c-1.19531 -0.956055 -55.251 -20.0898 -120.308 -42.5732c-65.0566 -22.2441 -120.308 -41.3789 -122.46 -42.335
c-4.06738 -1.67383 -4.30566 0.956055 -4.30566 34.2041v35.876l24.6348 8.60938z" />
    <glyph glyph-name="paragraph" unicode="&#xb6;" horiz-adv-x="491" 
d="M281 594.999h79v-199h-79c-59.333 0 -102.833 7.66699 -130.5 23s-41.5 41.333 -41.5 78c0 36 14 61.333 42 76s71.333 22 130 22zM217 328v-535.001h79v532h64v-532h79v874h-143c-95.333 0 -164.333 -12.167 -207 -36.5s-64 -68.833 -64 -133.5
c0 -105.333 64 -161.666 192 -168.999z" />
    <glyph glyph-name="periodcentered" unicode="&#xb7;" 
d="M53.2246 337.5l57.2754 -57.2754l57.2754 57.2754l-57.2754 57.2754z" />
    <glyph glyph-name="cedilla" unicode="&#xb8;" horiz-adv-x="500" 
d="M170.39 -129.88l-31.5898 -35.6396c25.9199 -21.0605 55.3506 -31.5908 88.29 -31.5908c32.3994 0 58.1855 7.69531 77.3555 23.085c19.1689 15.3896 28.7549 35.5059 28.7549 60.3457c0 22.1396 -7.29004 40.5 -21.8701 55.0801s-35.0996 23.7598 -61.5605 27.5391
v46.1709h-52.6494v-82.6211c29.1602 -2.69922 50.085 -7.28906 62.7744 -13.7695c12.6904 -6.48047 19.0352 -17.0098 19.0352 -31.5898c0 -11.3398 -4.72461 -20.25 -14.1748 -26.7295c-9.4502 -6.48047 -22.5449 -9.7207 -39.2852 -9.7207
c-17.8193 0 -36.1797 6.48047 -55.0801 19.4404z" />
    <glyph glyph-name="uni00B9" unicode="&#xb9;" horiz-adv-x="171" 
d="M63 620v-348h53v400h-48l-85 -45l20 -36z" />
    <glyph glyph-name="guillemotright" unicode="&#xbb;" horiz-adv-x="390" 
d="M209 311l-102 263h-86l103 -263l-103 -263h88zM367 311l-102 263h-86l103 -263l-103 -263h88z" />
    <glyph glyph-name="onequarter" unicode="&#xbc;" horiz-adv-x="572" 
d="M353 110l57 264h-51l-68 -305h144v-69h51v69h66v41h-66v154h-51v-154h-82zM47 0h59l282 667h-59zM60 624v-325h51v374h-46l-81 -42l19 -35z" />
    <glyph glyph-name="onehalf" unicode="&#xbd;" horiz-adv-x="548" 
d="M402 213l-0.00195312 43h-4c-36 0 -54 13.333 -54 40c0 12.667 4.83301 22.834 14.5 30.501s22.834 11.5 39.501 11.5c39.333 0 59 -18.667 59 -56c0 -26 -17 -64.333 -51 -115l-114 -167h236v42h-151l90 136c14 21.333 24.5 40.666 31.5 57.999s10.5 35.666 10.5 54.999
c0 27.333 -10 49 -30 65s-47.333 24 -82 24c-31.333 0 -56.666 -8.16699 -75.999 -24.5s-29 -37.166 -29 -62.499c0 -24.667 8.83301 -44.167 26.5 -58.5s42.167 -21.5 73.5 -21.5h10zM47 0h59l282 667h-59zM60 624v-325h51v374h-46l-81 -42l19 -35z" />
    <glyph glyph-name="threequarters" unicode="&#xbe;" horiz-adv-x="682" 
d="M463 110l57 264h-51l-68 -305h144v-69h51v69h66v41h-66v154h-51v-154h-82zM157 0h59l282 667h-59zM113 587l70 86h-170v-41h83l-73 -89c4 0.666992 7 1 9 1c24 2 41.333 3 52 3c76 0 114 -26 114 -78c0 -76 -62 -120.667 -186 -134v-42c78 7.33301 137.333 26.5 178 57.5
s61 72.167 61 123.5c0 69.333 -46 107 -138 113z" />
    <glyph glyph-name="questiondown" unicode="&#xbf;" horiz-adv-x="374" 
d="M168 275c-100.667 -17.333 -151 -64.667 -151 -142c0 -43.333 16.333 -78.167 49 -104.5s76.667 -39.5 132 -39.5c56.667 0 107 18 151 54l-49 56c-31.333 -24.667 -64.667 -37 -100 -37c-32 0 -56.5 6.5 -73.5 19.5s-25.5 30.833 -25.5 53.5c0 26 12 45.667 36 59
s61.333 21.667 112 25v122h-81v-66zM249 423v74h-81v-74h81zM249 594v74h-81v-74h81z" />
    <glyph glyph-name="Agrave" unicode="&#xc0;" horiz-adv-x="537" 
d="M132.406 344.938l113.371 322.416l23.9189 0.282227l23.6787 -0.716797l116.72 -333.462c64.0996 -182.973 116.72 -332.699 116.72 -332.938c0 -0.478516 -18.6562 -0.717773 -41.3779 -0.717773h-41.6172l-61.708 173.406l-61.9482 173.405h-50.7061h-50.7061
l-3.82715 -10.0459l-62.1875 -172.927l-58.3604 -162.644l-42.0957 -0.717773l-42.0947 0.522461l4.30371 10.2402c2.63184 6.45898 55.4902 156.665 117.917 333.896zM269.969 421.053l26.0713 0.716797l-13.6348 38.2686
c-7.41309 21.2871 -14.1113 36.5947 -14.8271 34.6807c-4.78516 -12.4355 -24.875 -73.1885 -24.1582 -73.666c0.239258 -0.239258 12.1982 -0.239258 26.5488 0zM150.602 789.283v35.6377l58.1221 -20.0918c131.788 -45.4434 188.474 -65.2959 189.67 -66.252
c0.477539 -0.71875 0.717773 -16.9824 0.477539 -36.1172l-0.71582 -34.6816l-113.611 39.2256c-62.4258 21.5264 -118.155 40.9004 -123.656 43.0537l-10.2861 3.82617v35.3994z" />
    <glyph glyph-name="Aacute" unicode="&#xc1;" horiz-adv-x="537" 
d="M132.406 344.938l113.371 322.416l23.9189 0.282227l23.6787 -0.716797l116.72 -333.462c64.0996 -182.973 116.72 -332.699 116.72 -332.938c0 -0.478516 -18.6562 -0.717773 -41.3779 -0.717773h-41.6172l-61.708 173.406l-61.9482 173.405h-50.7061h-50.7061
l-3.82715 -10.0459l-62.1875 -172.927l-58.3604 -162.644l-42.0957 -0.717773l-42.0947 0.522461l4.30371 10.2402c2.63184 6.45898 55.4902 156.665 117.917 333.896zM269.969 421.053l26.0713 0.716797l-13.6348 38.2686
c-7.41309 21.2871 -14.1113 36.5947 -14.8271 34.6807c-4.78516 -12.4355 -24.875 -73.1885 -24.1582 -73.666c0.239258 -0.239258 12.1982 -0.239258 26.5488 0zM398.871 789.283v35.6377l-58.1221 -20.0918c-131.788 -45.4434 -188.474 -65.2959 -189.67 -66.252
c-0.477539 -0.71875 -0.717773 -16.9824 -0.477539 -36.1172l0.71582 -34.6816l113.611 39.2256c62.4258 21.5264 118.155 40.9004 123.656 43.0537l10.2861 3.82617v35.3994z" />
    <glyph glyph-name="Acircumflex" unicode="&#xc2;" horiz-adv-x="537" 
d="M132.406 344.938l113.371 322.416l23.9189 0.282227l23.6787 -0.716797l116.72 -333.462c64.0996 -182.973 116.72 -332.699 116.72 -332.938c0 -0.478516 -18.6562 -0.717773 -41.3779 -0.717773h-41.6172l-61.708 173.406l-61.9482 173.405h-50.7061h-50.7061
l-3.82715 -10.0459l-62.1875 -172.927l-58.3604 -162.644l-42.0957 -0.717773l-42.0947 0.522461l4.30371 10.2402c2.63184 6.45898 55.4902 156.665 117.917 333.896zM269.969 421.053l26.0713 0.716797l-13.6348 38.2686
c-7.41309 21.2871 -14.1113 36.5947 -14.8271 34.6807c-4.78516 -12.4355 -24.875 -73.1885 -24.1582 -73.666c0.239258 -0.239258 12.1982 -0.239258 26.5488 0zM207.358 768.475l60.9922 21.2861c0.716797 0 28.7012 -9.32715 62.1865 -21.0469l60.9902 -21.2871
l0.717773 -35.877l0.71875 -36.1162l-41.3789 14.3506l-61.708 21.5264l-20.3311 7.1748l-20.3311 -7.1748l-61.707 -21.5264l-41.3789 -14.3506l0.716797 36.1162l0.71875 36.1162z" />
    <glyph glyph-name="Atilde" unicode="&#xc3;" horiz-adv-x="537" 
d="M132.406 344.938l113.371 322.416l23.9189 0.282227l23.6787 -0.716797l116.72 -333.462c64.0996 -182.973 116.72 -332.699 116.72 -332.938c0 -0.478516 -18.6562 -0.717773 -41.3779 -0.717773h-41.6172l-61.708 173.406l-61.9482 173.405h-50.7061h-50.7061
l-3.82715 -10.0459l-62.1875 -172.927l-58.3604 -162.644l-42.0957 -0.717773l-42.0947 0.522461l4.30371 10.2402c2.63184 6.45898 55.4902 156.665 117.917 333.896zM269.969 421.053l26.0713 0.716797l-13.6348 38.2686
c-7.41309 21.2871 -14.1113 36.5947 -14.8271 34.6807c-4.78516 -12.4355 -24.875 -73.1885 -24.1582 -73.666c0.239258 -0.239258 12.1982 -0.239258 26.5488 0zM424 802h-60c-2.66699 -20 -14.667 -30 -36 -30c-9.33301 0 -25.333 4.66699 -48 14
c-16 7.33301 -30.667 13 -44 17s-28 6 -44 6c-53.333 0 -80.667 -31 -82 -93h60c3.33301 20 15 30 35 30c9.33301 0 25.333 -4.66699 48 -14c17.333 -7.33301 32.667 -13 46 -17s28 -6 44 -6c27.333 0 47.5 7.5 60.5 22.5s19.833 38.5 20.5 70.5z" />
    <glyph glyph-name="Adieresis" unicode="&#xc4;" horiz-adv-x="537" 
d="M132.406 344.938l113.371 322.416l23.9189 0.282227l23.6787 -0.716797l116.72 -333.462c64.0996 -182.973 116.72 -332.699 116.72 -332.938c0 -0.478516 -18.6562 -0.717773 -41.3779 -0.717773h-41.6172l-61.708 173.406l-61.9482 173.405h-50.7061h-50.7061
l-3.82715 -10.0459l-62.1875 -172.927l-58.3604 -162.644l-42.0957 -0.717773l-42.0947 0.522461l4.30371 10.2402c2.63184 6.45898 55.4902 156.665 117.917 333.896zM269.969 421.053l26.0713 0.716797l-13.6348 38.2686
c-7.41309 21.2871 -14.1113 36.5947 -14.8271 34.6807c-4.78516 -12.4355 -24.875 -73.1885 -24.1582 -73.666c0.239258 -0.239258 12.1982 -0.239258 26.5488 0zM320.701 732.037v37.0723h35.877h35.8779v-37.0723v-37.0742h-35.8779h-35.877v37.0742zM141.314 732.037
v37.0723h35.877h35.8779v-37.0723v-37.0742h-35.8779h-35.877v37.0742z" />
    <glyph glyph-name="Aring" unicode="&#xc5;" horiz-adv-x="537" 
d="M132.406 344.938l113.371 322.416l23.9189 0.282227l23.6787 -0.716797l116.72 -333.462c64.0996 -182.973 116.72 -332.699 116.72 -332.938c0 -0.478516 -18.6562 -0.717773 -41.3779 -0.717773h-41.6172l-61.708 173.406l-61.9482 173.405h-50.7061h-50.7061
l-3.82715 -10.0459l-62.1875 -172.927l-58.3604 -162.644l-42.0957 -0.717773l-42.0947 0.522461l4.30371 10.2402c2.63184 6.45898 55.4902 156.665 117.917 333.896zM269.969 421.053l26.0713 0.716797l-13.6348 38.2686
c-7.41309 21.2871 -14.1113 36.5947 -14.8271 34.6807c-4.78516 -12.4355 -24.875 -73.1885 -24.1582 -73.666c0.239258 -0.239258 12.1982 -0.239258 26.5488 0zM270 831c13.2002 0 24.5 -4.7002 33.9004 -14.0996c9.39941 -9.40039 14.0996 -20.7002 14.0996 -33.9004
s-4.59961 -24.4004 -13.7998 -33.5996c-9.2002 -9.2002 -20.6006 -13.8008 -34.2002 -13.8008s-24.9004 4.5 -33.9004 13.5s-13.5 20.3008 -13.5 33.9004s4.60059 25 13.8008 34.2002c9.19922 9.2002 20.3994 13.7998 33.5996 13.7998zM270 868.2
c-23.2002 0 -43.2002 -8.2998 -60 -24.9004c-16.7998 -16.5996 -25.2002 -36.7002 -25.2002 -60.2998s8.2998 -43.7002 24.9004 -60.2998c16.5996 -16.6006 36.7002 -24.9004 60.2998 -24.9004s43.7002 8.40039 60.2998 25.2002c16.6006 16.7998 24.9004 36.7998 24.9004 60
s-8.40039 43.2002 -25.2002 60s-36.7998 25.2002 -60 25.2002z" />
    <glyph glyph-name="AE" unicode="&#xc6;" horiz-adv-x="542" 
d="M269.438 154.271v8.37207h-58.5986h-58.5986l-2.39258 -6.21875c-1.43555 -3.34863 -2.39258 -7.17578 -2.39258 -8.37109c0 -1.19629 24.875 -2.15332 60.9922 -2.15332h60.9902v8.37109zM268.722 204.021c0.477539 0.478516 0.477539 66.0137 0.239258 145.661
l-0.717773 144.705l-50.4678 -144.943l-50.4668 -144.944l50.2285 -0.717773c27.5049 -0.238281 50.7061 -0.238281 51.1846 0.239258zM133.346 345.137l113.371 322.177h141.595h105.835v-39.4648v-39.4648h-52.4971h-88.4971v-37.0723v-25.0732h88.4971h52.4971v-38.2695
v-38.2686h-54.1719h-89.9316l1.43555 -91.4082c0.956055 -43.5312 1.67383 -124.373 1.67383 -179.385v-99.9775h144.704h20.7041v-39.4658v-39.4639h-62.5605h-186.562v39.4639v39.4658h-73.4277h-73.668l-13.3936 -38.9863l-13.3945 -38.748l-42.3359 -0.717773
l-42.0947 -0.477539l4.30469 11.2402c2.63184 6.45898 55.4902 156.425 117.917 333.896z" />
    <glyph glyph-name="Ccedilla" unicode="&#xc7;" horiz-adv-x="383" 
d="M228.071 673.329c9.0293 1.70703 30.501 3.41699 47.3379 3.41699c31.2344 0.244141 51.4863 -3.41602 73.6914 -12.9326l9.02832 -3.9043v-28.793c0 -15.6172 -0.732422 -35.8701 -1.46289 -44.6553l-1.70898 -16.1045l-13.6641 8.2959
c-49.292 29.7705 -120.299 23.915 -163.733 -13.4209c-13.9082 -11.7129 -32.4541 -38.7969 -41.2373 -59.7812c-36.6016 -88.0898 -28.5508 -212.048 21.7168 -332.102c37.5781 -90.041 114.686 -121.519 181.789 -74.4238c7.56445 5.36719 14.1533 9.5166 14.3965 9.02734
c0.244141 -0.487305 -0.731445 -20.9854 -1.95215 -45.3848l-2.68359 -44.8984l-7.07715 -5.6123c-12.4443 -10.0049 -31.7207 -14.6416 -60.0264 -14.6416c-7.18457 0.0537109 -14.0342 0.418945 -20.7158 1.13477v-22.6094
c26.4609 -3.7793 46.9805 -12.959 61.5605 -27.5391s21.8701 -32.9404 21.8701 -55.0801c0 -24.8398 -9.58594 -44.9561 -28.7549 -60.3457c-19.1699 -15.3896 -44.9561 -23.085 -77.3555 -23.085c-32.9395 0 -62.3701 10.5303 -88.29 31.5908l31.5898 35.6396
c18.9004 -12.96 37.2607 -19.4404 55.0801 -19.4404c16.7402 0 29.835 3.24023 39.2852 9.7207c9.4502 6.47949 14.1748 15.3896 14.1748 26.7295c0 14.5801 -6.34473 25.1094 -19.0352 31.5898c-12.6895 6.48047 -33.6143 11.0703 -62.7744 13.7695v72.8613
c-6.04688 2.47656 -12.3008 5.29688 -18.8701 8.4873c-40.5059 20.0107 -72.4727 53.1953 -95.6533 99.5576c-76.8643 153.729 -81.501 349.182 -10.9805 456.303c15.8604 23.9141 42.459 51.7314 60.5146 63.2002c25.377 15.8604 53.9277 27.3291 83.9404 33.4297z" />
    <glyph glyph-name="Egrave" unicode="&#xc8;" horiz-adv-x="307" 
d="M26.8936 333.643v333.657h86.1064h86.1045v-39.4648v-39.4639h-45.4443h-45.4443v-29.8975v-29.8975h71.7539h71.7549v-39.4658v-39.4639h-71.7549h-71.7539v-185.365v-185.365h83.7129h83.7139v-39.4648v-39.4648h-124.374h-124.375v333.656zM26.8936 789.283v35.6377
l58.1221 -20.0918c131.788 -45.4434 188.474 -65.2959 189.67 -66.252c0.477539 -0.71875 0.717773 -16.9824 0.477539 -36.1172l-0.71582 -34.6816l-113.611 39.2256c-62.4258 21.5264 -118.155 40.9004 -123.656 43.0537l-10.2861 3.82617v35.3994z" />
    <glyph glyph-name="Eacute" unicode="&#xc9;" horiz-adv-x="307" 
d="M27.4307 333.857v333.658h86.1055h86.1045v-39.4658v-39.4639h-45.4443h-45.4443v-29.8975v-29.8975h71.7539h71.7549v-39.4658v-39.4639h-71.7549h-71.7539v-185.366v-185.364h84.9092h84.9092v-39.4648v-39.4648h-125.57h-125.569v333.656zM175.722 797.63
l99.2607 34.4424l0.717773 -34.9209c0.238281 -19.1348 -0.239258 -35.3984 -1.19629 -36.3564c-1.19531 -0.956055 -55.251 -20.0898 -120.308 -42.5732c-65.0566 -22.2441 -120.308 -41.3789 -122.46 -42.335c-4.06738 -1.67383 -4.30566 0.956055 -4.30566 34.2041
v35.876l24.6348 8.60938z" />
    <glyph glyph-name="Ecircumflex" unicode="&#xca;" horiz-adv-x="307" 
d="M26.6777 334.361v333.657h86.1055h86.1055v-39.4648v-39.4639h-45.4443h-45.4443v-29.8984v-29.8975h71.7529h71.7549v-39.4648v-39.4639h-71.7549h-71.7529v-185.365v-185.366h83.7129h83.7129v-39.4639v-39.4639h-124.374h-124.374v333.655zM61.3584 768.475
l60.9922 21.2861c0.716797 0 28.7012 -9.32715 62.1865 -21.0469l60.9902 -21.2871l0.717773 -35.877l0.71875 -36.1162l-41.3789 14.3506l-61.708 21.5264l-20.3311 7.1748l-20.3311 -7.1748l-61.707 -21.5264l-41.3789 -14.3506l0.716797 36.1162l0.71875 36.1162z" />
    <glyph glyph-name="Edieresis" unicode="&#xcb;" horiz-adv-x="307" 
d="M25.9229 334.996v333.657h86.1055h86.1055v-39.4648v-39.4639h-45.4443h-45.4443v-29.8984v-29.8975h71.7549h71.7529v-39.4658v-39.4629h-71.7529h-71.7549v-185.365v-185.366h86.1045h86.1064v-39.4648v-39.4639h-126.767h-126.767v333.656zM207.701 732.037v37.0723
h35.877h35.8779v-37.0723v-37.0742h-35.8779h-35.877v37.0742zM28.3145 732.037v37.0723h35.877h35.8779v-37.0723v-37.0742h-35.8779h-35.877v37.0742z" />
    <glyph glyph-name="Igrave" unicode="&#xcc;" 
d="M133 0v667h-81v-667h81zM-26.1064 789.283v35.6377l58.1221 -20.0918c131.788 -45.4434 188.474 -65.2959 189.67 -66.252c0.477539 -0.71875 0.717773 -16.9824 0.477539 -36.1172l-0.71582 -34.6816l-113.611 39.2256
c-62.4258 21.5264 -118.155 40.9004 -123.656 43.0537l-10.2861 3.82617v35.3994z" />
    <glyph glyph-name="Iacute" unicode="&#xcd;" 
d="M133 0v667h-81v-667h81zM222.163 789.283v35.6377l-58.1221 -20.0918c-131.788 -45.4434 -188.474 -65.2959 -189.67 -66.252c-0.477539 -0.71875 -0.717773 -16.9824 -0.477539 -36.1172l0.71582 -34.6816l113.611 39.2256
c62.4258 21.5264 118.155 40.9004 123.656 43.0537l10.2861 3.82617v35.3994z" />
    <glyph glyph-name="Icircumflex" unicode="&#xce;" 
d="M28.3584 768.475l60.9922 21.2861c0.716797 0 28.7012 -9.32715 62.1865 -21.0469l60.9902 -21.2871l0.717773 -35.877l0.71875 -36.1162l-41.3789 14.3506l-61.708 21.5264l-20.3311 7.1748l-20.3311 -7.1748l-61.707 -21.5264l-41.3789 -14.3506l0.716797 36.1162
l0.71875 36.1162zM133 0v667h-81v-667h81z" />
    <glyph glyph-name="Idieresis" unicode="&#xcf;" 
d="M-34.6855 732.037v37.0723h35.877h35.8779v-37.0723v-37.0742h-35.8779h-35.877v37.0742zM144.701 732.037v37.0723h35.877h35.8779v-37.0723v-37.0742h-35.8779h-35.877v37.0742zM133 0v667h-81v-667h81z" />
    <glyph glyph-name="Eth" unicode="&#xd0;" horiz-adv-x="446" 
d="M95.9277 520.516v147.335l73.667 -0.956055c83.2354 -1.19727 94.4775 -3.11035 131.071 -21.0488c66.0146 -32.5273 102.37 -91.8457 116.96 -191.345c5.02344 -33.4854 7.17578 -127.482 4.06641 -162.882c-4.78418 -50.7061 -15.5479 -92.5625 -33.9639 -132.984
c-26.5488 -57.1641 -72.9492 -104.044 -132.746 -133.463c-38.5078 -19.1338 -55.0117 -22.7217 -111.697 -24.3965l-47.3574 -1.43555v147.336v147.575h-40.6602h-40.6611v39.4639v39.4658h40.6611h40.6602v147.335zM245.416 583.42
c-17.2217 5.2627 -65.5352 9.56738 -68.6455 6.21875c-1.19629 -1.19531 -1.91309 -50.2285 -1.91309 -109.306v-107.152h41.8564h41.8564v-39.4658v-39.4639h-41.8564h-41.8564v-106.437v-106.436h6.93652c12.1982 0 44.248 11.4805 59.5557 21.2881
c16.9814 11.2412 40.4209 34.4414 53.0986 52.8584c38.9873 57.4033 54.5332 136.333 47.835 245.161c-4.7832 79.6465 -18.8955 123.416 -49.748 155.227c-13.1553 13.6338 -26.0723 21.0498 -47.1191 27.5068z" />
    <glyph glyph-name="Ntilde" unicode="&#xd1;" horiz-adv-x="488" 
d="M404 801h-60c-2.66699 -20 -14.667 -30 -36 -30c-9.33301 0 -25.333 4.66699 -48 14c-16 7.33301 -30.667 13 -44 17s-28 6 -44 6c-53.333 0 -80.667 -31 -82 -93h60c3.33301 20 15 30 35 30c9.33301 0 25.333 -4.66699 48 -14c17.333 -7.33301 32.667 -13 46 -17
s28 -6 44 -6c27.333 0 47.5 7.5 60.5 22.5s19.833 38.5 20.5 70.5zM363 0h73v667h-75v-480l-232 480h-77v-667h75v484z" />
    <glyph glyph-name="Ograve" unicode="&#xd2;" horiz-adv-x="351" 
d="M175 483.758c21.1426 0 39.1523 -7.43945 54.0312 -22.3145c14.877 -14.877 22.3135 -32.8887 22.3135 -54.0312s-7.33887 -39.1523 -22.0234 -54.0312c-14.6797 -14.875 -32.7871 -22.3145 -54.3213 -22.3145s-39.6416 7.33984 -54.3213 22.0244
c-14.6846 14.6797 -22.0234 32.7871 -22.0234 54.3213c0 21.5332 7.43652 39.6426 22.3135 54.3232c14.8789 14.6836 32.8887 22.0225 54.0312 22.0225zM175 563.357c-20.9922 0 -40.9863 -4 -59.9795 -11.9971c-18.9912 -7.99609 -35.7373 -19.1201 -50.2305 -33.3623
c-14.4961 -14.2461 -25.7422 -30.8652 -33.7383 -49.8574c-7.99805 -18.9932 -11.9951 -39.2373 -11.9951 -60.7285s3.99707 -41.7344 11.9951 -60.7275c7.99609 -18.9932 19.1182 -35.6133 33.3623 -49.8564c14.2451 -14.2451 30.8662 -25.3672 49.8574 -33.3633
c18.9932 -7.99902 39.2363 -11.9961 60.7285 -11.9961s41.7354 3.99707 60.7285 11.9961c18.9912 7.99609 35.6123 19.2412 49.8574 33.7383c14.2441 14.4922 25.3652 31.2383 33.3623 50.2305c7.99805 18.9941 11.9951 38.9854 11.9951 59.9785
c0 21.4912 -3.99707 41.7354 -11.9951 60.7285c-7.99707 18.9922 -19.2422 35.6113 -33.7383 49.8574c-14.4932 14.2422 -31.2393 25.3662 -50.2305 33.3623c-18.9932 7.99707 -38.9873 11.9971 -59.9795 11.9971zM198.599 73.8086v-73.6152h79.6797v73.6152h-79.6797z
M70.6396 73.8086v-73.6152h79.6777v73.6152h-79.6777zM49.8936 789.283v35.6377l58.1221 -20.0918c131.788 -45.4434 188.474 -65.2959 189.67 -66.252c0.477539 -0.71875 0.717773 -16.9824 0.477539 -36.1172l-0.71582 -34.6816l-113.611 39.2256
c-62.4258 21.5264 -118.155 40.9004 -123.656 43.0537l-10.2861 3.82617v35.3994z" />
    <glyph glyph-name="Oacute" unicode="&#xd3;" horiz-adv-x="351" 
d="M175 483.758c21.1426 0 39.1523 -7.43945 54.0312 -22.3145c14.877 -14.877 22.3135 -32.8887 22.3135 -54.0312s-7.33887 -39.1523 -22.0234 -54.0312c-14.6797 -14.875 -32.7871 -22.3145 -54.3213 -22.3145s-39.6416 7.33984 -54.3213 22.0244
c-14.6846 14.6797 -22.0234 32.7871 -22.0234 54.3213c0 21.5332 7.43652 39.6426 22.3135 54.3232c14.8789 14.6836 32.8887 22.0225 54.0312 22.0225zM175 563.357c-20.9922 0 -40.9863 -4 -59.9795 -11.9971c-18.9912 -7.99609 -35.7373 -19.1201 -50.2305 -33.3623
c-14.4961 -14.2461 -25.7422 -30.8652 -33.7383 -49.8574c-7.99805 -18.9932 -11.9951 -39.2373 -11.9951 -60.7285s3.99707 -41.7344 11.9951 -60.7275c7.99609 -18.9932 19.1182 -35.6133 33.3623 -49.8564c14.2451 -14.2451 30.8662 -25.3672 49.8574 -33.3633
c18.9932 -7.99902 39.2363 -11.9961 60.7285 -11.9961s41.7354 3.99707 60.7285 11.9961c18.9912 7.99609 35.6123 19.2412 49.8574 33.7383c14.2441 14.4922 25.3652 31.2383 33.3623 50.2305c7.99805 18.9941 11.9951 38.9854 11.9951 59.9785
c0 21.4912 -3.99707 41.7354 -11.9951 60.7285c-7.99707 18.9922 -19.2422 35.6113 -33.7383 49.8574c-14.4932 14.2422 -31.2393 25.3662 -50.2305 33.3623c-18.9932 7.99707 -38.9873 11.9971 -59.9795 11.9971zM198.599 73.8086v-73.6152h79.6797v73.6152h-79.6797z
M70.6396 73.8086v-73.6152h79.6777v73.6152h-79.6777zM298.163 789.283v35.6377l-58.1221 -20.0918c-131.788 -45.4434 -188.474 -65.2959 -189.67 -66.252c-0.477539 -0.71875 -0.717773 -16.9824 -0.477539 -36.1172l0.71582 -34.6816l113.611 39.2256
c62.4258 21.5264 118.155 40.9004 123.656 43.0537l10.2861 3.82617v35.3994z" />
    <glyph glyph-name="Ocircumflex" unicode="&#xd4;" horiz-adv-x="351" 
d="M175 483.758c21.1426 0 39.1523 -7.43945 54.0312 -22.3145c14.877 -14.877 22.3135 -32.8887 22.3135 -54.0312s-7.33887 -39.1523 -22.0234 -54.0312c-14.6797 -14.875 -32.7871 -22.3145 -54.3213 -22.3145s-39.6416 7.33984 -54.3213 22.0244
c-14.6846 14.6797 -22.0234 32.7871 -22.0234 54.3213c0 21.5332 7.43652 39.6426 22.3135 54.3232c14.8789 14.6836 32.8887 22.0225 54.0312 22.0225zM175 563.357c-20.9922 0 -40.9863 -4 -59.9795 -11.9971c-18.9912 -7.99609 -35.7373 -19.1201 -50.2305 -33.3623
c-14.4961 -14.2461 -25.7422 -30.8652 -33.7383 -49.8574c-7.99805 -18.9932 -11.9951 -39.2373 -11.9951 -60.7285s3.99707 -41.7344 11.9951 -60.7275c7.99609 -18.9932 19.1182 -35.6133 33.3623 -49.8564c14.2451 -14.2451 30.8662 -25.3672 49.8574 -33.3633
c18.9932 -7.99902 39.2363 -11.9961 60.7285 -11.9961s41.7354 3.99707 60.7285 11.9961c18.9912 7.99609 35.6123 19.2412 49.8574 33.7383c14.2441 14.4922 25.3652 31.2383 33.3623 50.2305c7.99805 18.9941 11.9951 38.9854 11.9951 59.9785
c0 21.4912 -3.99707 41.7354 -11.9951 60.7285c-7.99707 18.9922 -19.2422 35.6113 -33.7383 49.8574c-14.4932 14.2422 -31.2393 25.3662 -50.2305 33.3623c-18.9932 7.99707 -38.9873 11.9971 -59.9795 11.9971zM198.599 73.8086v-73.6152h79.6797v73.6152h-79.6797z
M70.6396 73.8086v-73.6152h79.6777v73.6152h-79.6777zM111.358 768.475l60.9922 21.2861c0.716797 0 28.7012 -9.32715 62.1865 -21.0469l60.9902 -21.2871l0.717773 -35.877l0.71875 -36.1162l-41.3789 14.3506l-61.708 21.5264l-20.3311 7.1748l-20.3311 -7.1748
l-61.707 -21.5264l-41.3789 -14.3506l0.716797 36.1162l0.71875 36.1162z" />
    <glyph glyph-name="Otilde" unicode="&#xd5;" horiz-adv-x="351" 
d="M175 483.758c21.1426 0 39.1523 -7.43945 54.0312 -22.3145c14.877 -14.877 22.3135 -32.8887 22.3135 -54.0312s-7.33887 -39.1523 -22.0234 -54.0312c-14.6797 -14.875 -32.7871 -22.3145 -54.3213 -22.3145s-39.6416 7.33984 -54.3213 22.0244
c-14.6846 14.6797 -22.0234 32.7871 -22.0234 54.3213c0 21.5332 7.43652 39.6426 22.3135 54.3232c14.8789 14.6836 32.8887 22.0225 54.0312 22.0225zM175 563.357c-20.9922 0 -40.9863 -4 -59.9795 -11.9971c-18.9912 -7.99609 -35.7373 -19.1201 -50.2305 -33.3623
c-14.4961 -14.2461 -25.7422 -30.8652 -33.7383 -49.8574c-7.99805 -18.9932 -11.9951 -39.2373 -11.9951 -60.7285s3.99707 -41.7344 11.9951 -60.7275c7.99609 -18.9932 19.1182 -35.6133 33.3623 -49.8564c14.2451 -14.2451 30.8662 -25.3672 49.8574 -33.3633
c18.9932 -7.99902 39.2363 -11.9961 60.7285 -11.9961s41.7354 3.99707 60.7285 11.9961c18.9912 7.99609 35.6123 19.2412 49.8574 33.7383c14.2441 14.4922 25.3652 31.2383 33.3623 50.2305c7.99805 18.9941 11.9951 38.9854 11.9951 59.9785
c0 21.4912 -3.99707 41.7354 -11.9951 60.7285c-7.99707 18.9922 -19.2422 35.6113 -33.7383 49.8574c-14.4932 14.2422 -31.2393 25.3662 -50.2305 33.3623c-18.9932 7.99707 -38.9873 11.9971 -59.9795 11.9971zM198.599 73.8086v-73.6152h79.6797v73.6152h-79.6797z
M70.6396 73.8086v-73.6152h79.6777v73.6152h-79.6777zM343 801h-60c-2.66699 -20 -14.667 -30 -36 -30c-9.33301 0 -25.333 4.66699 -48 14c-16 7.33301 -30.667 13 -44 17s-28 6 -44 6c-53.333 0 -80.667 -31 -82 -93h60c3.33301 20 15 30 35 30
c9.33301 0 25.333 -4.66699 48 -14c17.333 -7.33301 32.667 -13 46 -17s28 -6 44 -6c27.333 0 47.5 7.5 60.5 22.5s19.833 38.5 20.5 70.5z" />
    <glyph glyph-name="Odieresis" unicode="&#xd6;" horiz-adv-x="351" 
d="M175 483.758c21.1426 0 39.1523 -7.43945 54.0312 -22.3145c14.877 -14.877 22.3135 -32.8887 22.3135 -54.0312s-7.33887 -39.1523 -22.0234 -54.0312c-14.6797 -14.875 -32.7871 -22.3145 -54.3213 -22.3145s-39.6416 7.33984 -54.3213 22.0244
c-14.6846 14.6797 -22.0234 32.7871 -22.0234 54.3213c0 21.5332 7.43652 39.6426 22.3135 54.3232c14.8789 14.6836 32.8887 22.0225 54.0312 22.0225zM175 563.357c-20.9922 0 -40.9863 -4 -59.9795 -11.9971c-18.9912 -7.99609 -35.7373 -19.1201 -50.2305 -33.3623
c-14.4961 -14.2461 -25.7422 -30.8652 -33.7383 -49.8574c-7.99805 -18.9932 -11.9951 -39.2373 -11.9951 -60.7285s3.99707 -41.7344 11.9951 -60.7275c7.99609 -18.9932 19.1182 -35.6133 33.3623 -49.8564c14.2451 -14.2451 30.8662 -25.3672 49.8574 -33.3633
c18.9932 -7.99902 39.2363 -11.9961 60.7285 -11.9961s41.7354 3.99707 60.7285 11.9961c18.9912 7.99609 35.6123 19.2412 49.8574 33.7383c14.2441 14.4922 25.3652 31.2383 33.3623 50.2305c7.99805 18.9941 11.9951 38.9854 11.9951 59.9785
c0 21.4912 -3.99707 41.7354 -11.9951 60.7285c-7.99707 18.9922 -19.2422 35.6113 -33.7383 49.8574c-14.4932 14.2422 -31.2393 25.3662 -50.2305 33.3623c-18.9932 7.99707 -38.9873 11.9971 -59.9795 11.9971zM198.599 73.8086v-73.6152h79.6797v73.6152h-79.6797z
M70.6396 73.8086v-73.6152h79.6777v73.6152h-79.6777zM47.3145 732.037v37.0723h35.877h35.8779v-37.0723v-37.0742h-35.8779h-35.877v37.0742zM226.701 732.037v37.0723h35.877h35.8779v-37.0723v-37.0742h-35.8779h-35.877v37.0742z" />
    <glyph glyph-name="multiply" unicode="&#xd7;" horiz-adv-x="833" 
d="M419 338l-233 233l-39 -40l232 -233l-232 -232l39 -40l233 232l232 -232l40 40l-232 232l232 233l-40 40z" />
    <glyph glyph-name="Oslash" unicode="&#xd8;" horiz-adv-x="351" 
d="M70.6396 73.8086v-73.6152h79.6777v73.6152h-79.6777zM198.599 73.8086v-73.6152h79.6797v73.6152h-79.6797zM175 563.357c-20.9922 0 -40.9883 -4.00098 -59.9814 -11.998c-18.9912 -7.99609 -35.7373 -19.1201 -50.2305 -33.3623
c-14.4961 -14.2461 -25.7422 -30.8652 -33.7383 -49.8574c-7.99805 -18.9932 -11.9951 -39.2373 -11.9951 -60.7285s3.99707 -41.7344 11.9951 -60.7275c7.99609 -18.9932 19.1182 -35.6133 33.3623 -49.8564c3.45117 -3.45117 7.04199 -6.71875 10.7725 -9.80371
l-46.1855 -78.0244h57l31.4678 53.1611c18.0635 -7.12988 37.2412 -10.6924 57.5322 -10.6924c21.4922 0 41.7354 3.99707 60.7285 11.9961c18.9912 7.99609 35.6123 19.2412 49.8574 33.7383c14.2441 14.4922 25.3652 31.2383 33.3623 50.2305
c7.99805 18.9941 11.9951 38.9854 11.9951 59.9785c0 21.4912 -3.99707 41.7354 -11.9951 60.7285c-7.99707 18.9922 -19.2422 35.6113 -33.7383 49.8574c-3.4209 3.3623 -6.96777 6.55078 -10.6396 9.56543l46.4307 78.4375h-57l-31.6943 -53.543
c-18.1934 7.26562 -37.2959 10.9004 -57.3057 10.9004zM116.769 357.276c-12.0791 13.8926 -18.1162 30.6035 -18.1162 50.1348c0 21.5332 7.43652 39.6426 22.3135 54.3232c14.8789 14.6836 32.8887 22.0225 54.0312 22.0225c5.46191 0 10.7148 -0.496094 15.7588 -1.48926
zM159.11 332.513l73.8398 124.741c12.2627 -14.0312 18.3926 -30.6465 18.3926 -49.8428c0 -21.1426 -7.33887 -39.1523 -22.0234 -54.0312c-14.6797 -14.875 -32.7871 -22.3145 -54.3213 -22.3145c-5.52148 0 -10.8174 0.482422 -15.8877 1.44727z" />
    <glyph glyph-name="Ugrave" unicode="&#xd9;" horiz-adv-x="471" 
d="M51.8936 789.283v35.6377l58.1221 -20.0918c131.788 -45.4434 188.474 -65.2959 189.67 -66.252c0.477539 -0.71875 0.717773 -16.9824 0.477539 -36.1172l-0.71582 -34.6816l-113.611 39.2256c-62.4258 21.5264 -118.155 40.9004 -123.656 43.0537l-10.2861 3.82617
v35.3994zM52.2715 398.294l-0.981445 268.968h40.4561h40.7002l0.491211 -264.064l0.734375 -264.308l9.07227 -17.1621c19.124 -36.5322 50.7529 -55.6562 92.6797 -55.6562c17.1621 0 24.0273 0.980469 38.0039 6.61816c28.1963 11.2783 47.5654 28.4414 58.3535 51.9785
l5.39355 11.7695l0.734375 265.534l0.492188 265.29h40.7002h40.4551l-0.736328 -268.968c-0.979492 -297.163 0.246094 -277.303 -16.6719 -312.854c-20.1045 -42.6621 -70.3672 -82.873 -120.14 -96.3564c-24.7646 -6.62109 -71.5938 -6.13184 -96.8477 0.979492
c-49.0371 14.2207 -93.1709 50.5088 -115.481 94.8867c-17.8994 36.042 -16.6729 14.2207 -17.4082 313.345z" />
    <glyph glyph-name="Uacute" unicode="&#xda;" horiz-adv-x="471" 
d="M318.722 797.63l99.2607 34.4424l0.717773 -34.9209c0.238281 -19.1348 -0.239258 -35.3984 -1.19629 -36.3564c-1.19531 -0.956055 -55.251 -20.0898 -120.308 -42.5732c-65.0566 -22.2441 -120.308 -41.3789 -122.46 -42.335
c-4.06738 -1.67383 -4.30566 0.956055 -4.30566 34.2041v35.876l24.6348 8.60938zM52.2715 398.294l-0.981445 268.968h40.4561h40.7002l0.491211 -264.064l0.734375 -264.308l9.07227 -17.1621c19.124 -36.5322 50.7529 -55.6562 92.6797 -55.6562
c17.1621 0 24.0273 0.980469 38.0039 6.61816c28.1963 11.2783 47.5654 28.4414 58.3535 51.9785l5.39355 11.7695l0.734375 265.534l0.492188 265.29h40.7002h40.4551l-0.736328 -268.968c-0.979492 -297.163 0.246094 -277.303 -16.6719 -312.854
c-20.1045 -42.6621 -70.3672 -82.873 -120.14 -96.3564c-24.7646 -6.62109 -71.5938 -6.13184 -96.8477 0.979492c-49.0371 14.2207 -93.1709 50.5088 -115.481 94.8867c-17.8994 36.042 -16.6729 14.2207 -17.4082 313.345z" />
    <glyph glyph-name="Ucircumflex" unicode="&#xdb;" horiz-adv-x="471" 
d="M173.358 768.475l60.9922 21.2861c0.716797 0 28.7012 -9.32715 62.1865 -21.0469l60.9902 -21.2871l0.717773 -35.877l0.71875 -36.1162l-41.3789 14.3506l-61.708 21.5264l-20.3311 7.1748l-20.3311 -7.1748l-61.707 -21.5264l-41.3789 -14.3506l0.716797 36.1162
l0.71875 36.1162zM52.2715 398.294l-0.981445 268.968h40.4561h40.7002l0.491211 -264.064l0.734375 -264.308l9.07227 -17.1621c19.124 -36.5322 50.7529 -55.6562 92.6797 -55.6562c17.1621 0 24.0273 0.980469 38.0039 6.61816
c28.1963 11.2783 47.5654 28.4414 58.3535 51.9785l5.39355 11.7695l0.734375 265.534l0.492188 265.29h40.7002h40.4551l-0.736328 -268.968c-0.979492 -297.163 0.246094 -277.303 -16.6719 -312.854c-20.1045 -42.6621 -70.3672 -82.873 -120.14 -96.3564
c-24.7646 -6.62109 -71.5938 -6.13184 -96.8477 0.979492c-49.0371 14.2207 -93.1709 50.5088 -115.481 94.8867c-17.8994 36.042 -16.6729 14.2207 -17.4082 313.345z" />
    <glyph glyph-name="Udieresis" unicode="&#xdc;" horiz-adv-x="471" 
d="M107.314 732.037v37.0723h35.877h35.8779v-37.0723v-37.0742h-35.8779h-35.877v37.0742zM286.701 732.037v37.0723h35.877h35.8779v-37.0723v-37.0742h-35.8779h-35.877v37.0742zM52.2715 398.294l-0.981445 268.968h40.4561h40.7002l0.491211 -264.064
l0.734375 -264.308l9.07227 -17.1621c19.124 -36.5322 50.7529 -55.6562 92.6797 -55.6562c17.1621 0 24.0273 0.980469 38.0039 6.61816c28.1963 11.2783 47.5654 28.4414 58.3535 51.9785l5.39355 11.7695l0.734375 265.534l0.492188 265.29h40.7002h40.4551
l-0.736328 -268.968c-0.979492 -297.163 0.246094 -277.303 -16.6719 -312.854c-20.1045 -42.6621 -70.3672 -82.873 -120.14 -96.3564c-24.7646 -6.62109 -71.5938 -6.13184 -96.8477 0.979492c-49.0371 14.2207 -93.1709 50.5088 -115.481 94.8867
c-17.8994 36.042 -16.6729 14.2207 -17.4082 313.345z" />
    <glyph glyph-name="Yacute" unicode="&#xdd;" horiz-adv-x="429" 
d="M247.722 797.63l99.2607 34.4424l0.717773 -34.9209c0.238281 -19.1348 -0.239258 -35.3984 -1.19629 -36.3564c-1.19531 -0.956055 -55.251 -20.0898 -120.308 -42.5732c-65.0566 -22.2441 -120.308 -41.3789 -122.46 -42.335
c-4.06738 -1.67383 -4.30566 0.956055 -4.30566 34.2041v35.876l24.6348 8.60938zM255 370l166 297h-86l-117 -214l-118 214h-92l166 -297v-370h81v370z" />
    <glyph glyph-name="Thorn" unicode="&#xde;" horiz-adv-x="435" 
d="M51.998 333.272v333.657h39.4648h39.4658v-92.084v-92.085h86.3447c84.6689 0 86.582 0 110.501 -6.21875c18.6562 -4.54492 27.9834 -8.61133 40.4209 -16.7432c33.2471 -22.2441 52.6191 -62.665 52.3809 -109.783c0 -48.793 -20.8086 -88.7363 -58.1211 -112.654
c-31.0928 -19.8525 -32.0508 -20.0908 -138.247 -20.0908h-93.2793v-108.827v-108.827h-39.4658h-39.4648v333.656zM318.686 395.46l-11.4814 7.17578l-88.2588 0.716797l-88.0166 0.71875v-55.251v-55.4912l84.4307 0.957031
c62.1855 0.717773 86.3438 1.91309 92.5615 4.06641c40.1836 15.3076 46.8799 74.8633 10.7646 97.1074z" />
    <glyph glyph-name="germandbls" unicode="&#xdf;" horiz-adv-x="550" 
d="M189.378 677.437c21.5029 4.83301 68.3721 4.83301 91.3232 0c30.4414 -6.04004 55.8086 -19.8105 79.002 -42.7617c22.9521 -22.9521 35.0322 -44.6963 41.3135 -74.1709c8.21387 -38.4141 1.4502 -71.2705 -29.7168 -144.232l-15.7031 -36.7227l7.97266 -6.76562
c75.8613 -63.0566 118.624 -107.752 135.777 -142.3c11.3545 -22.2275 14.4961 -40.1055 13.0459 -72.2383c-1.44922 -34.7891 -6.52246 -53.1514 -23.1934 -87.2158c-10.1465 -20.2939 -14.9785 -27.0596 -29.7168 -41.0723
c-38.6553 -36.4805 -90.1152 -51.46 -141.817 -41.0703c-54.5996 11.1133 -92.2891 43.2451 -123.455 105.095c-7.97266 15.9453 -9.42188 20.7764 -6.76465 22.2256c43.0039 25.8516 61.3652 35.2744 63.0566 32.8574l14.4961 -24.4004
c14.7373 -25.3682 36.9639 -48.8027 53.6348 -57.0176c9.42188 -4.59082 15.9443 -6.03906 28.9912 -6.03906c59.4326 0.241211 102.92 68.8545 83.3516 132.153c-6.04102 20.0518 -20.0537 35.9971 -96.3984 110.167c-50.252 48.5605 -58.2236 55.5674 -60.3984 51.9434
c-2.17383 -3.86523 -2.41699 -3.38281 -2.6582 2.1748c0 3.86523 1.20898 6.52344 2.6582 6.03906c4.83105 -0.96582 42.2793 92.5322 51.7021 128.772c11.8379 44.9365 -10.3896 90.5986 -51.9434 106.785c-16.1875 6.04004 -49.5273 8.45605 -67.4062 4.59082
c-40.3467 -8.69824 -69.0967 -39.8643 -80.6934 -87.2168c-8.93848 -35.7559 -9.42285 -52.1846 -10.6299 -285.567l-1.20801 -231.449h-37.4473h-37.2061l0.966797 236.281c0.724609 254.885 0.482422 250.052 14.2539 301.271
c21.0186 79.002 65.2305 124.905 134.811 139.885z" />
    <glyph glyph-name="agrave" unicode="&#xe0;" horiz-adv-x="537" 
d="M240.908 665.974c0 0.478516 11.002 0.956055 24.6348 0.956055h24.3965l116.721 -331.982c64.1006 -182.495 116.48 -332.462 116.48 -333.418c0 -1.19531 -18.6562 -1.91309 -41.3789 -1.91309h-41.1377l-53.8164 152.597l-53.8154 153.358l-68.167 -0.282227
l-66.166 0.478516l-34.6807 -100.456l-74.6816 -205.456h-41.1387c-22.7227 0 -41.3789 0.478516 -41.3789 0.957031c0 0.716797 82.249 231.766 136.064 385.08c54.0547 153.554 98.0645 279.602 98.0645 280.081zM266.261 421.053l26.0713 0.716797l-13.6348 38.2686
c-7.41309 21.2871 -14.1113 36.5947 -14.8271 34.6807c-4.78516 -12.4355 -24.875 -73.1885 -24.1582 -73.666c0.239258 -0.239258 12.1982 -0.239258 26.5488 0zM302.616 391.394l-2.86914 7.6543h-34.4434h-34.2021l-3.34863 -7.6543l-3.10938 -7.89355l39.4648 -0.716797
c21.7646 -0.240234 39.9434 -0.240234 40.4209 0.239258c0.478516 0.477539 -0.477539 4.30566 -1.91309 8.37109zM150.602 789.283v35.6377l58.1221 -20.0918c131.788 -45.4434 188.474 -65.2959 189.67 -66.252c0.477539 -0.71875 0.717773 -16.9824 0.477539 -36.1172
l-0.71582 -34.6816l-113.611 39.2256c-62.4258 21.5264 -118.155 40.9004 -123.656 43.0537l-10.2861 3.82617v35.3994z" />
    <glyph glyph-name="aacute" unicode="&#xe1;" horiz-adv-x="537" 
d="M240.908 665.974c0 0.478516 11.002 0.956055 24.6348 0.956055h24.3965l116.721 -331.982c64.1006 -182.495 116.48 -332.462 116.48 -333.418c0 -1.19531 -18.6562 -1.91309 -41.3789 -1.91309h-41.1377l-53.8164 152.597l-53.8154 153.358l-68.167 -0.282227
l-66.166 0.478516l-34.6807 -100.456l-74.6816 -205.456h-41.1387c-22.7227 0 -41.3789 0.478516 -41.3789 0.957031c0 0.716797 82.249 231.766 136.064 385.08c54.0547 153.554 98.0645 279.602 98.0645 280.081zM266.261 421.053l26.0713 0.716797l-13.6348 38.2686
c-7.41309 21.2871 -14.1113 36.5947 -14.8271 34.6807c-4.78516 -12.4355 -24.875 -73.1885 -24.1582 -73.666c0.239258 -0.239258 12.1982 -0.239258 26.5488 0zM302.616 391.394l-2.86914 7.6543h-34.4434h-34.2021l-3.34863 -7.6543l-3.10938 -7.89355l39.4648 -0.716797
c21.7646 -0.240234 39.9434 -0.240234 40.4209 0.239258c0.478516 0.477539 -0.477539 4.30566 -1.91309 8.37109zM398.871 789.283v35.6377l-58.1221 -20.0918c-131.788 -45.4434 -188.474 -65.2959 -189.67 -66.252
c-0.477539 -0.71875 -0.717773 -16.9824 -0.477539 -36.1172l0.71582 -34.6816l113.611 39.2256c62.4258 21.5264 118.155 40.9004 123.656 43.0537l10.2861 3.82617v35.3994z" />
    <glyph glyph-name="acircumflex" unicode="&#xe2;" horiz-adv-x="537" 
d="M240.908 665.974c0 0.478516 11.002 0.956055 24.6348 0.956055h24.3965l116.721 -331.982c64.1006 -182.495 116.48 -332.462 116.48 -333.418c0 -1.19531 -18.6562 -1.91309 -41.3789 -1.91309h-41.1377l-53.8164 152.597l-53.8154 153.358l-68.167 -0.282227
l-66.166 0.478516l-34.6807 -100.456l-74.6816 -205.456h-41.1387c-22.7227 0 -41.3789 0.478516 -41.3789 0.957031c0 0.716797 82.249 231.766 136.064 385.08c54.0547 153.554 98.0645 279.602 98.0645 280.081zM266.261 421.053l26.0713 0.716797l-13.6348 38.2686
c-7.41309 21.2871 -14.1113 36.5947 -14.8271 34.6807c-4.78516 -12.4355 -24.875 -73.1885 -24.1582 -73.666c0.239258 -0.239258 12.1982 -0.239258 26.5488 0zM302.616 391.394l-2.86914 7.6543h-34.4434h-34.2021l-3.34863 -7.6543l-3.10938 -7.89355l39.4648 -0.716797
c21.7646 -0.240234 39.9434 -0.240234 40.4209 0.239258c0.478516 0.477539 -0.477539 4.30566 -1.91309 8.37109zM207.358 768.475l60.9922 21.2861c0.716797 0 28.7012 -9.32715 62.1865 -21.0469l60.9902 -21.2871l0.717773 -35.877l0.71875 -36.1162l-41.3789 14.3506
l-61.708 21.5264l-20.3311 7.1748l-20.3311 -7.1748l-61.707 -21.5264l-41.3789 -14.3506l0.716797 36.1162l0.71875 36.1162z" />
    <glyph glyph-name="atilde" unicode="&#xe3;" horiz-adv-x="537" 
d="M240.908 665.974c0 0.478516 11.002 0.956055 24.6348 0.956055h24.3965l116.721 -331.982c64.1006 -182.495 116.48 -332.462 116.48 -333.418c0 -1.19531 -18.6562 -1.91309 -41.3789 -1.91309h-41.1377l-53.8164 152.597l-53.8154 153.358l-68.167 -0.282227
l-66.166 0.478516l-34.6807 -100.456l-74.6816 -205.456h-41.1387c-22.7227 0 -41.3789 0.478516 -41.3789 0.957031c0 0.716797 82.249 231.766 136.064 385.08c54.0547 153.554 98.0645 279.602 98.0645 280.081zM266.261 421.053l26.0713 0.716797l-13.6348 38.2686
c-7.41309 21.2871 -14.1113 36.5947 -14.8271 34.6807c-4.78516 -12.4355 -24.875 -73.1885 -24.1582 -73.666c0.239258 -0.239258 12.1982 -0.239258 26.5488 0zM302.616 391.394l-2.86914 7.6543h-34.4434h-34.2021l-3.34863 -7.6543l-3.10938 -7.89355l39.4648 -0.716797
c21.7646 -0.240234 39.9434 -0.240234 40.4209 0.239258c0.478516 0.477539 -0.477539 4.30566 -1.91309 8.37109zM424 801h-60c-2.66699 -20 -14.667 -30 -36 -30c-9.33301 0 -25.333 4.66699 -48 14c-16 7.33301 -30.667 13 -44 17s-28 6 -44 6
c-53.333 0 -80.667 -31 -82 -93h60c3.33301 20 15 30 35 30c9.33301 0 25.333 -4.66699 48 -14c17.333 -7.33301 32.667 -13 46 -17s28 -6 44 -6c27.333 0 47.5 7.5 60.5 22.5s19.833 38.5 20.5 70.5z" />
    <glyph glyph-name="adieresis" unicode="&#xe4;" horiz-adv-x="537" 
d="M240.908 665.974c0 0.478516 11.002 0.956055 24.6348 0.956055h24.3965l116.721 -331.982c64.1006 -182.495 116.48 -332.462 116.48 -333.418c0 -1.19531 -18.6562 -1.91309 -41.3789 -1.91309h-41.1377l-53.8164 152.597l-53.8154 153.358l-68.167 -0.282227
l-66.166 0.478516l-34.6807 -100.456l-74.6816 -205.456h-41.1387c-22.7227 0 -41.3789 0.478516 -41.3789 0.957031c0 0.716797 82.249 231.766 136.064 385.08c54.0547 153.554 98.0645 279.602 98.0645 280.081zM266.261 421.053l26.0713 0.716797l-13.6348 38.2686
c-7.41309 21.2871 -14.1113 36.5947 -14.8271 34.6807c-4.78516 -12.4355 -24.875 -73.1885 -24.1582 -73.666c0.239258 -0.239258 12.1982 -0.239258 26.5488 0zM302.616 391.394l-2.86914 7.6543h-34.4434h-34.2021l-3.34863 -7.6543l-3.10938 -7.89355l39.4648 -0.716797
c21.7646 -0.240234 39.9434 -0.240234 40.4209 0.239258c0.478516 0.477539 -0.477539 4.30566 -1.91309 8.37109zM141.314 732.037v37.0723h35.877h35.8779v-37.0723v-37.0742h-35.8779h-35.877v37.0742zM320.701 732.037v37.0723h35.877h35.8779v-37.0723v-37.0742
h-35.8779h-35.877v37.0742z" />
    <glyph glyph-name="aring" unicode="&#xe5;" horiz-adv-x="537" 
d="M240.908 665.974c0 0.478516 11.002 0.956055 24.6348 0.956055h24.3965l116.721 -331.982c64.1006 -182.495 116.48 -332.462 116.48 -333.418c0 -1.19531 -18.6562 -1.91309 -41.3789 -1.91309h-41.1377l-53.8164 152.597l-53.8154 153.358l-68.167 -0.282227
l-66.166 0.478516l-34.6807 -100.456l-74.6816 -205.456h-41.1387c-22.7227 0 -41.3789 0.478516 -41.3789 0.957031c0 0.716797 82.249 231.766 136.064 385.08c54.0547 153.554 98.0645 279.602 98.0645 280.081zM266.261 421.053l26.0713 0.716797l-13.6348 38.2686
c-7.41309 21.2871 -14.1113 36.5947 -14.8271 34.6807c-4.78516 -12.4355 -24.875 -73.1885 -24.1582 -73.666c0.239258 -0.239258 12.1982 -0.239258 26.5488 0zM302.616 391.394l-2.86914 7.6543h-34.4434h-34.2021l-3.34863 -7.6543l-3.10938 -7.89355l39.4648 -0.716797
c21.7646 -0.240234 39.9434 -0.240234 40.4209 0.239258c0.478516 0.477539 -0.477539 4.30566 -1.91309 8.37109zM270 868.2c-23.2002 0 -43.2002 -8.2998 -60 -24.9004c-16.7998 -16.5996 -25.2002 -36.7002 -25.2002 -60.2998s8.2998 -43.7002 24.9004 -60.2998
c16.5996 -16.6006 36.7002 -24.9004 60.2998 -24.9004s43.7002 8.40039 60.2998 25.2002c16.6006 16.7998 24.9004 36.7998 24.9004 60s-8.40039 43.2002 -25.2002 60s-36.7998 25.2002 -60 25.2002zM270 831c13.2002 0 24.5 -4.7002 33.9004 -14.0996
c9.39941 -9.40039 14.0996 -20.7002 14.0996 -33.9004s-4.59961 -24.4004 -13.7998 -33.5996c-9.2002 -9.2002 -20.6006 -13.8008 -34.2002 -13.8008s-24.9004 4.5 -33.9004 13.5s-13.5 20.3008 -13.5 33.9004s4.60059 25 13.8008 34.2002
c9.19922 9.2002 20.3994 13.7998 33.5996 13.7998z" />
    <glyph glyph-name="ae" unicode="&#xe6;" horiz-adv-x="542" 
d="M133.346 345.137l113.371 322.177h141.595h105.835v-39.4648v-39.4648h-52.4971h-88.4971v-37.0723v-25.0732h88.4971h52.4971v-38.2695v-38.2686h-54.1719h-89.9316l1.43555 -91.4082c0.956055 -43.5312 1.67383 -124.373 1.67383 -179.385v-99.9775h144.704h20.7041
v-39.4658v-39.4639h-62.5605h-186.562v39.4639v39.4658h-73.4277h-73.668l-13.3936 -38.9863l-13.3945 -38.748l-42.3359 -0.717773l-42.0947 -0.477539l4.30469 11.2402c2.63184 6.45898 55.4902 156.425 117.917 333.896zM268.722 204.021
c0.477539 0.478516 0.477539 66.0137 0.239258 145.661l-0.717773 144.705l-50.4678 -144.943l-50.4668 -144.944l50.2285 -0.717773c27.5049 -0.238281 50.7061 -0.238281 51.1846 0.239258zM269.438 154.271v8.37207h-58.5986h-58.5986l-2.39258 -6.21875
c-1.43555 -3.34863 -2.39258 -7.17578 -2.39258 -8.37109c0 -1.19629 24.875 -2.15332 60.9922 -2.15332h60.9902v8.37109z" />
    <glyph glyph-name="ccedilla" unicode="&#xe7;" horiz-adv-x="453" 
d="M245.881 673.646c21.4717 4.39355 81.0117 4.39258 111.514 -0.000976562c29.0381 -4.14746 40.0176 -6.58691 72.2266 -16.3477l23.6689 -7.07617v-15.1289c0 -8.29688 -0.730469 -27.3301 -1.46289 -42.2129l-1.70898 -27.0859l-17.5693 6.83105
c-60.5137 23.4258 -126.154 32.2109 -170.809 22.9375c-70.0312 -14.6416 -109.073 -70.2754 -118.589 -168.368c-7.07715 -73.2041 4.3916 -149.823 30.501 -205.215c47.0947 -99.5566 127.13 -148.848 234.009 -143.967l30.9893 1.21875v-39.7725v-40.0195
l-26.1104 -1.70703c-28.8574 -2.00684 -56.4424 -0.720703 -82.7705 3.8584v-22.6514c26.4609 -3.78027 46.9805 -12.959 61.5605 -27.5391s21.8701 -32.9414 21.8701 -55.0801c0 -24.8408 -9.58496 -44.9561 -28.7549 -60.3457s-44.9561 -23.085 -77.3555 -23.085
c-32.9395 0 -62.3701 10.5303 -88.29 31.5908l31.5898 35.6396c18.9004 -12.96 37.2607 -19.4404 55.0801 -19.4404c16.7402 0 29.835 3.24023 39.2852 9.7207c9.4502 6.47949 14.1748 15.3896 14.1748 26.7295c0 14.5801 -6.34473 25.1094 -19.0352 31.5898
s-33.6143 11.0713 -62.7744 13.7695v73.2627c-21.2656 7.88184 -41.5986 18.2246 -61.0088 31.0283c-22.6934 15.127 -61.9795 57.3418 -83.6973 89.7959c-31.9658 48.0713 -47.3379 86.1357 -59.5381 146.896c-11.4697 56.1221 -13.4219 84.1826 -10.249 132.253
c4.14746 61.4922 13.4209 100.047 33.4307 139.576c13.6641 26.8418 21.4717 38.5537 38.7969 56.3662c32.4531 33.6738 67.1025 52.9521 111.026 61.9785z" />
    <glyph glyph-name="egrave" unicode="&#xe8;" horiz-adv-x="277" 
d="M12.8936 789.283v35.6377l58.1221 -20.0918c131.788 -45.4434 188.474 -65.2959 189.67 -66.252c0.477539 -0.71875 0.717773 -16.9824 0.477539 -36.1172l-0.71582 -34.6816l-113.611 39.2256c-62.4258 21.5264 -118.155 40.9004 -123.656 43.0537l-10.2861 3.82617
v35.3994zM133 449h90v79h-90v60h90v79h-171v-667h171v79h-90v370z" />
    <glyph glyph-name="eacute" unicode="&#xe9;" horiz-adv-x="277" 
d="M160.722 797.63l99.2607 34.4424l0.717773 -34.9209c0.238281 -19.1348 -0.239258 -35.3984 -1.19629 -36.3564c-1.19531 -0.956055 -55.251 -20.0898 -120.308 -42.5732c-65.0566 -22.2441 -120.308 -41.3789 -122.46 -42.335
c-4.06738 -1.67383 -4.30566 0.956055 -4.30566 34.2041v35.876l24.6348 8.60938zM133 449h90v79h-90v60h90v79h-171v-667h171v79h-90v370z" />
    <glyph glyph-name="ecircumflex" unicode="&#xea;" horiz-adv-x="277" 
d="M74.3584 768.475l60.9922 21.2861c0.716797 0 28.7012 -9.32715 62.1865 -21.0469l60.9902 -21.2871l0.717773 -35.877l0.71875 -36.1162l-41.3789 14.3506l-61.708 21.5264l-20.3311 7.1748l-20.3311 -7.1748l-61.707 -21.5264l-41.3789 -14.3506l0.716797 36.1162
l0.71875 36.1162zM133 449h90v79h-90v60h90v79h-171v-667h171v79h-90v370z" />
    <glyph glyph-name="edieresis" unicode="&#xeb;" horiz-adv-x="277" 
d="M13.3145 732.037v37.0723h35.877h35.8779v-37.0723v-37.0742h-35.8779h-35.877v37.0742zM192.701 732.037v37.0723h35.877h35.8779v-37.0723v-37.0742h-35.8779h-35.877v37.0742zM133 449h90v79h-90v60h90v79h-171v-667h171v79h-90v370z" />
    <glyph glyph-name="igrave" unicode="&#xec;" 
d="M14.2666 628.465v39.4648h77.7334h77.7334v-39.4648v-39.4648h-19.1338h-19.1348v-254.728v-254.727h19.1348h19.1338v-39.4658v-39.4639h-77.7334h-77.7334v39.4639v39.4658h19.1338h19.1348v254.727v254.728h-19.1348h-19.1338v39.4648zM-26.1064 789.283v35.6377
l58.1221 -20.0918c131.788 -45.4434 188.474 -65.2959 189.67 -66.252c0.477539 -0.71875 0.717773 -16.9824 0.477539 -36.1172l-0.71582 -34.6816l-113.611 39.2256c-62.4258 21.5264 -118.155 40.9004 -123.656 43.0537l-10.2861 3.82617v35.3994z" />
    <glyph glyph-name="iacute" unicode="&#xed;" 
d="M14.2666 628.465v39.4648h77.7334h77.7334v-39.4648v-39.4648h-19.1338h-19.1348v-254.728v-254.727h19.1348h19.1338v-39.4658v-39.4639h-77.7334h-77.7334v39.4639v39.4658h19.1338h19.1348v254.727v254.728h-19.1348h-19.1338v39.4648zM222.163 789.283v35.6377
l-58.1221 -20.0918c-131.788 -45.4434 -188.474 -65.2959 -189.67 -66.252c-0.477539 -0.71875 -0.717773 -16.9824 -0.477539 -36.1172l0.71582 -34.6816l113.611 39.2256c62.4258 21.5264 118.155 40.9004 123.656 43.0537l10.2861 3.82617v35.3994z" />
    <glyph glyph-name="icircumflex" unicode="&#xee;" 
d="M14.2666 628.465v39.4648h77.7334h77.7334v-39.4648v-39.4648h-19.1338h-19.1348v-254.728v-254.727h19.1348h19.1338v-39.4658v-39.4639h-77.7334h-77.7334v39.4639v39.4658h19.1338h19.1348v254.727v254.728h-19.1348h-19.1338v39.4648zM28.3584 768.475
l60.9922 21.2861c0.716797 0 28.7012 -9.32715 62.1865 -21.0469l60.9902 -21.2871l0.717773 -35.877l0.71875 -36.1162l-41.3789 14.3506l-61.708 21.5264l-20.3311 7.1748l-20.3311 -7.1748l-61.707 -21.5264l-41.3789 -14.3506l0.716797 36.1162l0.71875 36.1162z" />
    <glyph glyph-name="idieresis" unicode="&#xef;" 
d="M14.2666 628.465v39.4648h77.7334h77.7334v-39.4648v-39.4648h-19.1338h-19.1348v-254.728v-254.727h19.1348h19.1338v-39.4658v-39.4639h-77.7334h-77.7334v39.4639v39.4658h19.1338h19.1348v254.727v254.728h-19.1348h-19.1338v39.4648zM-34.6855 732.037v37.0723
h35.877h35.8779v-37.0723v-37.0742h-35.8779h-35.877v37.0742zM144.701 732.037v37.0723h35.877h35.8779v-37.0723v-37.0742h-35.8779h-35.877v37.0742z" />
    <glyph glyph-name="eth" unicode="&#xf0;" horiz-adv-x="446" 
d="M95.9277 520.516v147.335l73.667 -0.956055c83.2354 -1.19727 94.4775 -3.11035 131.071 -21.0488c66.0146 -32.5273 102.37 -91.8457 116.96 -191.345c5.02344 -33.4854 7.17578 -127.482 4.06641 -162.882c-4.78418 -50.7061 -15.5479 -92.5625 -33.9639 -132.984
c-26.5488 -57.1641 -72.9492 -104.044 -132.746 -133.463c-38.5078 -19.1338 -55.0117 -22.7217 -111.697 -24.3965l-47.3574 -1.43555v147.336v147.575h-40.6602h-40.6611v39.4639v39.4658h40.6611h40.6602v147.335zM245.416 583.42
c-17.2217 5.2627 -65.5352 9.56738 -68.6455 6.21875c-1.19629 -1.19531 -1.91309 -50.2285 -1.91309 -109.306v-107.152h41.8564h41.8564v-39.4658v-39.4639h-41.8564h-41.8564v-106.437v-106.436h6.93652c12.1982 0 44.248 11.4805 59.5557 21.2881
c16.9814 11.2412 40.4209 34.4414 53.0986 52.8584c38.9873 57.4033 54.5332 136.333 47.835 245.161c-4.7832 79.6465 -18.8955 123.416 -49.748 155.227c-13.1553 13.6338 -26.0723 21.0498 -47.1191 27.5068z" />
    <glyph glyph-name="ntilde" unicode="&#xf1;" horiz-adv-x="474" 
d="M400 801h-60c-2.66699 -20 -14.667 -30 -36 -30c-9.33301 0 -25.333 4.66699 -48 14c-16 7.33301 -30.667 13 -44 17s-28 6 -44 6c-53.333 0 -80.667 -31 -82 -93h60c3.33301 20 15 30 35 30c9.33301 0 25.333 -4.66699 48 -14c17.333 -7.33301 32.667 -13 46 -17
s28 -6 44 -6c27.333 0 47.5 7.5 60.5 22.5s19.833 38.5 20.5 70.5zM130 514l214 -311v-203h78v667h-78v-323l-224 323h-68v-667h78v514z" />
    <glyph glyph-name="ograve" unicode="&#xf2;" horiz-adv-x="388" 
d="M158 292v-74h81v74h-81zM158 159v-74h81v74h-81zM197 584.758c21.1426 0 39.1523 -7.43945 54.0312 -22.3145c14.877 -14.877 22.3135 -32.8887 22.3135 -54.0312s-7.33887 -39.1523 -22.0234 -54.0312c-14.6797 -14.875 -32.7871 -22.3145 -54.3213 -22.3145
s-39.6416 7.33984 -54.3213 22.0244c-14.6846 14.6797 -22.0234 32.7871 -22.0234 54.3213c0 21.5332 7.43652 39.6426 22.3135 54.3232c14.8789 14.6836 32.8887 22.0225 54.0312 22.0225zM197 664.357c-20.9922 0 -40.9863 -4 -59.9795 -11.9971
c-18.9912 -7.99609 -35.7373 -19.1201 -50.2305 -33.3623c-14.4961 -14.2461 -25.7422 -30.8652 -33.7383 -49.8574c-7.99805 -18.9932 -11.9951 -39.2373 -11.9951 -60.7285s3.99707 -41.7344 11.9951 -60.7275c7.99609 -18.9932 19.1182 -35.6133 33.3623 -49.8564
c14.2451 -14.2451 30.8662 -25.3672 49.8574 -33.3633c18.9932 -7.99902 39.2363 -11.9961 60.7285 -11.9961s41.7354 3.99707 60.7285 11.9961c18.9912 7.99609 35.6123 19.2412 49.8574 33.7383c14.2441 14.4922 25.3652 31.2383 33.3623 50.2305
c7.99805 18.9941 11.9951 38.9854 11.9951 59.9785c0 21.4912 -3.99707 41.7354 -11.9951 60.7285c-7.99707 18.9922 -19.2422 35.6113 -33.7383 49.8574c-14.4932 14.2422 -31.2393 25.3662 -50.2305 33.3623c-18.9932 7.99707 -38.9873 11.9971 -59.9795 11.9971z
M74.8936 789.283v35.6377l58.1221 -20.0918c131.788 -45.4434 188.474 -65.2959 189.67 -66.252c0.477539 -0.71875 0.717773 -16.9824 0.477539 -36.1172l-0.71582 -34.6816l-113.611 39.2256c-62.4258 21.5264 -118.155 40.9004 -123.656 43.0537l-10.2861 3.82617
v35.3994z" />
    <glyph glyph-name="oacute" unicode="&#xf3;" horiz-adv-x="388" 
d="M158 292v-74h81v74h-81zM158 159v-74h81v74h-81zM197 584.758c21.1426 0 39.1523 -7.43945 54.0312 -22.3145c14.877 -14.877 22.3135 -32.8887 22.3135 -54.0312s-7.33887 -39.1523 -22.0234 -54.0312c-14.6797 -14.875 -32.7871 -22.3145 -54.3213 -22.3145
s-39.6416 7.33984 -54.3213 22.0244c-14.6846 14.6797 -22.0234 32.7871 -22.0234 54.3213c0 21.5332 7.43652 39.6426 22.3135 54.3232c14.8789 14.6836 32.8887 22.0225 54.0312 22.0225zM197 664.357c-20.9922 0 -40.9863 -4 -59.9795 -11.9971
c-18.9912 -7.99609 -35.7373 -19.1201 -50.2305 -33.3623c-14.4961 -14.2461 -25.7422 -30.8652 -33.7383 -49.8574c-7.99805 -18.9932 -11.9951 -39.2373 -11.9951 -60.7285s3.99707 -41.7344 11.9951 -60.7275c7.99609 -18.9932 19.1182 -35.6133 33.3623 -49.8564
c14.2451 -14.2451 30.8662 -25.3672 49.8574 -33.3633c18.9932 -7.99902 39.2363 -11.9961 60.7285 -11.9961s41.7354 3.99707 60.7285 11.9961c18.9912 7.99609 35.6123 19.2412 49.8574 33.7383c14.2441 14.4922 25.3652 31.2383 33.3623 50.2305
c7.99805 18.9941 11.9951 38.9854 11.9951 59.9785c0 21.4912 -3.99707 41.7354 -11.9951 60.7285c-7.99707 18.9922 -19.2422 35.6113 -33.7383 49.8574c-14.4932 14.2422 -31.2393 25.3662 -50.2305 33.3623c-18.9932 7.99707 -38.9873 11.9971 -59.9795 11.9971z
M221.722 797.63l99.2607 34.4424l0.717773 -34.9209c0.238281 -19.1348 -0.239258 -35.3984 -1.19629 -36.3564c-1.19531 -0.956055 -55.251 -20.0898 -120.308 -42.5732c-65.0566 -22.2441 -120.308 -41.3789 -122.46 -42.335
c-4.06738 -1.67383 -4.30566 0.956055 -4.30566 34.2041v35.876l24.6348 8.60938z" />
    <glyph glyph-name="ocircumflex" unicode="&#xf4;" horiz-adv-x="388" 
d="M158 292v-74h81v74h-81zM158 159v-74h81v74h-81zM197 584.758c21.1426 0 39.1523 -7.43945 54.0312 -22.3145c14.877 -14.877 22.3135 -32.8887 22.3135 -54.0312s-7.33887 -39.1523 -22.0234 -54.0312c-14.6797 -14.875 -32.7871 -22.3145 -54.3213 -22.3145
s-39.6416 7.33984 -54.3213 22.0244c-14.6846 14.6797 -22.0234 32.7871 -22.0234 54.3213c0 21.5332 7.43652 39.6426 22.3135 54.3232c14.8789 14.6836 32.8887 22.0225 54.0312 22.0225zM197 664.357c-20.9922 0 -40.9863 -4 -59.9795 -11.9971
c-18.9912 -7.99609 -35.7373 -19.1201 -50.2305 -33.3623c-14.4961 -14.2461 -25.7422 -30.8652 -33.7383 -49.8574c-7.99805 -18.9932 -11.9951 -39.2373 -11.9951 -60.7285s3.99707 -41.7344 11.9951 -60.7275c7.99609 -18.9932 19.1182 -35.6133 33.3623 -49.8564
c14.2451 -14.2451 30.8662 -25.3672 49.8574 -33.3633c18.9932 -7.99902 39.2363 -11.9961 60.7285 -11.9961s41.7354 3.99707 60.7285 11.9961c18.9912 7.99609 35.6123 19.2412 49.8574 33.7383c14.2441 14.4922 25.3652 31.2383 33.3623 50.2305
c7.99805 18.9941 11.9951 38.9854 11.9951 59.9785c0 21.4912 -3.99707 41.7354 -11.9951 60.7285c-7.99707 18.9922 -19.2422 35.6113 -33.7383 49.8574c-14.4932 14.2422 -31.2393 25.3662 -50.2305 33.3623c-18.9932 7.99707 -38.9873 11.9971 -59.9795 11.9971z
M135.358 768.475l60.9922 21.2861c0.716797 0 28.7012 -9.32715 62.1865 -21.0469l60.9902 -21.2871l0.717773 -35.877l0.71875 -36.1162l-41.3789 14.3506l-61.708 21.5264l-20.3311 7.1748l-20.3311 -7.1748l-61.707 -21.5264l-41.3789 -14.3506l0.716797 36.1162
l0.71875 36.1162z" />
    <glyph glyph-name="otilde" unicode="&#xf5;" horiz-adv-x="388" 
d="M158 292v-74h81v74h-81zM158 159v-74h81v74h-81zM197 584.758c21.1426 0 39.1523 -7.43945 54.0312 -22.3145c14.877 -14.877 22.3135 -32.8887 22.3135 -54.0312s-7.33887 -39.1523 -22.0234 -54.0312c-14.6797 -14.875 -32.7871 -22.3145 -54.3213 -22.3145
s-39.6416 7.33984 -54.3213 22.0244c-14.6846 14.6797 -22.0234 32.7871 -22.0234 54.3213c0 21.5332 7.43652 39.6426 22.3135 54.3232c14.8789 14.6836 32.8887 22.0225 54.0312 22.0225zM197 664.357c-20.9922 0 -40.9863 -4 -59.9795 -11.9971
c-18.9912 -7.99609 -35.7373 -19.1201 -50.2305 -33.3623c-14.4961 -14.2461 -25.7422 -30.8652 -33.7383 -49.8574c-7.99805 -18.9932 -11.9951 -39.2373 -11.9951 -60.7285s3.99707 -41.7344 11.9951 -60.7275c7.99609 -18.9932 19.1182 -35.6133 33.3623 -49.8564
c14.2451 -14.2451 30.8662 -25.3672 49.8574 -33.3633c18.9932 -7.99902 39.2363 -11.9961 60.7285 -11.9961s41.7354 3.99707 60.7285 11.9961c18.9912 7.99609 35.6123 19.2412 49.8574 33.7383c14.2441 14.4922 25.3652 31.2383 33.3623 50.2305
c7.99805 18.9941 11.9951 38.9854 11.9951 59.9785c0 21.4912 -3.99707 41.7354 -11.9951 60.7285c-7.99707 18.9922 -19.2422 35.6113 -33.7383 49.8574c-14.4932 14.2422 -31.2393 25.3662 -50.2305 33.3623c-18.9932 7.99707 -38.9873 11.9971 -59.9795 11.9971zM353 801
h-60c-2.66699 -20 -14.667 -30 -36 -30c-9.33301 0 -25.333 4.66699 -48 14c-16 7.33301 -30.667 13 -44 17s-28 6 -44 6c-53.333 0 -80.667 -31 -82 -93h60c3.33301 20 15 30 35 30c9.33301 0 25.333 -4.66699 48 -14c17.333 -7.33301 32.667 -13 46 -17s28 -6 44 -6
c27.333 0 47.5 7.5 60.5 22.5s19.833 38.5 20.5 70.5z" />
    <glyph glyph-name="odieresis" unicode="&#xf6;" horiz-adv-x="388" 
d="M158 292v-74h81v74h-81zM158 159v-74h81v74h-81zM197 584.758c21.1426 0 39.1523 -7.43945 54.0312 -22.3145c14.877 -14.877 22.3135 -32.8887 22.3135 -54.0312s-7.33887 -39.1523 -22.0234 -54.0312c-14.6797 -14.875 -32.7871 -22.3145 -54.3213 -22.3145
s-39.6416 7.33984 -54.3213 22.0244c-14.6846 14.6797 -22.0234 32.7871 -22.0234 54.3213c0 21.5332 7.43652 39.6426 22.3135 54.3232c14.8789 14.6836 32.8887 22.0225 54.0312 22.0225zM197 664.357c-20.9922 0 -40.9863 -4 -59.9795 -11.9971
c-18.9912 -7.99609 -35.7373 -19.1201 -50.2305 -33.3623c-14.4961 -14.2461 -25.7422 -30.8652 -33.7383 -49.8574c-7.99805 -18.9932 -11.9951 -39.2373 -11.9951 -60.7285s3.99707 -41.7344 11.9951 -60.7275c7.99609 -18.9932 19.1182 -35.6133 33.3623 -49.8564
c14.2451 -14.2451 30.8662 -25.3672 49.8574 -33.3633c18.9932 -7.99902 39.2363 -11.9961 60.7285 -11.9961s41.7354 3.99707 60.7285 11.9961c18.9912 7.99609 35.6123 19.2412 49.8574 33.7383c14.2441 14.4922 25.3652 31.2383 33.3623 50.2305
c7.99805 18.9941 11.9951 38.9854 11.9951 59.9785c0 21.4912 -3.99707 41.7354 -11.9951 60.7285c-7.99707 18.9922 -19.2422 35.6113 -33.7383 49.8574c-14.4932 14.2422 -31.2393 25.3662 -50.2305 33.3623c-18.9932 7.99707 -38.9873 11.9971 -59.9795 11.9971z
M74.3145 732.037v37.0723h35.877h35.8779v-37.0723v-37.0742h-35.8779h-35.877v37.0742zM253.701 732.037v37.0723h35.877h35.8779v-37.0723v-37.0742h-35.8779h-35.877v37.0742z" />
    <glyph glyph-name="oslash" unicode="&#xf8;" horiz-adv-x="388" 
d="M197 664.357c-20.9922 0 -40.9883 -4.00098 -59.9814 -11.998c-18.9912 -7.99609 -35.7373 -19.1201 -50.2305 -33.3623c-14.4961 -14.2461 -25.7422 -30.8652 -33.7383 -49.8574c-7.99805 -18.9932 -11.9951 -39.2373 -11.9951 -60.7285
s3.99707 -41.7344 11.9951 -60.7275c7.99609 -18.9932 19.1182 -35.6133 33.3623 -49.8564c3.45117 -3.45117 7.04199 -6.71875 10.7725 -9.80371l-46.1855 -78.0244h57l31.4678 53.1611c18.0635 -7.12988 37.2412 -10.6924 57.5322 -10.6924
c21.4922 0 41.7354 3.99707 60.7285 11.9961c18.9912 7.99609 35.6123 19.2412 49.8574 33.7383c14.2441 14.4922 25.3652 31.2383 33.3623 50.2305c7.99805 18.9941 11.9951 38.9854 11.9951 59.9785c0 21.4912 -3.99707 41.7354 -11.9951 60.7285
c-7.99707 18.9922 -19.2422 35.6113 -33.7383 49.8574c-3.4209 3.3623 -6.96777 6.55078 -10.6396 9.56543l46.4307 78.4375h-57l-31.6943 -53.543c-18.1934 7.26562 -37.2959 10.9004 -57.3057 10.9004zM157.998 158.999v-74h81v74h-81zM157.998 291.999v-74h81v74h-81z
M138.769 458.276c-12.0791 13.8926 -18.1162 30.6035 -18.1162 50.1348c0 21.5332 7.43652 39.6426 22.3135 54.3232c14.8789 14.6836 32.8887 22.0225 54.0312 22.0225c5.46191 0 10.7148 -0.496094 15.7588 -1.48926zM181.11 433.513l73.8398 124.741
c12.2627 -14.0312 18.3926 -30.6465 18.3926 -49.8428c0 -21.1426 -7.33887 -39.1523 -22.0234 -54.0312c-14.6797 -14.875 -32.7871 -22.3145 -54.3213 -22.3145c-5.52148 0 -10.8174 0.482422 -15.8877 1.44727z" />
    <glyph glyph-name="ugrave" unicode="&#xf9;" horiz-adv-x="471" 
d="M51.8936 789.283v35.6377l58.1221 -20.0918c131.788 -45.4434 188.474 -65.2959 189.67 -66.252c0.477539 -0.71875 0.717773 -16.9824 0.477539 -36.1172l-0.71582 -34.6816l-113.611 39.2256c-62.4258 21.5264 -118.155 40.9004 -123.656 43.0537l-10.2861 3.82617
v35.3994zM52.2715 398.294l-0.981445 268.968h40.4561h40.7002l0.491211 -264.064l0.734375 -264.308l9.07227 -17.1621c19.124 -36.5322 50.7529 -55.6562 92.6797 -55.6562c17.1621 0 24.0273 0.980469 38.0039 6.61816c28.1963 11.2783 47.5654 28.4414 58.3535 51.9785
l5.39355 11.7695l0.734375 265.534l0.492188 265.29h40.7002h40.4551l-0.736328 -268.968c-0.979492 -297.163 0.246094 -277.303 -16.6719 -312.854c-20.1045 -42.6621 -70.3672 -82.873 -120.14 -96.3564c-24.7646 -6.62109 -71.5938 -6.13184 -96.8477 0.979492
c-49.0371 14.2207 -93.1709 50.5088 -115.481 94.8867c-17.8994 36.042 -16.6729 14.2207 -17.4082 313.345z" />
    <glyph glyph-name="uacute" unicode="&#xfa;" horiz-adv-x="471" 
d="M318.722 797.63l99.2607 34.4424l0.717773 -34.9209c0.238281 -19.1348 -0.239258 -35.3984 -1.19629 -36.3564c-1.19531 -0.956055 -55.251 -20.0898 -120.308 -42.5732c-65.0566 -22.2441 -120.308 -41.3789 -122.46 -42.335
c-4.06738 -1.67383 -4.30566 0.956055 -4.30566 34.2041v35.876l24.6348 8.60938zM52.2715 398.294l-0.981445 268.968h40.4561h40.7002l0.491211 -264.064l0.734375 -264.308l9.07227 -17.1621c19.124 -36.5322 50.7529 -55.6562 92.6797 -55.6562
c17.1621 0 24.0273 0.980469 38.0039 6.61816c28.1963 11.2783 47.5654 28.4414 58.3535 51.9785l5.39355 11.7695l0.734375 265.534l0.492188 265.29h40.7002h40.4551l-0.736328 -268.968c-0.979492 -297.163 0.246094 -277.303 -16.6719 -312.854
c-20.1045 -42.6621 -70.3672 -82.873 -120.14 -96.3564c-24.7646 -6.62109 -71.5938 -6.13184 -96.8477 0.979492c-49.0371 14.2207 -93.1709 50.5088 -115.481 94.8867c-17.8994 36.042 -16.6729 14.2207 -17.4082 313.345z" />
    <glyph glyph-name="ucircumflex" unicode="&#xfb;" horiz-adv-x="471" 
d="M173.358 768.475l60.9922 21.2861c0.716797 0 28.7012 -9.32715 62.1865 -21.0469l60.9902 -21.2871l0.717773 -35.877l0.71875 -36.1162l-41.3789 14.3506l-61.708 21.5264l-20.3311 7.1748l-20.3311 -7.1748l-61.707 -21.5264l-41.3789 -14.3506l0.716797 36.1162
l0.71875 36.1162zM52.2715 398.294l-0.981445 268.968h40.4561h40.7002l0.491211 -264.064l0.734375 -264.308l9.07227 -17.1621c19.124 -36.5322 50.7529 -55.6562 92.6797 -55.6562c17.1621 0 24.0273 0.980469 38.0039 6.61816
c28.1963 11.2783 47.5654 28.4414 58.3535 51.9785l5.39355 11.7695l0.734375 265.534l0.492188 265.29h40.7002h40.4551l-0.736328 -268.968c-0.979492 -297.163 0.246094 -277.303 -16.6719 -312.854c-20.1045 -42.6621 -70.3672 -82.873 -120.14 -96.3564
c-24.7646 -6.62109 -71.5938 -6.13184 -96.8477 0.979492c-49.0371 14.2207 -93.1709 50.5088 -115.481 94.8867c-17.8994 36.042 -16.6729 14.2207 -17.4082 313.345z" />
    <glyph glyph-name="udieresis" unicode="&#xfc;" horiz-adv-x="471" 
d="M107.314 732.037v37.0723h35.877h35.8779v-37.0723v-37.0742h-35.8779h-35.877v37.0742zM286.701 732.037v37.0723h35.877h35.8779v-37.0723v-37.0742h-35.8779h-35.877v37.0742zM52.2715 398.294l-0.981445 268.968h40.4561h40.7002l0.491211 -264.064
l0.734375 -264.308l9.07227 -17.1621c19.124 -36.5322 50.7529 -55.6562 92.6797 -55.6562c17.1621 0 24.0273 0.980469 38.0039 6.61816c28.1963 11.2783 47.5654 28.4414 58.3535 51.9785l5.39355 11.7695l0.734375 265.534l0.492188 265.29h40.7002h40.4551
l-0.736328 -268.968c-0.979492 -297.163 0.246094 -277.303 -16.6719 -312.854c-20.1045 -42.6621 -70.3672 -82.873 -120.14 -96.3564c-24.7646 -6.62109 -71.5938 -6.13184 -96.8477 0.979492c-49.0371 14.2207 -93.1709 50.5088 -115.481 94.8867
c-17.8994 36.042 -16.6729 14.2207 -17.4082 313.345z" />
    <glyph glyph-name="yacute" unicode="&#xfd;" horiz-adv-x="436" 
d="M250.722 797.63l99.2607 34.4424l0.717773 -34.9209c0.238281 -19.1348 -0.239258 -35.3984 -1.19629 -36.3564c-1.19531 -0.956055 -55.251 -20.0898 -120.308 -42.5732c-65.0566 -22.2441 -120.308 -41.3789 -122.46 -42.335
c-4.06738 -1.67383 -4.30566 0.956055 -4.30566 34.2041v35.876l24.6348 8.60938zM178 273v-273h81v274l169 393h-85l-124 -298l-123 298h-88z" />
    <glyph glyph-name="thorn" unicode="&#xfe;" horiz-adv-x="435" 
d="M51.998 333.272v333.657h39.4648h39.4658v-92.084v-92.085h86.3447c84.6689 0 86.582 0 110.501 -6.21875c18.6562 -4.54492 27.9834 -8.61133 40.4209 -16.7432c33.2471 -22.2441 52.6191 -62.665 52.3809 -109.783c0 -48.793 -20.8086 -88.7363 -58.1211 -112.654
c-31.0928 -19.8525 -32.0508 -20.0908 -138.247 -20.0908h-93.2793v-108.827v-108.827h-39.4658h-39.4648v333.656zM318.686 395.46l-11.4814 7.17578l-88.2588 0.716797l-88.0166 0.71875v-55.251v-55.4912l84.4307 0.957031
c62.1855 0.717773 86.3438 1.91309 92.5615 4.06641c40.1836 15.3076 46.8799 74.8633 10.7646 97.1074z" />
    <glyph glyph-name="ydieresis" unicode="&#xff;" horiz-adv-x="436" 
d="M91.3145 732.037v37.0723h35.877h35.8779v-37.0723v-37.0742h-35.8779h-35.877v37.0742zM270.701 732.037v37.0723h35.877h35.8779v-37.0723v-37.0742h-35.8779h-35.877v37.0742zM178 273v-273h81v274l169 393h-85l-124 -298l-123 298h-88z" />
    <glyph glyph-name="OE" unicode="&#x152;" horiz-adv-x="554" 
d="M263.626 614.89v51.4238h86.1045h86.1055v-39.4648v-39.4648h-46.6406h-46.6396v-29.8975v-29.8975h72.9502h72.9492v-39.4648v-39.4648h-72.9492h-72.9502v-185.365v-185.364h84.9082h84.9102v-39.4658v-39.4639h-124.374h-124.374v153.075v153.076l-11.4814 -5.98047
c-27.2656 -14.3506 -68.166 -19.1338 -102.13 -11.959c-77.7334 16.2646 -129.396 98.7812 -112.415 179.387c9.08887 43.291 38.9863 82.0381 77.9736 100.934c25.1133 12.1982 39.9434 15.7852 67.9268 15.7852c25.3535 0 41.6182 -3.34766 63.1436 -12.915
c8.37109 -3.82715 15.5469 -6.93652 16.0244 -6.93652c0.479492 0 0.958008 23.2012 0.958008 51.4238zM218.898 505.105c-19.373 9.56738 -44.7256 10.5244 -63.8604 2.39355c-57.8828 -24.3975 -66.4932 -105.002 -15.0684 -138.966
c23.2002 -15.0684 53.0977 -17.2207 78.4502 -5.50098c23.6797 10.7627 37.791 29.6582 42.8145 56.4473c6.21875 35.1592 -11.0029 70.3193 -42.3359 85.626zM146.427 36.0732v37.0723h37.0732h37.0732v-37.0723v-37.0732h-37.0732h-37.0732v37.0732z" />
    <glyph glyph-name="Ydieresis" unicode="&#x178;" horiz-adv-x="429" 
d="M91.3145 732.037v37.0723h35.877h35.8779v-37.0723v-37.0742h-35.8779h-35.877v37.0742zM270.701 732.037v37.0723h35.877h35.8779v-37.0723v-37.0742h-35.8779h-35.877v37.0742zM255 370l166 297h-86l-117 -214l-118 214h-92l166 -297v-370h81v370z" />
    <glyph glyph-name="florin" unicode="&#x192;" horiz-adv-x="453" 
d="M191 543l-99.002 0.000976562v-73h76l-88 -302c-22.667 -76.667 -45 -132.334 -67 -167.001s-48.667 -52 -80 -52c-21.333 0 -37.666 2 -48.999 6v-74c12 -4.66699 27 -7 45 -7c56.667 0 101.167 19.5 133.5 58.5s61.5 103.5 87.5 193.5l100 344h179v73h-153
c12.667 37.333 28.334 64.5 47.001 81.5s42.667 25.5 72 25.5c14.667 0 28 -2 40 -6v74c-13.333 4.66699 -28.333 7 -45 7c-48 0 -87.833 -14.667 -119.5 -44s-58.167 -75.333 -79.5 -138z" />
    <glyph glyph-name="circumflex" unicode="&#x2c6;" horiz-adv-x="307" 
d="M61.3584 768.475l60.9922 21.2861c0.716797 0 28.7012 -9.32715 62.1865 -21.0469l60.9902 -21.2871l0.717773 -35.877l0.71875 -36.1162l-41.3789 14.3506l-61.708 21.5264l-20.3311 7.1748l-20.3311 -7.1748l-61.707 -21.5264l-41.3789 -14.3506l0.716797 36.1162
l0.71875 36.1162z" />
    <glyph glyph-name="tilde" unicode="&#x2dc;" horiz-adv-x="500" 
d="M407 816h-60c-2.66699 -20 -14.667 -30 -36 -30c-9.33301 0 -25.333 4.66699 -48 14c-16 7.33301 -30.667 13 -44 17s-28 6 -44 6c-53.333 0 -80.666 -31 -81.999 -93h60c3.33301 20 15 30 35 30c9.33301 0 25.333 -4.66699 48 -14
c17.333 -7.33301 32.666 -13 45.999 -17s28 -6 44 -6c27.333 0 47.5 7.5 60.5 22.5s19.833 38.5 20.5 70.5z" />
    <glyph glyph-name="uni2010" unicode="&#x2010;" horiz-adv-x="275" 
d="M236 302v73h-205v-73h205z" />
    <glyph glyph-name="uni2011" unicode="&#x2011;" horiz-adv-x="275" 
d="M236 302v73h-205v-73h205z" />
    <glyph glyph-name="figuredash" unicode="&#x2012;" horiz-adv-x="275" 
d="M236 302v73h-205v-73h205z" />
    <glyph glyph-name="endash" unicode="&#x2013;" horiz-adv-x="443" 
d="M415 302v73h-384v-73h384z" />
    <glyph glyph-name="emdash" unicode="&#x2014;" horiz-adv-x="635" 
d="M604 302v73h-573v-73h573z" />
    <glyph glyph-name="uni2015" unicode="&#x2015;" horiz-adv-x="635" 
d="M604 302v73h-573v-73h573z" />
    <glyph glyph-name="quoteleft" unicode="&#x2018;" horiz-adv-x="186" 
d="M138 667h-87l80 -104h93z" />
    <glyph glyph-name="quoteright" unicode="&#x2019;" horiz-adv-x="186" 
d="M95 563h-87l80 104h93z" />
    <glyph glyph-name="quotesinglbase" unicode="&#x201a;" 
d="M59 -24h-87l80 104h93z" />
    <glyph glyph-name="quotedblleft" unicode="&#x201c;" horiz-adv-x="291" 
d="M105 667h-87l80 -104h93zM235 667h-87l80 -104h93z" />
    <glyph glyph-name="quotedblright" unicode="&#x201d;" horiz-adv-x="291" 
d="M80 563h-87l80 104h93zM210 563h-87l80 104h93z" />
    <glyph glyph-name="quotedblbase" unicode="&#x201e;" horiz-adv-x="291" 
d="M60 -24h-87l80 104h93zM190 -24h-87l80 104h93z" />
    <glyph glyph-name="dagger" unicode="&#x2020;" horiz-adv-x="420" 
d="M167 472v-33h33v-66h-33v-6c0 -36.667 3.66699 -100 11 -190c10.667 -137.333 16 -247.333 16 -330v-27c-0.666992 -15.333 -1 -24.333 -1 -27h34v33c0 86.667 5.33301 199 16 337c6.66699 90 10 152.333 10 187v23h-33v66h33v33h56v-33h86v86h-86v-33h-56v33h-33v56h33
v86h-86v-86h33v-56h-33v-33h-56v33h-86v-86h86v33h56z" />
    <glyph glyph-name="daggerdbl" unicode="&#x2021;" horiz-adv-x="421" 
d="M167 87l33 0.000976562v-66h-33v-33h-56v33h-86v-86h86v33h56v-33h33v-56h-33v-86h86v86h-33v56h33v33h56v-33h86v86h-86v-33h-56v33h-33v66h33c-8.66699 45.333 -13 92.666 -13 141.999c0 50 4.33301 98 13 144h-33v66h33v33h56v-33h86v86h-86v-33h-56v33h-33v56h33v86
h-86v-86h33v-56h-33v-33h-56v33h-86v-86h86v33h56v-33h33v-66h-33c9.33301 -50 14 -98 14 -144s-4.66699 -93.333 -14 -142z" />
    <glyph glyph-name="bullet" unicode="&#x2022;" 
d="M53.2246 337.5l57.2754 -57.2754l57.2754 57.2754l-57.2754 57.2754z" />
    <glyph glyph-name="guilsinglleft" unicode="&#x2039;" horiz-adv-x="233" 
d="M27 311l100 -263h88l-103 263l103 263h-86z" />
    <glyph glyph-name="guilsinglright" unicode="&#x203a;" horiz-adv-x="233" 
d="M215 311l-102 263h-86l103 -263l-103 -263h88z" />
    <glyph glyph-name="fraction" unicode="&#x2044;" horiz-adv-x="207" 
d="M124 679l-98 -694h57l98 694h-57z" />
    <glyph glyph-name="u10FFC3" unicode="&#x10ffc3;" horiz-adv-x="386" 
d="M361 153c0 22.667 -4.33301 44.3281 -13 64.9951s-20.667 38.834 -36 54.501s-33.166 27.834 -53.499 36.501s-42.166 13 -65.499 13s-45.166 -4.33301 -65.499 -13s-38.166 -20.667 -53.499 -36s-27.333 -33.5 -36 -54.5s-13 -42.833 -13 -65.5
c0 -23.333 4.33301 -45.166 13 -65.499s20.667 -38.166 36 -53.499s33.166 -27.333 53.499 -36s42.166 -13 65.499 -13s45.166 4.33301 65.499 13s38.166 20.667 53.499 36s27.333 33.333 36 54s13 42.334 13 65.001zM193 55.9941c-27.333 0 -50.333 9.33301 -69 28
s-28 41.667 -28 69s9.33301 50.333 28 69s41.667 28 69 28s50.333 -9.33301 69 -28s28 -41.667 28 -69s-9.33301 -50.333 -28 -69s-41.667 -28 -69 -28zM231 345.994v255h112v66h-299v-66h114v-255h73z" />
    <glyph glyph-name="u10FFC4" unicode="&#x10ffc4;" horiz-adv-x="544" 
d="M321.54 99.292v-99.2266h-98.4043v99.2266h98.4043zM276.767 502.542c-18.6641 1.11914 -38.1572 -2.15625 -55.25 -9.74707c-17.9756 -7.9834 -33.917 -21.1855 -46.5537 -36.2373c-11.8145 -14.0684 -21.1592 -30.9189 -25.7979 -48.6777
c-4.48633 -17.1631 -3.72852 -35.6191 -1.26758 -53.1826c1.9375 -13.9014 5.75879 -27.8896 12.4902 -40.208c6.60059 -12.0547 16.458 -22.2129 26.5469 -31.5479c9.03418 -8.33984 18.8545 -16.2959 30.0205 -21.4443c12.1992 -5.63477 25.748 -8.33203 39.1348 -9.72754
c13.7471 -1.43945 27.8652 -1.01855 41.4893 1.4502c11.6055 2.11523 23.2539 5.52441 33.5322 11.3018c15.0244 8.45215 29.0547 19.6543 39.5684 33.3242c11.0469 14.3584 19.5078 31.4189 23.1475 49.167c4.64453 22.626 3.78418 47.0127 -2.46973 69.2539
c-4.31543 15.3164 -13.2705 29.3457 -23.4199 41.5801c-8.83203 10.6445 -19.6221 20.0908 -31.7656 26.6738c-18.1982 9.85645 -38.7461 16.7725 -59.4053 18.0215v0zM278.151 581.157c31.3076 -0.975586 63.0771 -9.26074 90.9102 -23.6006
c24.7656 -12.749 46.8584 -31.7617 64.085 -53.6592c17.0371 -21.6816 30.3135 -47.3496 36.6416 -74.1982c8.03906 -34.0176 7.71094 -70.6592 0.53125 -104.857c-4.60156 -21.8369 -14.96 -42.5342 -27.2959 -61.1348
c-12.832 -19.3682 -29.291 -36.6211 -47.5723 -50.9668c-15.6533 -12.2803 -33.2461 -22.8086 -52.0859 -29.1289c-26.1504 -8.77441 -54.3994 -12.0771 -81.9502 -11.3281c-23.1523 0.620117 -46.7295 4.55176 -68.1992 13.2148
c-19.9092 8.02734 -37.8662 20.9053 -54.0234 35.042c-15.6494 13.6777 -29.5225 29.7012 -40.5869 47.2852c-10.8994 17.3457 -20.6094 36.1914 -24.6514 56.2725c-7.86426 39.0234 -9.43652 81.2246 1.8457 119.4c8.21094 27.792 26.3623 52.4707 46.0732 73.7129
c17.5166 18.873 38.7119 35.3535 62.3096 45.6836c29.2256 12.7861 62.0869 19.252 93.9688 18.2627v0z" />
    <glyph glyph-name="u10FFC5" unicode="&#x10ffc5;" 
d="M35.2246 40.5l57.2754 -57.2754l57.2754 57.2754l-57.2754 57.2754z" />
    <glyph glyph-name="u10FFC6" unicode="&#x10ffc6;" horiz-adv-x="537" 
d="M240.908 665.974c0 0.478516 11.002 0.956055 24.6348 0.956055h24.3965l116.721 -331.982c64.1006 -182.495 116.48 -332.462 116.48 -333.418c0 -1.19531 -18.6562 -1.91309 -41.3789 -1.91309h-41.1377l-53.8164 152.597l-53.8154 153.358l-68.167 -0.282227
l-66.166 0.478516l-34.6807 -100.456l-74.6816 -205.456h-41.1387c-22.7227 0 -41.3789 0.478516 -41.3789 0.957031c0 0.716797 82.249 231.766 136.064 385.08c54.0547 153.554 98.0645 279.602 98.0645 280.081zM266.261 421.053l26.0713 0.716797l-13.6348 38.2686
c-7.41309 21.2871 -14.1113 36.5947 -14.8271 34.6807c-4.78516 -12.4355 -24.875 -73.1885 -24.1582 -73.666c0.239258 -0.239258 12.1982 -0.239258 26.5488 0zM302.616 391.394l-2.86914 7.6543h-34.4434h-34.2021l-3.34863 -7.6543l-3.10938 -7.89355l39.4648 -0.716797
c21.7646 -0.240234 39.9434 -0.240234 40.4209 0.239258c0.478516 0.477539 -0.477539 4.30566 -1.91309 8.37109z" />
    <glyph glyph-name="u10FFC7" unicode="&#x10ffc7;" horiz-adv-x="544" 
d="M118 0h307v74h-307v-74zM272 679c-32.667 0 -64.166 -6.33301 -94.499 -19s-57.166 -30.667 -80.499 -54c-48 -48 -72 -106 -72 -174c0 -33.333 6.16699 -65 18.5 -95s30.166 -56.667 53.499 -80s50 -41.166 80 -53.499s61.667 -18.5 95 -18.5s65 6.16699 95 18.5
s56.667 30.166 80 53.499s41.166 50 53.499 80s18.5 61.667 18.5 95c0 68 -24 126 -72 174c-23.333 23.333 -50 41.333 -80 54s-61.667 19 -95 19zM272.001 597c22.667 0 44 -4.16699 64 -12.5s37.667 -20.166 53 -35.499s27.166 -33 35.499 -53s12.5 -41.333 12.5 -64
s-4.16699 -44 -12.5 -64s-20.166 -37.667 -35.499 -53s-33 -27.166 -53 -35.499s-41.333 -12.5 -64 -12.5s-44 4.16699 -64 12.5s-37.667 20.166 -53 35.499s-27.166 33 -35.499 53s-12.5 41.333 -12.5 64s4.16699 44 12.5 64s20.166 37.667 35.499 53s33 27.166 53 35.499
s41.333 12.5 64 12.5z" />
    <glyph glyph-name="u10FFC8" unicode="&#x10ffc8;" horiz-adv-x="259" 
d="M95 580v-580h81v667h-73l-129 -75l31 -61z" />
    <glyph glyph-name="u10FFC9" unicode="&#x10ffc9;" horiz-adv-x="438" 
d="M206 380l-0.000976562 77h-6c-57.333 0 -86 23.667 -86 71c0 22.667 7.83301 41 23.5 55s36.5 21 62.5 21c62.667 0 94 -33.667 94 -101c0 -46 -27.333 -114.333 -82 -205l-180 -298h375v75h-240l143 243c22 38 38.5 72.333 49.5 103s16.5 63.334 16.5 98.001
c0 50 -15.667 89.167 -47 117.5s-74.666 42.5 -129.999 42.5c-50 0 -90.333 -14.333 -121 -43s-46 -66 -46 -112c0 -44.667 13.833 -79.834 41.5 -105.501s66.5 -38.5 116.5 -38.5h16z" />
    <glyph glyph-name="u10FFCA" unicode="&#x10ffca;" horiz-adv-x="433" 
d="M180 515l109.999 151.999h-270v-73h132l-115 -159c38.667 5.33301 71 8 97 8c58.667 0 103.334 -12 134.001 -36s46 -58.667 46 -104c0 -66.667 -24.833 -120.167 -74.5 -160.5s-123.167 -66.166 -220.5 -77.499v-75c123.333 12 217.333 45.667 282 101s97 129 97 221
c0 123.333 -72.667 191 -218 203z" />
    <glyph glyph-name="u10FFCB" unicode="&#x10ffcb;" horiz-adv-x="476" 
d="M129 196l90 471h-81l-108 -544h229v-123h81v123h104v73h-104v275h-81v-275h-130z" />
    <glyph glyph-name="u10FFCC" unicode="&#x10ffcc;" horiz-adv-x="423" 
d="M116 517l12.999 77h168v73h-237l-28 -232c38.667 5.33301 71 8 97 8c58.667 0 103.334 -12 134.001 -36s46 -58.667 46 -104c0 -66 -23.5 -119.333 -70.5 -160s-116.167 -66.667 -207.5 -78v-75c118.667 12.667 208.667 46.5 270 101.5s92 128.5 92 220.5
c0 136.667 -91 205 -273 205h-4z" />
    <glyph glyph-name="u10FFCD" unicode="&#x10ffcd;" horiz-adv-x="433" 
d="M213 186c19.333 17.333 38.666 25.999 57.999 25.999c39.333 0 59 -23.667 59 -71c0 -23.333 -8.66699 -42.5 -26 -57.5s-40 -22.5 -68 -22.5c-37.333 0 -66.166 12.833 -86.499 38.5s-30.5 62.834 -30.5 111.501c0 52 15 115.167 45 189.5s75.333 163.166 136 266.499
h-97c-56 -96.667 -98 -182.167 -126 -256.5s-42 -140.166 -42 -197.499c0 -74 16.667 -130.333 50 -169s81.333 -58 144 -58c56 0 100.667 15.667 134 47s50 72.666 50 123.999c0 40.667 -12 73.334 -36 98.001s-55.333 37 -94 37c-46 0 -84 -18 -114 -54z" />
    <glyph glyph-name="u10FFCE" unicode="&#x10ffce;" horiz-adv-x="369" 
d="M245 594c-124.667 -194 -187.667 -392 -189 -594h83c10.667 138 34.667 258.833 72 362.5s89.333 192.5 156 266.5v38h-336v-73h214z" />
    <glyph glyph-name="u10FFCF" unicode="&#x10ffcf;" horiz-adv-x="466" 
d="M272 398l0.000976562 40c56 27.333 84 66.333 84 117c0 34 -12 63 -36 87s-53 36 -87 36c-34.667 0 -63.834 -12 -87.501 -36s-35.5 -53 -35.5 -87c0 -52 28.667 -91 86 -117v-39c-114 -36 -171 -104.333 -171 -205c0 -28.667 5.33301 -55.667 16 -81
s25.5 -47.5 44.5 -66.5s41.167 -33.833 66.5 -44.5s52.333 -16 81 -16s55.667 5.33301 81 16s47.5 25.5 66.5 44.5s33.833 41.167 44.5 66.5s16 52.333 16 81c0 98.667 -56.333 166.667 -169 204zM233.001 324c36 0 66.667 -12.667 92 -38s38 -56 38 -92
s-12.5 -66.667 -37.5 -92s-55.833 -38 -92.5 -38s-67.5 12.5 -92.5 37.5s-37.5 55.833 -37.5 92.5s12.667 67.5 38 92.5s56 37.5 92 37.5zM233.001 500c-15.333 0 -28.333 5.33301 -39 16s-16 23.667 -16 39s5.33301 28.333 16 39s23.667 16 39 16s28.333 -5.33301 39 -16
s16 -23.667 16 -39s-5.33301 -28.333 -16 -39s-23.667 -16 -39 -16z" />
    <glyph glyph-name="u10FFD0" unicode="&#x10ffd0;" horiz-adv-x="378" 
d="M162 0c57.333 103.333 100.167 195.166 128.5 275.499s42.5 151.833 42.5 214.5c0 58 -15.667 104 -47 138s-73 51 -125 51c-49.333 0 -87.666 -12.167 -114.999 -36.5s-41 -58.166 -41 -101.499c0 -39.333 12.333 -71.166 37 -95.499s56.667 -36.5 96 -36.5
c44 0 80 17 108 51l-44 48c-17.333 -17.333 -37 -26 -59 -26c-18.667 0 -33.334 5.16699 -44.001 15.5s-16 24.833 -16 43.5c0 19.333 6.16699 34.666 18.5 45.999s29.5 17 51.5 17c32 0 57 -11 75 -33s27 -53 27 -93c0 -57.333 -15 -125 -45 -203
s-75.333 -169.667 -136 -275h88z" />
    <glyph glyph-name="u10FFD1" unicode="&#x10ffd1;" horiz-adv-x="447" 
d="M0 0h433v73h-313l277 594h-337v-73h217z" />
    <glyph glyph-name="u10FFD2" unicode="&#x10ffd2;" horiz-adv-x="486" 
d="M272 268c112.667 37.333 168.998 105.333 168.998 204c0 28.667 -5.33301 55.667 -16 81s-25.667 47.5 -45 66.5s-41.666 33.833 -66.999 44.5s-52 16 -80 16s-54.667 -5.33301 -80 -16s-47.666 -25.5 -66.999 -44.5s-34.333 -41.167 -45 -66.5s-16 -52.333 -16 -81
c0 -100 56 -168 168 -204v-268h266v72h-187v196zM271.998 350v121h-79v-121c-58.667 26.667 -88 67.334 -88 122.001c0 34.667 12.667 64.667 38 90s55.333 38 90 38s64.667 -12.667 90 -38s38 -55.333 38 -90c0 -54.667 -29.667 -95.334 -89 -122.001z" />
    <glyph glyph-name="u10FFD3" unicode="&#x10ffd3;" horiz-adv-x="344" 
d="M61.5996 67.5v-68h73.6006v68h-73.6006zM188.8 67.5v-68h73.6006v68h-73.6006zM12.3623 628.294l-0.981445 38.9678h40.4561h40.7002l0.491211 -34.0645l0.734375 -226.308l0.0722656 -0.162109c9.47559 -18.1016 12.4678 -32.6484 24.6641 -45.7275
c12.3486 -13.2451 24.9062 -24.9082 35.2676 -24.9287c0.405273 0.232422 14.1133 -0.463867 15.2334 -0.0712891c8.00098 2.80078 18.0488 3.42578 29 12.583c16.4229 13.7324 28.626 37.9092 34 47.417l0.116211 0.4375l0.734375 235.534l0.492188 35.29h40.7002h40.4551
l-0.736328 -38.9678c-0.979492 -297.163 0.246094 -247.303 -16.6719 -282.854c-20.1045 -42.6621 -65.3672 -82.873 -106.227 -96.3564c-12.1865 -6.62109 -50.2295 -6.13184 -62.6562 0.979492c-41.9922 14.2207 -76.126 50.5088 -98.4365 94.8867
c-17.8994 36.042 -16.6729 -15.7793 -17.4082 283.345z" />
    <glyph glyph-name="u10FFD4" unicode="&#x10ffd4;" horiz-adv-x="537" 
d="M304.579 330.402h-83.9561l41.9785 165.514zM323.77 253.642l64.7656 -253.067h94.751l-173.909 666.852h-83.9561l-178.707 -666.852h89.9531l64.7666 253.067h122.336z" />
    <glyph glyph-name="u10FFD5" unicode="&#x10ffd5;" horiz-adv-x="465" 
d="M309 244c-18 -1.33301 -43.6689 -9.00098 -77.002 -23.001c-19.333 -8 -35.666 -14.167 -48.999 -18.5s-27.666 -7.16602 -42.999 -8.49902l13 48c12.667 0.666992 24.5 3 35.5 7s24.5 9.66699 40.5 17c28.667 12.667 51 19.667 67 21zM120.998 123.999
c20 0.666992 38.832 3.5 56.499 8.5s38.834 12.167 63.501 21.5c38 14.667 66.667 23 86 25l51 -179h79l-189 667h-71l-189 -667h79zM278.997 349.999c-12 -1.33301 -29.001 -7 -51.001 -17c-23.333 -10.667 -41.666 -16.667 -54.999 -18l57 206z" />
    <glyph glyph-name="u10FFD7" unicode="&#x10ffd7;" horiz-adv-x="833" 
d="M133 0v471h631v72h-631v51h217v73h-298v-667h81zM332 450c-48 0 -87.167 -15.667 -117.5 -47s-45.5 -72.333 -45.5 -123c0 -51.333 15.167 -92.666 45.5 -123.999s69.5 -47 117.5 -47c48.667 0 88 15.667 118 47s45 72.666 45 123.999c0 50.667 -15.167 91.667 -45.5 123
s-69.5 47 -117.5 47zM332 381c26 0 47.833 -9.66699 65.5 -29s26.5 -43.333 26.5 -72c0 -29.333 -8.83301 -53.666 -26.5 -72.999s-39.5 -29 -65.5 -29s-47.833 9.66699 -65.5 29s-26.5 43.666 -26.5 72.999c0 28.667 8.83301 52.667 26.5 72s39.5 29 65.5 29zM603 288v93
h39c39.333 0 59 -10.333 59 -31c0 -26 -32.667 -46.667 -98 -62zM706 260c46 27.333 69 59.999 69 97.999c0 32.667 -11.5 55.334 -34.5 68.001s-59.5 19 -109.5 19h-100v-445h72v222l37 13l109 -235h82z" />
    <glyph glyph-name="u10FFDA" unicode="&#x10ffda;" horiz-adv-x="1049" 
d="M215 594h150v73h-363v-73h132v-594h81v594zM365 346h164v-346h81v667h-81v-159h-164v59h-81v-567h81v346zM529 410h-164v34h164v-34zM736 470h302v73h-302v51h216v73h-297v-667h325v73h-244v397z" />
    <glyph glyph-name="u10FFDB" unicode="&#x10ffdb;" horiz-adv-x="550" 
d="M232 543v51h160v73h-390v-73h149v-594h81v470h113v-470h81v470h122v73h-316z" />
    <glyph glyph-name="u10FFDC" unicode="&#x10ffdc;" horiz-adv-x="599" 
d="M409 390h-65l32 127zM427 320l82 -320h82l-176 666h-77l-157 -593h-48v594h-81v-667h302v73h-91l62 247h102z" />
    <glyph glyph-name="u10FFDD" unicode="&#x10ffdd;" horiz-adv-x="789" 
d="M457 69c48.667 62.667 72.999 150.999 72.999 264.999c0 110.667 -24.333 197.667 -73 261c15.333 6 34.333 9 57 9c51.333 0 91.833 -23.167 121.5 -69.5s44.5 -112.166 44.5 -197.499c0 -90.667 -14.667 -159.5 -44 -206.5s-71.666 -70.5 -126.999 -70.5
c-18.667 0 -36 3 -52 9zM394.999 13.999c34.667 -19.333 74.001 -29 118.001 -29c82 0 144.333 29.667 187 89s64 146 64 260c0 112.667 -21.667 198.334 -65 257.001s-105.333 88 -186 88c-44 0 -83.333 -9.66699 -118 -29c-34.667 19.333 -73.334 29 -116.001 29
c-82 0 -144.833 -29.333 -188.5 -88s-65.5 -144.334 -65.5 -257.001c0 -114.667 21.667 -201.5 65 -260.5s106.333 -88.5 189 -88.5c44 0 82.667 9.66699 116 29zM331 593.999c-48 -63.333 -72 -150 -72 -260c0 -112 24 -200 72 -264c-17.333 -6.66699 -36 -10 -56 -10
c-52.667 0 -93.5 23.667 -122.5 71s-43.5 116 -43.5 206c0 86 14.5 152 43.5 198s69.833 69 122.5 69c20 0 38.667 -3.33301 56 -10zM394 118.999c-34 48 -51 120.667 -51 218c0 48 4.5 89.5 13.5 124.5s21.5 63.167 37.5 84.5c34.667 -47.333 52 -117 52 -209
c0 -97.333 -17.333 -170 -52 -218z" />
    <glyph glyph-name="u10FFDE" unicode="&#x10ffde;" horiz-adv-x="396" 
d="M246 586l6.99902 76c-34 11.333 -64 17 -90 17c-44.667 0 -79.334 -11 -104.001 -33s-37 -53 -37 -93c0 -33.333 9.16699 -60 27.5 -80s49.833 -45 94.5 -75c10.667 -6.66699 22.667 -14.667 36 -24c38 -26 65.333 -51.333 82 -76s25 -55 25 -91
c0 -44.667 -13 -80.334 -39 -107.001s-61 -40 -105 -40c-41.333 0 -80.333 10.333 -117 31l-15 -76c34 -20 80.667 -30 140 -30c66.667 0 120 20.667 160 62s60 95 60 161c0 58.667 -15.333 108 -46 148c-14 18 -31.167 35.333 -51.5 52s-46.166 35.334 -77.499 56.001
l-12 8c-29.333 19.333 -49.666 34.5 -60.999 45.5s-17 24.5 -17 40.5c0 14 5.5 25.333 16.5 34s25.5 13 43.5 13c26 0 52.667 -6.33301 80 -19z" />
    <glyph glyph-name="u10FFDF" unicode="&#x10ffdf;" horiz-adv-x="699" 
d="M329 334l189.994 333.003h-233c-37.333 0 -66 -8.33301 -86 -25s-30 -40 -30 -70s8.66699 -55 26 -75c-54.667 -18.667 -96.834 -49.334 -126.501 -92.001s-44.5 -94 -44.5 -154c0 -38.667 6.33301 -74.334 19 -107.001s30.834 -60.834 54.501 -84.501
s51.834 -41.834 84.501 -54.501s68.667 -19 108 -19c38.667 0 74.334 6.33301 107.001 19s60.834 30.667 84.501 54s41.834 50.833 54.501 82.5s19 65.834 19 102.501c0 23.333 -2 46 -6 68c46 -6 71 -35.667 75 -89l73 6c-5.33301 51.333 -22.833 90.5 -52.5 117.5
s-69.5 40.5 -119.5 40.5c-23.333 0 -50.166 -4.33301 -80.499 -13s-69.166 -22 -116.499 -40zM119.994 337.003c16.667 36.667 39 63.668 67 81.001s63.333 26 106 26h21l-76 -129c-50.667 1.33301 -90 8.66602 -118 21.999zM353.994 513.004h-32
c-44.667 0 -67 15.667 -67 47c0 27.333 16 41 48 41h101zM468.994 305.004c3.33301 -14 5.00098 -32.665 5.00098 -55.998c0 -58.667 -16.667 -105.334 -50 -140.001s-76.666 -52 -129.999 -52c-58 0 -103.667 17.167 -137 51.5s-50 82.166 -50 143.499v17
c39.333 -18 81.333 -27 126 -27c25.333 0 50.666 3.33301 75.999 10s57.666 17 96.999 31c26.667 10 47.667 17.333 63 22z" />
    <glyph glyph-name="u10FFE1" unicode="&#x10ffe1;" horiz-adv-x="386" 
d="M137 136h244v66h-244v48h173v66h-246v-316h73v136zM193 679c-23.333 0 -45.166 -4.33301 -65.499 -13s-38.166 -20.667 -53.499 -36s-27.333 -33.333 -36 -54s-13 -42.334 -13 -65.001c0 -23.333 4.33301 -45.166 13 -65.499s20.667 -38.166 36 -53.499
s33.166 -27.333 53.499 -36s42.166 -13 65.499 -13s45.166 4.33301 65.499 13s38.166 20.667 53.499 36s27.333 33.166 36 53.499s13 42.166 13 65.499c0 22.667 -4.33301 44.334 -13 65.001s-20.667 38.667 -36 54s-33.166 27.333 -53.499 36s-42.166 13 -65.499 13z
M193 608c27.333 0 50.333 -9.33301 69 -28s28 -41.667 28 -69s-9.33301 -50.333 -28 -69s-41.667 -28 -69 -28s-50.333 9.33301 -69 28s-28 41.667 -28 69s9.33301 50.333 28 69s41.667 28 69 28z" />
    <glyph glyph-name="u10FFE2" unicode="&#x10ffe2;" horiz-adv-x="313" 
d="M203 505l21 -46h46l-98 208h-37l-96 -208h43l23 46h98zM188 539h-68l34 74zM95 394l125 -72v-88h41v213h-41v-74l-124 74h-44v-205h43v152zM52 229v-229c149.333 0 224 47.333 224 142c0 30 -11.333 52 -34 66s-57.667 21 -105 21h-85zM96 42v145.001h40
c62 0 93 -17.667 93 -53c0 -26.667 -11.667 -48.334 -35 -65.001s-56 -25.667 -98 -27z" />
    <glyph glyph-name="u10FFE3" unicode="&#x10ffe3;" horiz-adv-x="589" 
d="M294 419l-97 -277l-106 525h-83l141 -667h71l71 211l72 -211h77l141 667h-81l-106 -522zM335 591v74h-81v-74h81zM335 468v74h-81v-74h81z" />
    <glyph glyph-name="u10FFE4" unicode="&#x10ffe4;" horiz-adv-x="488" 
d="M242 416c48 -35.333 83.332 -69.834 105.999 -103.501s34 -70.5 34 -110.5c0 -45.333 -13.667 -78.166 -41 -98.499s-70.666 -30.5 -129.999 -30.5h-78v277c36 16.667 72.333 38.667 109 66zM303.999 469.999c28 29.333 42 59.666 42 90.999
c0 70.667 -46.333 106 -139 106h-155v-667h173c158.667 0 238 70.667 238 212c0 46.667 -13 90.834 -39 132.501s-66 83.5 -120 125.5zM132.999 432.999v161.002h48c28.667 0 49.167 -2.83301 61.5 -8.5s18.5 -16.834 18.5 -33.501c0 -38.667 -42.667 -78.334 -128 -119.001
z" />
    <glyph glyph-name="u10FFE5" unicode="&#x10ffe5;" horiz-adv-x="642" 
d="M480 593h160v74h-397v-74h156v-593h81v593zM223 275h-70l35 138zM239 211l54 -211h79l-145 556h-70l-149 -556h75l54 211h102z" />
    <glyph glyph-name="u10FFE6" unicode="&#x10ffe6;" horiz-adv-x="537" 
d="M263.68 516.598l-27.7988 -99.332h57.0723zM88.7754 -0.201172h-79.8506l233.434 666.451h45.4287l234.456 -666.451h-81.2959l-119.306 344.049h-113.176z" />
    <glyph glyph-name="u10FFE7" unicode="&#x10ffe7;" horiz-adv-x="471" 
d="M52.2715 398.294l-0.981445 268.968h40.4561h40.7002l0.233398 -125.262h205.489l0.232422 125.262h40.7002h40.4551l-0.736328 -268.968c-0.979492 -297.163 0.246094 -277.303 -16.6719 -312.854c-20.1045 -42.6621 -70.3672 -82.873 -120.14 -96.3564
c-24.7646 -6.62109 -71.5938 -6.13184 -96.8477 0.979492c-49.0371 14.2207 -93.1709 50.5088 -115.481 94.8867c-17.8994 36.042 -16.6729 14.2207 -17.4082 313.345zM132.861 444h205.125l0.0634766 34h-205.252zM133.001 380l0.669922 -241.11l9.07227 -17.1621
c19.124 -36.5322 50.7529 -55.6562 92.6797 -55.6562c17.1621 0 24.0273 0.980469 38.0039 6.61816c28.1963 11.2783 47.5654 28.4414 58.3535 51.9785l5.39355 11.7695l0.673828 243.562h-204.847z" />
    <glyph glyph-name="u10FFE8" unicode="&#x10ffe8;" horiz-adv-x="537" 
d="M240.908 665.974l24.6348 0.956055h24.3965l116.721 -331.982l116.48 -333.418l-41.3789 -1.91309h-41.1377l-53.8164 152.597l-53.8154 153.358l-68.167 -0.282227l-66.166 0.478516l-34.6807 -100.456l-74.6816 -205.456h-41.1387l-41.3789 0.957031l136.064 385.08z
M304.529 383.022l-40.6592 111.696l-39.2266 -111.219v0l79.8857 -0.477539v0v0z" />
    <glyph glyph-name="u10FFE9" unicode="&#x10ffe9;" horiz-adv-x="383" 
d="M334.625 650.587c1.52051 -33.8359 2.51074 -46.4512 4.49219 -89.4551c-22.0049 11.4834 -32.7754 23.4775 -51.9355 27.4834c-20.2764 4.21973 -42.54 2.57031 -61.9453 -4.66211c-18.7207 -6.9873 -34.9736 -20.7285 -48.1465 -35.7734
c-16.5068 -18.8916 -26.9092 -42.6504 -36.458 -65.8584c-10.8242 -26.2529 -18.373 -53.9883 -23.2119 -81.9668c-5.66992 -32.8311 -7.61035 -66.4277 -6.61621 -99.7354c1.08105 -35.7256 3.66895 -72.0156 13.4717 -106.387
c5.36328 -18.8262 13.7432 -37.0049 24.4717 -53.3691c9.74121 -14.8281 19.2764 -30.9326 35.54 -39.6084c24.4717 -13.0322 52.4854 -24.9619 80.5508 -24.7393c30.0625 0.256836 62.4883 11.5508 85.7393 27.8906l0.827148 -87.1182
c-7.70801 -1.11914 -35.5605 -13.7539 -54.2793 -15.8613c-27.79 -3.12305 -56.6084 -1.8125 -83.7246 5.01465c-28.5977 7.2207 -57.2852 18.7627 -80.2646 37.2559c-28.9814 23.3447 -50.6504 55.752 -67.54 88.9199c-12.2207 24.0234 -18.5244 50.8887 -23.2793 77.4033
c-6.8877 38.458 -9.09082 77.9463 -7.32812 116.966c2.51562 55.4717 7.7666 111.985 25.3691 164.65c12.626 37.7441 30.374 75.1602 56.4697 105.222c21.0264 24.2568 47.9375 44.7705 77.5967 57.0557c29.4629 12.207 62.8906 17.9004 94.584 14.4121
c16.2197 -1.80371 38.4043 -13.123 45.6172 -17.7393v0z" />
    <glyph glyph-name="u10FFEA" unicode="&#x10ffea;" horiz-adv-x="425" 
d="M52 667h161c137 0 201 -41 201 -144s-89 -160 -281 -218v-305h-81v667zM133 383c133 36 197 77 197 142c0 46 -40 68 -120 68h-77v-210z" />
    </font>
</defs>
</svg>
