<svg width="22" height="20" viewBox="0 0 22 20" fill="none" xmlns="http://www.w3.org/2000/svg">
<path d="M10.436 19.9976C8.63395 19.9026 7.19019 18.4201 7.1394 16.6142C7.11103 15.6969 7.4458 14.8055 8.07084 14.134L8.14148 14.0633C8.16537 14.04 8.18824 14.0168 8.21078 13.9922C8.45268 13.7258 8.58957 13.3804 8.59594 13.0205C8.59594 13.011 8.59594 13.0009 8.59594 12.9915V12.9831C8.59362 12.7847 8.52834 12.5922 8.40952 12.4333C8.2907 12.2745 8.1245 12.1576 7.93494 12.0996C3.36888 10.6941 0 6.25989 0 6.25989C0 6.25989 4.7568 0 10.625 0C16.4932 0 21.25 6.25989 21.25 6.25989C21.25 6.25989 17.8704 10.7072 13.2945 12.1039C13.108 12.1607 12.9443 12.2755 12.8273 12.4316C12.7104 12.5878 12.6461 12.7772 12.644 12.9723V12.9794C12.644 12.9922 12.644 13.005 12.644 13.0178C12.6529 13.3802 12.7949 13.7267 13.0429 13.9909C13.055 14.0027 13.0645 14.0141 13.0766 14.0246L13.091 14.039C13.5903 14.5388 13.9264 15.1784 14.0547 15.8733C14.1831 16.5683 14.0978 17.2859 13.8101 17.9313C13.5223 18.5767 13.0457 19.1195 12.4432 19.4879C11.8407 19.8564 11.1406 20.0332 10.4356 19.9949" fill="#FF002E"/>
</svg>
