<svg width="20" height="22" viewBox="0 0 20 22" fill="none" xmlns="http://www.w3.org/2000/svg">
<path fill-rule="evenodd" clip-rule="evenodd" d="M14.741 9.55958C14.741 10.4346 14.5742 11.301 14.2501 12.1094C13.926 12.9178 13.4509 13.6523 12.852 14.271C12.2532 14.8897 11.5422 15.3805 10.7597 15.7153C9.97723 16.0502 9.13858 16.2225 8.29164 16.2225C7.4447 16.2225 6.60605 16.0502 5.82358 15.7153C5.04111 15.3805 4.33013 14.8897 3.73125 14.271C3.13238 13.6523 2.65732 12.9178 2.33321 12.1094C2.0091 11.301 1.84228 10.4346 1.84228 9.55958C1.84228 7.79246 2.52176 6.09772 3.73125 4.84818C4.94074 3.59864 6.58116 2.89666 8.29164 2.89666C10.0021 2.89666 11.6425 3.59864 12.852 4.84818C14.0615 6.09772 14.741 7.79246 14.741 9.55958ZM13.4677 16.253C11.8119 17.6196 9.71246 18.2794 7.60052 18.0968C5.48857 17.9142 3.52446 16.9031 2.11157 15.2711C0.69867 13.6392 -0.055761 11.5103 0.00321439 9.3216C0.0621898 7.13295 0.930095 5.05069 2.42868 3.50248C3.92727 1.95427 5.94279 1.05763 8.06129 0.996699C10.1798 0.93577 12.2405 1.71518 13.8201 3.17486C15.3998 4.63455 16.3785 6.66369 16.5552 8.84557C16.7319 11.0274 16.0933 13.1964 14.7705 14.907L20 20.3078C19.8881 20.3557 18.6954 21.6556 18.6954 21.6556L13.4696 16.253H13.4677Z" fill="#FF002E"/>
</svg>
